<svg xmlns="http://www.w3.org/2000/svg" xmlns:xlink="http://www.w3.org/1999/xlink" width="108" height="108" viewBox="0 0 108 108">
  <defs>
    <filter id="Trazado_904820" x="0" y="0" width="108" height="108" filterUnits="userSpaceOnUse">
      <feOffset dy="3" input="SourceAlpha"/>
      <feGaussianBlur stdDeviation="3" result="blur"/>
      <feFlood flood-opacity="0.161"/>
      <feComposite operator="in" in2="blur"/>
      <feComposite in="SourceGraphic"/>
    </filter>
  </defs>
  <g id="Grupo_1221215" data-name="Grupo 1221215" transform="translate(-197 -1671)">
    <g id="Grupo_1220569" data-name="Grupo 1220569" transform="translate(206 1677)">
      <g id="Grupo_1219977" data-name="Grupo 1219977" transform="translate(0 0)">
        <g id="Grupo_1219603" data-name="Grupo 1219603">
          <g id="Grupo_1202655" data-name="Grupo 1202655" transform="translate(0)">
            <g id="Grupo_1173585" data-name="Grupo 1173585">
              <g id="Grupo_1173428" data-name="Grupo 1173428">
                <g id="Grupo_1171958" data-name="Grupo 1171958">
                  <g id="Grupo_1167341" data-name="Grupo 1167341">
                    <g id="Grupo_1166792" data-name="Grupo 1166792">
                      <g transform="matrix(1, 0, 0, 1, -9, -6)" filter="url(#Trazado_904820)">
                        <g id="Trazado_904820-2" data-name="Trazado 904820" transform="translate(9 6)" fill="#cbd0dc">
                          <path d="M 44.99999618530273 88.49999237060547 C 39.12687301635742 88.49999237060547 33.43022155761719 87.35006713867188 28.06829643249512 85.08216857910156 C 22.88852119445801 82.89130401611328 18.23629570007324 79.75457763671875 14.24084663391113 75.75914001464844 C 10.24540901184082 71.76369476318359 7.108683586120605 67.11146545410156 4.917821407318115 61.93169403076172 C 2.649921178817749 56.56976699829102 1.499996185302734 50.87311553955078 1.499996185302734 44.99999237060547 C 1.499996185302734 39.12686920166016 2.649921178817749 33.43021774291992 4.917821407318115 28.06829261779785 C 7.108683586120605 22.88851737976074 10.24540901184082 18.23630523681641 14.24084663391113 14.24085521697998 C 18.23629570007324 10.24540519714355 22.88852119445801 7.108692169189453 28.06829643249512 4.917829990386963 C 33.43022155761719 2.649929761886597 39.12687301635742 1.500004887580872 44.99999618530273 1.500004887580872 C 50.87311935424805 1.500004887580872 56.56977081298828 2.649929761886597 61.93169784545898 4.917829990386963 C 67.11147308349609 7.108692169189453 71.76369476318359 10.24540519714355 75.75914764404297 14.24085521697998 C 79.75458526611328 18.23630523681641 82.89131164550781 22.88851737976074 85.08216857910156 28.06829261779785 C 87.35007476806641 33.43021774291992 88.5 39.12686920166016 88.5 44.99999237060547 C 88.5 50.87311553955078 87.35007476806641 56.56976699829102 85.08216857910156 61.93169403076172 C 82.89131164550781 67.11146545410156 79.75458526611328 71.76369476318359 75.75914764404297 75.75914001464844 C 71.76369476318359 79.75457763671875 67.11147308349609 82.89130401611328 61.93169784545898 85.08216857910156 C 56.56977081298828 87.35006713867188 50.87311935424805 88.49999237060547 44.99999618530273 88.49999237060547 Z" stroke="none"/>
                          <path d="M 44.99999618530273 2.999992370605469 C 39.32870864868164 2.999992370605469 33.82865142822266 4.11004638671875 28.65262603759766 6.299331665039062 C 23.65165710449219 8.414566040039062 19.15968322753906 11.44333648681641 15.301513671875 15.30150604248047 C 11.44333648681641 19.15967559814453 8.414566040039062 23.65164947509766 6.299339294433594 28.65262222290039 C 4.110054016113281 33.82864761352539 2.999992370605469 39.32870483398438 2.999992370605469 44.99999237060547 C 2.999992370605469 50.67127990722656 4.110054016113281 56.17132186889648 6.299339294433594 61.34736633300781 C 8.414566040039062 66.34833526611328 11.44333648681641 70.84029388427734 15.301513671875 74.69846343994141 C 19.15968322753906 78.55663299560547 23.65165710449219 81.58540344238281 28.65262603759766 83.70063781738281 C 33.82865142822266 85.88992309570312 39.32870864868164 86.99997711181641 44.99999618530273 86.99997711181641 C 50.67128372192383 86.99997711181641 56.17134094238281 85.88992309570312 61.34736633300781 83.70063781738281 C 66.34834289550781 81.58540344238281 70.84030914306641 78.55663299560547 74.69847869873047 74.69846343994141 C 78.55665588378906 70.84029388427734 81.58542633056641 66.34833526611328 83.70065307617188 61.34736633300781 C 85.88993835449219 56.17132186889648 87 50.67127990722656 87 44.99999237060547 C 87 39.32870483398438 85.88993835449219 33.82864761352539 83.70065307617188 28.65262222290039 C 81.58542633056641 23.65164947509766 78.55665588378906 19.15967559814453 74.69847869873047 15.30150604248047 C 70.84030914306641 11.44333648681641 66.34834289550781 8.414566040039062 61.34736633300781 6.299331665039062 C 56.17134094238281 4.11004638671875 50.67128372192383 2.999992370605469 44.99999618530273 2.999992370605469 M 44.99999618530273 -7.62939453125e-06 C 69.85281372070312 -7.62939453125e-06 90 20.14717864990234 90 44.99999237060547 C 90 69.85279083251953 69.85281372070312 89.99997711181641 44.99999618530273 89.99997711181641 C 20.14717864990234 89.99997711181641 -7.62939453125e-06 69.85279083251953 -7.62939453125e-06 44.99999237060547 C -7.62939453125e-06 20.14717864990234 20.14717864990234 -7.62939453125e-06 44.99999618530273 -7.62939453125e-06 Z" stroke="none" fill="#edeef2"/>
                        </g>
                      </g>
                    </g>
                  </g>
                </g>
              </g>
            </g>
          </g>
        </g>
      </g>
    </g>
    <g id="subasta" transform="translate(222 1693)">
      <g id="Grupo_1221186" data-name="Grupo 1221186" transform="translate(5.527 1.905)">
        <path id="Trazado_1170172" data-name="Trazado 1170172" d="M45.837,50.89H16.865V52.7a3.622,3.622,0,1,1-7.243,0V5.622A3.622,3.622,0,0,0,6,2H39.5a6.338,6.338,0,0,1,6.338,6.338Z" transform="translate(-6 -2)" fill="#adaba6"/>
      </g>
      <g id="Grupo_1221187" data-name="Grupo 1221187" transform="translate(5.527 1.905)">
        <path id="Trazado_1170173" data-name="Trazado 1170173" d="M9.622,5.622V42.673a20.049,20.049,0,0,0,12.675,4.6c12,0,21.729-10.944,21.729-24.445,0-8.8-4.139-16.52-10.348-20.824H6A3.622,3.622,0,0,1,9.622,5.622Z" transform="translate(-6 -2)" fill="#f1efeb"/>
      </g>
      <g id="Grupo_1221189" data-name="Grupo 1221189" transform="translate(12.77 50.796)">
        <g id="Grupo_1221188" data-name="Grupo 1221188" transform="translate(0)">
          <path id="Trazado_1170174" data-name="Trazado 1170174" d="M46.594,56H17.622v1.811A3.622,3.622,0,0,1,14,61.432H46.594a3.622,3.622,0,0,0,3.622-3.622V56Z" transform="translate(-14 -56)" fill="#74726f"/>
        </g>
      </g>
      <g id="Grupo_1221190" data-name="Grupo 1221190" transform="translate(1.905 1.905)">
        <path id="Trazado_1170175" data-name="Trazado 1170175" d="M9.243,12.865H2V5.622a3.622,3.622,0,1,1,7.243,0Z" transform="translate(-2 -2)" fill="#74726f"/>
      </g>
      <g id="Grupo_1221191" data-name="Grupo 1221191" transform="translate(12.77 32.688)">
        <circle id="Elipse_14576" data-name="Elipse 14576" cx="7" cy="7" r="7" transform="translate(0.364 0.445)" fill="#b57769"/>
      </g>
      <g id="Grupo_1221192" data-name="Grupo 1221192" transform="translate(16.391 36.31)">
        <ellipse id="Elipse_14577" data-name="Elipse 14577" cx="4" cy="3.5" rx="4" ry="3.5" transform="translate(-0.258 -0.176)" fill="#f29f8c"/>
      </g>
      <g id="Grupo_1221193" data-name="Grupo 1221193" transform="translate(42.638 33.595)">
        <path id="Trazado_1170176" data-name="Trazado 1170176" d="M0,0H3.2V16.005H0Z" transform="translate(0 2.263) rotate(-45)" fill="#bf8859"/>
      </g>
      <g id="Grupo_1221194" data-name="Grupo 1221194" transform="translate(36.302 27.258)">
        <path id="Trazado_1170177" data-name="Trazado 1170177" d="M0,0H8.962V6.4H0Z" transform="translate(0 6.336) rotate(-45)" fill="#bf8859"/>
      </g>
      <g id="Grupo_1221195" data-name="Grupo 1221195" transform="translate(32.681 32.688)">
        <path id="Trazado_1170178" data-name="Trazado 1170178" d="M0,0H3.842V8.962H0Z" transform="translate(0 2.716) rotate(-45)" fill="#bf8859"/>
      </g>
      <g id="Grupo_1221196" data-name="Grupo 1221196" transform="translate(41.735 23.636)">
        <path id="Trazado_1170179" data-name="Trazado 1170179" d="M0,0H3.842V8.962H0Z" transform="translate(0 2.716) rotate(-45)" fill="#bf8859"/>
      </g>
      <g id="Grupo_1221197" data-name="Grupo 1221197" transform="translate(1 1)">
        <path id="Trazado_1170180" data-name="Trazado 1170180" d="M45.364,57.133H12.77a4.532,4.532,0,0,1-4.527-4.527V13.675H1.905A.905.905,0,0,1,1,12.77V5.527a4.527,4.527,0,1,1,9.054,0v47.08a2.716,2.716,0,1,0,5.432,0V50.8a.905.905,0,0,1,.905-.905H48.985a.905.905,0,0,1,.905.905v1.811A4.532,4.532,0,0,1,45.364,57.133ZM16.39,55.323H45.364a2.719,2.719,0,0,0,2.716-2.716V51.7H17.3v.905A4.5,4.5,0,0,1,16.39,55.323ZM2.811,11.865H8.243V5.527a2.716,2.716,0,1,0-5.432,0Z" transform="translate(-1 -1)"/>
      </g>
      <g id="Grupo_1221198" data-name="Grupo 1221198" transform="translate(44.458 38.573)">
        <path id="Trazado_1170181" data-name="Trazado 1170181" d="M49,42.5h1.811V54.723H49Z" transform="translate(-49 -42.5)"/>
      </g>
      <g id="Grupo_1221199" data-name="Grupo 1221199" transform="translate(5.527 1)">
        <path id="Trazado_1170182" data-name="Trazado 1170182" d="M46.742,24.54H44.931V7.338A4.532,4.532,0,0,0,40.4,2.811H6V1H40.4a6.345,6.345,0,0,1,6.338,6.338Z" transform="translate(-6 -1)"/>
      </g>
      <g id="Grupo_1221200" data-name="Grupo 1221200" transform="translate(31.783 31.783)">
        <path id="Trazado_1170183" data-name="Trazado 1170183" d="M42.243,45.865a.9.9,0,0,1-.64-.265l-6.338-6.338a.9.9,0,0,1,0-1.28l2.716-2.716a.9.9,0,0,1,1.28,0L45.6,41.6a.9.9,0,0,1,0,1.28L42.883,45.6A.9.9,0,0,1,42.243,45.865Zm-5.057-7.243,5.057,5.057,1.436-1.436-5.057-5.057Z" transform="translate(-35 -35)"/>
      </g>
      <g id="Grupo_1221201" data-name="Grupo 1221201" transform="translate(40.836 22.729)">
        <path id="Trazado_1170184" data-name="Trazado 1170184" d="M52.243,35.865a.9.9,0,0,1-.64-.265l-6.338-6.338a.9.9,0,0,1,0-1.28l2.716-2.716a.9.9,0,0,1,1.28,0L55.6,31.6a.9.9,0,0,1,0,1.28L52.883,35.6A.9.9,0,0,1,52.243,35.865Zm-5.057-7.243,5.057,5.057,1.436-1.436-5.057-5.057Z" transform="translate(-45 -25)"/>
      </g>
      <g id="Grupo_1221202" data-name="Grupo 1221202" transform="translate(35.663 26.618)">
        <path id="Trazado_1170185" data-name="Trazado 1170185" d="M0,0H8.962V1.811H0Z" transform="translate(0 6.336) rotate(-45)"/>
      </g>
      <g id="Grupo_1221203" data-name="Grupo 1221203" transform="translate(40.189 31.145)">
        <path id="Trazado_1170186" data-name="Trazado 1170186" d="M0,0H8.962V1.811H0Z" transform="translate(0 6.336) rotate(-45)"/>
      </g>
      <g id="Grupo_1221204" data-name="Grupo 1221204" transform="translate(42.007 32.954)">
        <path id="Trazado_1170187" data-name="Trazado 1170187" d="M58.25,51.419a.9.9,0,0,1-.64-.265L46.293,39.837l1.28-1.28L58.25,49.234l.983-.983L48.556,37.573l1.28-1.28L61.154,47.61a.9.9,0,0,1,0,1.28L58.89,51.154A.9.9,0,0,1,58.25,51.419Z" transform="translate(-46.293 -36.293)"/>
      </g>
      <g id="Grupo_1221205" data-name="Grupo 1221205" transform="translate(12.77 17.297)">
        <path id="Trazado_1170188" data-name="Trazado 1170188" d="M14,19H43.877v1.811H14Z" transform="translate(-14 -19)"/>
      </g>
      <g id="Grupo_1221206" data-name="Grupo 1221206" transform="translate(12.77 24.54)">
        <path id="Trazado_1170189" data-name="Trazado 1170189" d="M14,27H40.256v1.811H14Z" transform="translate(-14 -27)"/>
      </g>
      <g id="Grupo_1221207" data-name="Grupo 1221207" transform="translate(12.77 20.918)">
        <path id="Trazado_1170190" data-name="Trazado 1170190" d="M14,23H43.877v1.811H14Z" transform="translate(-14 -23)"/>
      </g>
      <g id="Grupo_1221208" data-name="Grupo 1221208" transform="translate(12.77 10.054)">
        <path id="Trazado_1170191" data-name="Trazado 1170191" d="M14,11H43.877v1.811H14Z" transform="translate(-14 -11)"/>
      </g>
      <g id="Grupo_1221209" data-name="Grupo 1221209" transform="translate(12.77 6.432)">
        <path id="Trazado_1170192" data-name="Trazado 1170192" d="M14,7H43.877V8.811H14Z" transform="translate(-14 -7)"/>
      </g>
      <g id="Grupo_1221210" data-name="Grupo 1221210" transform="translate(12.77 13.675)">
        <path id="Trazado_1170193" data-name="Trazado 1170193" d="M14,15H43.877v1.811H14Z" transform="translate(-14 -15)"/>
      </g>
      <g id="Grupo_1221211" data-name="Grupo 1221211" transform="translate(12.77 28.161)">
        <path id="Trazado_1170194" data-name="Trazado 1170194" d="M14,31H38.445v1.811H14Z" transform="translate(-14 -31)"/>
      </g>
      <g id="Grupo_1221212" data-name="Grupo 1221212" transform="translate(11.865 31.783)">
        <path id="Trazado_1170195" data-name="Trazado 1170195" d="M21.148,51.3A8.148,8.148,0,1,1,29.3,43.148,8.158,8.158,0,0,1,21.148,51.3Zm0-14.486a6.338,6.338,0,1,0,6.338,6.338A6.345,6.345,0,0,0,21.148,36.811Z" transform="translate(-13 -35)"/>
      </g>
      <g id="Grupo_1221213" data-name="Grupo 1221213" transform="translate(15.486 35.404)">
        <path id="Trazado_1170196" data-name="Trazado 1170196" d="M21.527,48.054a4.527,4.527,0,1,1,4.527-4.527A4.532,4.532,0,0,1,21.527,48.054Zm0-7.243a2.716,2.716,0,1,0,2.716,2.716A2.719,2.719,0,0,0,21.527,40.811Z" transform="translate(-17 -39)"/>
      </g>
      <g id="Grupo_1221214" data-name="Grupo 1221214" transform="translate(29.972 43.552)">
        <path id="Trazado_1170197" data-name="Trazado 1170197" d="M43.865,52.527H40.243a3.623,3.623,0,0,1-3.067-1.7A5.97,5.97,0,0,1,33,52.527V50.716a4.162,4.162,0,0,0,3.469-1.857l.3-.456a.905.905,0,0,1,1.659.5,1.813,1.813,0,0,0,1.811,1.811h3.622Z" transform="translate(-33 -47.999)"/>
      </g>
    </g>
  </g>
</svg>
