<svg xmlns="http://www.w3.org/2000/svg" xmlns:xlink="http://www.w3.org/1999/xlink" width="103" height="103" viewBox="0 0 103 103">
  <defs>
    <filter id="Trazado_904820" x="0" y="0" width="103" height="103" filterUnits="userSpaceOnUse">
      <feOffset dy="3" input="SourceAlpha"/>
      <feGaussianBlur stdDeviation="3" result="blur"/>
      <feFlood flood-opacity="0.161"/>
      <feComposite operator="in" in2="blur"/>
      <feComposite in="SourceGraphic"/>
    </filter>
  </defs>
  <g id="Grupo_1221418" data-name="Grupo 1221418" transform="translate(-171 -4668)">
    <g id="Grupo_1220650" data-name="Grupo 1220650" transform="translate(5 -5673)">
      <g id="Grupo_1219296" data-name="Grupo 1219296" transform="translate(175 10347)">
        <g id="Grupo_1218002" data-name="Grupo 1218002" transform="translate(0 0)">
          <g id="Grupo_1211578" data-name="Grupo 1211578">
            <g id="Grupo_1207774" data-name="Grupo 1207774" transform="translate(0)">
              <g id="Grupo_1206630" data-name="Grupo 1206630" transform="translate(0)">
                <g id="Grupo_1185091" data-name="Grupo 1185091">
                  <g id="Grupo_1179560" data-name="Grupo 1179560">
                    <g id="Grupo_1173787" data-name="Grupo 1173787">
                      <g id="Grupo_1171910" data-name="Grupo 1171910">
                        <g id="Grupo_1167341" data-name="Grupo 1167341">
                          <g id="Grupo_1166792" data-name="Grupo 1166792">
                            <g transform="matrix(1, 0, 0, 1, -9, -6)" filter="url(#Trazado_904820)">
                              <g id="Trazado_904820-2" data-name="Trazado 904820" transform="translate(9 6)" fill="#e5f0f6">
                                <path d="M 42.49999618530273 83.50018310546875 C 36.96437454223633 83.50018310546875 31.59512519836426 82.41635894775391 26.54140853881836 80.27880859375 C 21.65933799743652 78.2138671875 17.27447891235352 75.25739288330078 13.50861930847168 71.49153137207031 C 9.742773056030273 67.72567749023438 6.786314010620117 63.34079360961914 4.721360683441162 58.45870971679688 C 2.583819627761841 53.40498352050781 1.499996185302734 48.03572463989258 1.499996185302734 42.50008773803711 C 1.499996185302734 36.96445083618164 2.583819627761841 31.59519386291504 4.721360683441162 26.54146385192871 C 6.786314010620117 21.65938186645508 9.742773056030273 17.27451133728027 13.50861930847168 13.50865268707275 C 17.27447891235352 9.742794036865234 21.65933799743652 6.786323070526123 26.54140853881836 4.721381664276123 C 31.59512519836426 2.583828926086426 36.96437454223633 1.50000536441803 42.49999618530273 1.50000536441803 C 48.03561782836914 1.50000536441803 53.40486526489258 2.583828926086426 58.45858383178711 4.721381664276123 C 63.34065628051758 6.786323070526123 67.72551727294922 9.742794036865234 71.49137115478516 13.50865268707275 C 75.25721740722656 17.27451133728027 78.21367645263672 21.65938186645508 80.27863311767578 26.54146385192871 C 82.41617584228516 31.59519386291504 83.5 36.96445083618164 83.5 42.50008773803711 C 83.5 48.03572463989258 82.41617584228516 53.40498352050781 80.27863311767578 58.45870971679688 C 78.21367645263672 63.34079360961914 75.25721740722656 67.72567749023438 71.49137115478516 71.49153137207031 C 67.72551727294922 75.25739288330078 63.34065628051758 78.2138671875 58.45858383178711 80.27880859375 C 53.40486526489258 82.41635894775391 48.03561782836914 83.50018310546875 42.49999618530273 83.50018310546875 Z" stroke="none"/>
                                <path d="M 42.49999618530273 2.999992370605469 C 37.16621017456055 2.999992370605469 31.99356842041016 4.043952941894531 27.1257438659668 6.102874755859375 C 22.42246246337891 8.092193603515625 18.19786071777344 10.94071197509766 14.56929016113281 14.56929779052734 C 10.94070434570312 18.19789123535156 8.092193603515625 22.42250061035156 6.102874755859375 27.12579345703125 C 4.043952941894531 31.99362182617188 2.999992370605469 37.16628646850586 2.999992370605469 42.50008773803711 C 2.999992370605469 47.83388900756836 4.043952941894531 53.00653839111328 6.102874755859375 57.87438201904297 C 8.092193603515625 62.57765960693359 10.94070434570312 66.80227661132812 14.56929016113281 70.43086242675781 C 18.19786071777344 74.0594482421875 22.42246246337891 76.90796661376953 27.1257438659668 78.89728546142578 C 31.99356842041016 80.95620727539062 37.16621017456055 82.00016784667969 42.49999618530273 82.00016784667969 C 47.83378219604492 82.00016784667969 53.00642395019531 80.95620727539062 57.87425231933594 78.89728546142578 C 62.57752990722656 76.90796661376953 66.80213165283203 74.0594482421875 70.43070220947266 70.43086242675781 C 74.05928802490234 66.80227661132812 76.90779876708984 62.57765960693359 78.89711761474609 57.87438201904297 C 80.95603942871094 53.00653839111328 82 47.83388900756836 82 42.50008773803711 C 82 37.16628646850586 80.95603942871094 31.99362182617188 78.89711761474609 27.12579345703125 C 76.90779876708984 22.42250061035156 74.05928802490234 18.19789123535156 70.43070220947266 14.56929779052734 C 66.80213165283203 10.94071197509766 62.57752990722656 8.092193603515625 57.87425231933594 6.102874755859375 C 53.00642395019531 4.043952941894531 47.83378219604492 2.999992370605469 42.49999618530273 2.999992370605469 M 42.49999618530273 -7.62939453125e-06 C 65.97209167480469 -7.62939453125e-06 85 19.02793884277344 85 42.50008773803711 C 85 65.97223663330078 65.97209167480469 85.00016784667969 42.49999618530273 85.00016784667969 C 19.02790069580078 85.00016784667969 -7.62939453125e-06 65.97223663330078 -7.62939453125e-06 42.50008773803711 C -7.62939453125e-06 19.02793884277344 19.02790069580078 -7.62939453125e-06 42.49999618530273 -7.62939453125e-06 Z" stroke="none" fill="#1172b3"/>
                              </g>
                            </g>
                          </g>
                        </g>
                      </g>
                    </g>
                  </g>
                </g>
              </g>
            </g>
          </g>
        </g>
      </g>
    </g>
    <g id="equilibrar" transform="translate(193.163 4687.149)">
      <path id="Trazado_1170650" data-name="Trazado 1170650" d="M184.652,12.905h-.978V9.971a1.956,1.956,0,0,0-3.912,0,1.956,1.956,0,0,0-3.912,0,1.956,1.956,0,1,0-3.912,0,1.956,1.956,0,0,0-3.912,0V21.707a3.912,3.912,0,0,0,3.912,3.912H182.7c2.158,0,3.912-2.73,3.912-4.89V14.861A1.956,1.956,0,0,0,184.652,12.905Zm0,0" transform="translate(-147.49 -7.025)" fill="#f7bb8f"/>
      <path id="Trazado_1170651" data-name="Trazado 1170651" d="M184.027,223.486v-23.47h13.691v23.47" transform="translate(-161.534 -175.555)" fill="#4398d1"/>
      <path id="Trazado_1170652" data-name="Trazado 1170652" d="M184.027,269.707v2.934h13.691V256.016Zm0,0" transform="translate(-161.534 -224.709)" fill="#2a90c9"/>
      <path id="Trazado_1170653" data-name="Trazado 1170653" d="M184.027,152.016h13.691v5.868H184.027Zm0,0" transform="translate(-161.534 -133.423)" fill="#eaeef0"/>
      <path id="Trazado_1170654" data-name="Trazado 1170654" d="M256.027,224.016h1.956v1.956h-1.956Zm0,0" transform="translate(-224.733 -196.621)" fill="#2d7db3"/>
      <path id="Trazado_1170655" data-name="Trazado 1170655" d="M133.895,424.016h15.647a5.868,5.868,0,0,1,5.868,5.868H128.027A5.867,5.867,0,0,1,133.895,424.016Zm0,0" transform="translate(-112.379 -372.173)" fill="#ffc24f"/>
      <path id="Trazado_1170656" data-name="Trazado 1170656" d="M168.027,392.016h17.6v3.912h-17.6Zm0,0" transform="translate(-147.49 -344.085)" fill="#ffb026"/>
      <path id="Trazado_1170657" data-name="Trazado 1170657" d="M8.027,280.016h17.6a5.868,5.868,0,0,1-5.868,5.868H13.895a5.868,5.868,0,0,1-5.868-5.868Zm0,0" transform="translate(-7.048 -245.776)" fill="#ffc24f"/>
      <path id="Trazado_1170658" data-name="Trazado 1170658" d="M77.895,280.016a5.868,5.868,0,0,1-5.868,5.868h3.912a5.868,5.868,0,0,0,5.868-5.868Zm0,0" transform="translate(-63.225 -245.776)" fill="#ffb026"/>
      <path id="Trazado_1170659" data-name="Trazado 1170659" d="M339.762,285.884h-5.868a5.868,5.868,0,0,1-5.868-5.868h17.6A5.868,5.868,0,0,1,339.762,285.884Zm0,0" transform="translate(-287.931 -245.776)" fill="#ffc24f"/>
      <path id="Trazado_1170660" data-name="Trazado 1170660" d="M397.895,280.016a5.868,5.868,0,0,1-5.868,5.868h3.912a5.868,5.868,0,0,0,5.868-5.868Zm0,0" transform="translate(-344.108 -245.776)" fill="#ffb026"/>
      <path id="Trazado_1170661" data-name="Trazado 1170661" d="M85.788,59.733a18.7,18.7,0,0,1-3.672-.364l-2.9-.58c-.207-.041-.418-.079-.63-.114l-18.454-.124c-.524.055-1.053.134-1.575.238l-2.895.58a18.65,18.65,0,0,1-10.608-.978l.725-1.817a16.7,16.7,0,0,0,9.5.873l2.9-.58c.6-.12,1.21-.211,1.815-.271a.75.75,0,0,1,.1,0l18.581.125a1.064,1.064,0,0,1,.146.012c.261.041.52.087.782.138l2.9.581a16.7,16.7,0,0,0,9.5-.873l.725,1.817a18.652,18.652,0,0,1-6.939,1.337Zm0,0" transform="translate(-39.553 -49.648)" fill="#2d7db3"/>
      <path id="Trazado_1170662" data-name="Trazado 1170662" d="M18.581,84.348a.978.978,0,0,1-.927-.669L9.78,60.058,1.906,83.679a.979.979,0,0,1-1.858-.618l8.8-26.4a.978.978,0,0,1,1.858,0l8.8,26.4a.978.978,0,0,1-.927,1.287Zm0,0" transform="translate(0 -49.13)" fill="#4398d1"/>
      <path id="Trazado_1170663" data-name="Trazado 1170663" d="M338.581,84.348a.978.978,0,0,1-.927-.669L329.78,60.058l-7.874,23.621a.979.979,0,0,1-1.858-.618l8.8-26.4a.978.978,0,0,1,1.858,0l8.8,26.4a.978.978,0,0,1-.927,1.287Zm0,0" transform="translate(-280.883 -49.13)" fill="#4398d1"/>
      <g id="Grupo_1221417" data-name="Grupo 1221417" transform="translate(20.537 0.991)">
        <path id="Trazado_1170664" data-name="Trazado 1170664" d="M233.983,8.016a1.956,1.956,0,0,1,1.956,1.956v3.912a1.956,1.956,0,0,1-3.912,0V9.971A1.956,1.956,0,0,1,233.983,8.016Zm0,0" transform="translate(-224.204 -8.016)" fill="#f7bb8f"/>
        <path id="Trazado_1170665" data-name="Trazado 1170665" d="M265.983,8.016a1.956,1.956,0,0,1,1.956,1.956v3.912a1.956,1.956,0,0,1-3.912,0V9.971A1.956,1.956,0,0,1,265.983,8.016Zm0,0" transform="translate(-252.292 -8.016)" fill="#f7bb8f"/>
        <path id="Trazado_1170666" data-name="Trazado 1170666" d="M169.983,8.016a1.956,1.956,0,0,1,1.956,1.956v3.912a1.956,1.956,0,0,1-3.912,0V9.971A1.956,1.956,0,0,1,169.983,8.016Zm0,0" transform="translate(-168.027 -8.016)" fill="#f7bb8f"/>
        <path id="Trazado_1170667" data-name="Trazado 1170667" d="M201.983,8.016a1.956,1.956,0,0,1,1.956,1.956v3.912a1.956,1.956,0,0,1-3.912,0V9.971A1.956,1.956,0,0,1,201.983,8.016Zm0,0" transform="translate(-196.115 -8.016)" fill="#f7bb8f"/>
      </g>
      <path id="Trazado_1170668" data-name="Trazado 1170668" d="M247.85,48.016h-7.823v.978a2.934,2.934,0,0,0,2.934,2.934h1.956a7.071,7.071,0,0,0-1.956,4.89v3.912h2.934c2.158,0,3.912-2.73,3.912-4.89V49.971A1.956,1.956,0,0,0,247.85,48.016Zm0,0" transform="translate(-210.688 -42.135)" fill="#ffcfad"/>
      <path id="Trazado_1170669" data-name="Trazado 1170669" d="M184.027,152.016h13.691v2.934H184.027Zm0,0" transform="translate(-161.534 -133.423)" fill="#e3e3e3"/>
      <path id="Trazado_1170670" data-name="Trazado 1170670" d="M58.651,33.931,50.535,9.566A18.738,18.738,0,0,0,53.2,8.745l-.726-1.817a16.738,16.738,0,0,1-2.559.783l-.063-.188a.978.978,0,0,0-1.858,0l-.176.525A16.721,16.721,0,0,1,42.974,7.8l-2.9-.576h-.022A2.934,2.934,0,0,0,37.188,4.9V2.947A2.921,2.921,0,0,0,32.3.776a2.889,2.889,0,0,0-3.912,0,2.889,2.889,0,0,0-3.912,0,2.921,2.921,0,0,0-4.89,2.171V7.081c-.312.047-.625.078-.934.14l-2.9.58a16.732,16.732,0,0,1-4.848.251l-.175-.525a.978.978,0,0,0-1.858,0l-.063.188a16.684,16.684,0,0,1-2.559-.783L5.528,8.75A18.773,18.773,0,0,0,8.2,9.571L.079,33.936H.09a.962.962,0,0,0-.063.3,6.854,6.854,0,0,0,6.845,6.845H12.74a6.855,6.855,0,0,0,6.845-6.845.971.971,0,0,0-.062-.306h.011L11.571,10.039c.294.015.6.043.9.043a18.7,18.7,0,0,0,3.672-.364l2.895-.58c.182-.036.367-.052.551-.082v5.625a4.866,4.866,0,0,0,1.956,3.889V46.953h-.978a.978.978,0,0,0-.978.978v3.227A6.855,6.855,0,0,0,14.7,57.71a.978.978,0,0,0,.978.978H43.056a.978.978,0,0,0,.978-.978,6.856,6.856,0,0,0-4.89-6.552V47.931a.978.978,0,0,0-.978-.978h-.978V19.018A6.485,6.485,0,0,0,40.122,13.7V9.225l2.467.494a18.7,18.7,0,0,0,3.672.364c.3,0,.6-.028.9-.043L39.195,33.931h.011a.961.961,0,0,0-.062.309,6.854,6.854,0,0,0,6.845,6.845h5.868A6.855,6.855,0,0,0,58.7,34.24a.971.971,0,0,0-.062-.306ZM12.74,39.13H6.872A4.9,4.9,0,0,1,2.08,35.218H17.532A4.9,4.9,0,0,1,12.74,39.13Zm4.511-5.868H2.361L9.806,10.928ZM33.276,2.947a.978.978,0,1,1,1.956,0V4.9H33.276Zm-3.912,0a.978.978,0,1,1,1.956,0V4.9H29.365Zm-3.912,0a.978.978,0,1,1,1.956,0V6.858a.978.978,0,1,1-1.956,0Zm-3.912,0a.978.978,0,1,1,1.956,0V6.858a.978.978,0,1,1-1.956,0Zm0,45.962H37.188v1.956H21.541Zm13.691-23.47V46.953H23.5V25.439ZM23.5,23.483V19.571H35.232v3.912ZM41.98,56.732H16.749a4.9,4.9,0,0,1,4.792-3.912H37.188a4.9,4.9,0,0,1,4.792,3.912ZM38.166,12.726V13.7c0,1.708-1.421,3.912-2.934,3.912H24.475a2.934,2.934,0,0,1-2.934-2.934V9.612a2.844,2.844,0,0,0,2.934-.587A2.9,2.9,0,0,0,28.8,8.57a3.9,3.9,0,0,0,3.5,2.2h.023a8.232,8.232,0,0,0-1,3.912h1.956a6.116,6.116,0,0,1,1.669-4.2.978.978,0,0,0-.691-1.669H32.3a1.956,1.956,0,0,1-1.956-1.956h6.845a.978.978,0,0,1,.978.978Zm10.757-1.8,7.445,22.334H41.478Zm2.934,28.2H45.989A4.9,4.9,0,0,1,41.2,35.218H56.649a4.9,4.9,0,0,1-4.792,3.912Zm0,0" transform="translate(-0.026)"/>
      <path id="Trazado_1170671" data-name="Trazado 1170671" d="M256.027,224.016h1.956v1.956h-1.956Zm0,0" transform="translate(-224.733 -196.621)"/>
    </g>
  </g>
</svg>
