<svg xmlns="http://www.w3.org/2000/svg" xmlns:xlink="http://www.w3.org/1999/xlink" width="108" height="108" viewBox="0 0 108 108">
  <defs>
    <filter id="Trazado_904820" x="0" y="0" width="108" height="108" filterUnits="userSpaceOnUse">
      <feOffset dy="3" input="SourceAlpha"/>
      <feGaussianBlur stdDeviation="3" result="blur"/>
      <feFlood flood-opacity="0.161"/>
      <feComposite operator="in" in2="blur"/>
      <feComposite in="SourceGraphic"/>
    </filter>
  </defs>
  <g id="Grupo_1221151" data-name="Grupo 1221151" transform="translate(-619.827 -317)">
    <g id="Grupo_1220471" data-name="Grupo 1220471" transform="translate(628.827 323)">
      <g id="Grupo_1219977" data-name="Grupo 1219977" transform="translate(0 0)">
        <g id="Grupo_1219603" data-name="Grupo 1219603">
          <g id="Grupo_1202655" data-name="Grupo 1202655" transform="translate(0)">
            <g id="Grupo_1173585" data-name="Grupo 1173585">
              <g id="Grupo_1173428" data-name="Grupo 1173428">
                <g id="Grupo_1171958" data-name="Grupo 1171958">
                  <g id="Grupo_1167341" data-name="Grupo 1167341">
                    <g id="Grupo_1166792" data-name="Grupo 1166792">
                      <g transform="matrix(1, 0, 0, 1, -9, -6)" filter="url(#Trazado_904820)">
                        <g id="Trazado_904820-2" data-name="Trazado 904820" transform="translate(9 6)" fill="#fdfaeb">
                          <path d="M 44.99999618530273 88.49999237060547 C 39.12687301635742 88.49999237060547 33.43022155761719 87.35006713867188 28.06829643249512 85.08216857910156 C 22.88852119445801 82.89130401611328 18.23629570007324 79.75457763671875 14.24084663391113 75.75914001464844 C 10.24540901184082 71.76369476318359 7.108683586120605 67.11146545410156 4.917821407318115 61.93169403076172 C 2.649921178817749 56.56976699829102 1.499996185302734 50.87311553955078 1.499996185302734 44.99999237060547 C 1.499996185302734 39.12686920166016 2.649921178817749 33.43021774291992 4.917821407318115 28.06829261779785 C 7.108683586120605 22.88851737976074 10.24540901184082 18.23630523681641 14.24084663391113 14.24085521697998 C 18.23629570007324 10.24540519714355 22.88852119445801 7.108692169189453 28.06829643249512 4.917829990386963 C 33.43022155761719 2.649929761886597 39.12687301635742 1.500004887580872 44.99999618530273 1.500004887580872 C 50.87311935424805 1.500004887580872 56.56977081298828 2.649929761886597 61.93169784545898 4.917829990386963 C 67.11147308349609 7.108692169189453 71.76369476318359 10.24540519714355 75.75914764404297 14.24085521697998 C 79.75458526611328 18.23630523681641 82.89131164550781 22.88851737976074 85.08216857910156 28.06829261779785 C 87.35007476806641 33.43021774291992 88.5 39.12686920166016 88.5 44.99999237060547 C 88.5 50.87311553955078 87.35007476806641 56.56976699829102 85.08216857910156 61.93169403076172 C 82.89131164550781 67.11146545410156 79.75458526611328 71.76369476318359 75.75914764404297 75.75914001464844 C 71.76369476318359 79.75457763671875 67.11147308349609 82.89130401611328 61.93169784545898 85.08216857910156 C 56.56977081298828 87.35006713867188 50.87311935424805 88.49999237060547 44.99999618530273 88.49999237060547 Z" stroke="none"/>
                          <path d="M 44.99999618530273 2.999992370605469 C 39.32870864868164 2.999992370605469 33.82865142822266 4.11004638671875 28.65262603759766 6.299331665039062 C 23.65165710449219 8.414566040039062 19.15968322753906 11.44333648681641 15.301513671875 15.30150604248047 C 11.44333648681641 19.15967559814453 8.414566040039062 23.65164947509766 6.299339294433594 28.65262222290039 C 4.110054016113281 33.82864761352539 2.999992370605469 39.32870483398438 2.999992370605469 44.99999237060547 C 2.999992370605469 50.67127990722656 4.110054016113281 56.17132186889648 6.299339294433594 61.34736633300781 C 8.414566040039062 66.34833526611328 11.44333648681641 70.84029388427734 15.301513671875 74.69846343994141 C 19.15968322753906 78.55663299560547 23.65165710449219 81.58540344238281 28.65262603759766 83.70063781738281 C 33.82865142822266 85.88992309570312 39.32870864868164 86.99997711181641 44.99999618530273 86.99997711181641 C 50.67128372192383 86.99997711181641 56.17134094238281 85.88992309570312 61.34736633300781 83.70063781738281 C 66.34834289550781 81.58540344238281 70.84030914306641 78.55663299560547 74.69847869873047 74.69846343994141 C 78.55665588378906 70.84029388427734 81.58542633056641 66.34833526611328 83.70065307617188 61.34736633300781 C 85.88993835449219 56.17132186889648 87 50.67127990722656 87 44.99999237060547 C 87 39.32870483398438 85.88993835449219 33.82864761352539 83.70065307617188 28.65262222290039 C 81.58542633056641 23.65164947509766 78.55665588378906 19.15967559814453 74.69847869873047 15.30150604248047 C 70.84030914306641 11.44333648681641 66.34834289550781 8.414566040039062 61.34736633300781 6.299331665039062 C 56.17134094238281 4.11004638671875 50.67128372192383 2.999992370605469 44.99999618530273 2.999992370605469 M 44.99999618530273 -7.62939453125e-06 C 69.85281372070312 -7.62939453125e-06 90 20.14717864990234 90 44.99999237060547 C 90 69.85279083251953 69.85281372070312 89.99997711181641 44.99999618530273 89.99997711181641 C 20.14717864990234 89.99997711181641 -7.62939453125e-06 69.85279083251953 -7.62939453125e-06 44.99999237060547 C -7.62939453125e-06 20.14717864990234 20.14717864990234 -7.62939453125e-06 44.99999618530273 -7.62939453125e-06 Z" stroke="none" fill="#847625"/>
                        </g>
                      </g>
                    </g>
                  </g>
                </g>
              </g>
            </g>
          </g>
        </g>
      </g>
    </g>
    <g id="ley" transform="translate(642.144 323.982)">
      <g id="Grupo_1221142" data-name="Grupo 1221142" transform="translate(13.259 49.282)">
        <g id="Grupo_1221137" data-name="Grupo 1221137" transform="translate(0 3.251)">
          <path id="Trazado_1170040" data-name="Trazado 1170040" d="M148.944,357.4a10.348,10.348,0,0,0,2.484,6.815H113.981a1.185,1.185,0,0,1-.967-.495,12.063,12.063,0,0,1,0-12.64,1.185,1.185,0,0,1,.967-.495h37.447A10.349,10.349,0,0,0,148.944,357.4Z" transform="translate(-111.226 -350.585)" fill="#fb3a82"/>
          <path id="Trazado_1170041" data-name="Trazado 1170041" d="M122.654,350.587l-10.56,11.438a11.966,11.966,0,0,1-.864-4.623,10.815,10.815,0,0,1,1.788-6.321,1.183,1.183,0,0,1,.967-.495Z" transform="translate(-111.23 -350.587)" fill="#fb1466"/>
          <path id="Trazado_1170042" data-name="Trazado 1170042" d="M183.509,357.4a10.348,10.348,0,0,0,2.484,6.815H147.976s-2.185-2.213-2.185-6.815,2.185-6.815,2.185-6.815h38.017A10.349,10.349,0,0,0,183.509,357.4Z" transform="translate(-141.67 -350.585)" fill="#e0d3ce"/>
          <g id="Grupo_1221136" data-name="Grupo 1221136" transform="translate(4.12 0)">
            <path id="Trazado_1170043" data-name="Trazado 1170043" d="M153.094,350.587l-7.265,7.869c-.025-.336-.039-.688-.039-1.054,0-4.6,2.185-6.815,2.185-6.815Z" transform="translate(-145.79 -350.587)" fill="#cdbfbb"/>
            <path id="Trazado_1170044" data-name="Trazado 1170044" d="M428.9,357.407a10.347,10.347,0,0,0,2.484,6.815h-4.5a10.588,10.588,0,0,1,0-13.629h4.5A10.344,10.344,0,0,0,428.9,357.407Z" transform="translate(-391.186 -350.591)" fill="#cdbfbb"/>
          </g>
        </g>
        <g id="Grupo_1221141" data-name="Grupo 1221141" transform="translate(5.13)">
          <g id="Grupo_1221139" data-name="Grupo 1221139" transform="translate(0)">
            <path id="Trazado_1170045" data-name="Trazado 1170045" d="M196.011,325.3a1.978,1.978,0,0,1-1.978,1.978h-37.8a1.978,1.978,0,0,1,0-3.957h37.8A1.978,1.978,0,0,1,196.011,325.3Z" transform="translate(-154.26 -323.317)" fill="#fb3a82"/>
            <g id="Grupo_1221138" data-name="Grupo 1221138">
              <path id="Trazado_1170046" data-name="Trazado 1170046" d="M163.555,323.317l-3.651,3.957h-3.666a1.978,1.978,0,0,1,0-3.957Z" transform="translate(-154.26 -323.317)" fill="#fb1466"/>
              <path id="Trazado_1170047" data-name="Trazado 1170047" d="M461.529,325.3a1.98,1.98,0,0,1-1.979,1.979h-3.837a1.978,1.978,0,0,0,0-3.957h3.837A1.979,1.979,0,0,1,461.529,325.3Z" transform="translate(-419.776 -323.32)" fill="#fb1466"/>
            </g>
          </g>
          <g id="Grupo_1221140" data-name="Grupo 1221140" transform="translate(0 16.174)">
            <path id="Trazado_1170048" data-name="Trazado 1170048" d="M194.031,462.952h-37.8a1.978,1.978,0,0,1,0-3.956h37.8a1.978,1.978,0,1,1,0,3.956Z" transform="translate(-154.257 -458.996)" fill="#fb3a82"/>
            <path id="Trazado_1170049" data-name="Trazado 1170049" d="M461.529,460.978a1.977,1.977,0,0,1-1.979,1.978h-3.837a1.978,1.978,0,1,0,0-3.955h3.837A1.979,1.979,0,0,1,461.529,460.978Z" transform="translate(-419.776 -458.999)" fill="#fb1466"/>
          </g>
        </g>
      </g>
      <g id="Grupo_1221150" data-name="Grupo 1221150" transform="translate(-0.001 12.193)">
        <g id="Grupo_1221145" data-name="Grupo 1221145" transform="translate(0.894 23.626)">
          <g id="Grupo_1221143" data-name="Grupo 1221143" transform="translate(0 7.567)">
            <path id="Trazado_1170050" data-name="Trazado 1170050" d="M33.541,277.051l-3.194-3.194L8.608,293.926a3.442,3.442,0,1,0,4.865,4.865Z" transform="translate(-7.5 -273.857)" fill="#873f30"/>
            <path id="Trazado_1170051" data-name="Trazado 1170051" d="M14.625,306.148a3.444,3.444,0,0,1-4.867,0,3.409,3.409,0,0,1-.84-1.372,3.437,3.437,0,0,0,3.493-.836c.033-.033.066-.068.1-.1L32.579,282.1l2.211,2.211-20.069,21.74C14.689,306.082,14.657,306.116,14.625,306.148Z" transform="translate(-8.749 -281.114)" fill="#6c3328"/>
          </g>
          <path id="Trazado_1170052" data-name="Trazado 1170052" d="M197.99,210.382l-7.354,8.772,3,3,8.772-7.354Z" transform="translate(-168.804 -210.382)" fill="#873f30"/>
          <path id="Trazado_1170053" data-name="Trazado 1170053" d="M206.732,210.382l-2.376,2.834.713.713a1.344,1.344,0,0,1,0,1.9l-4.507,4.507,1.821,1.821,8.772-7.354Z" transform="translate(-177.547 -210.382)" fill="#6c3328"/>
          <g id="Grupo_1221144" data-name="Grupo 1221144" transform="translate(19.398 6.976)">
            <path id="Trazado_1170054" data-name="Trazado 1170054" d="M173.77,275.5l-2.916-2.916a2.159,2.159,0,1,1,3.053-3.053l2.916,2.916a2.159,2.159,0,1,1-3.053,3.053Z" transform="translate(-170.222 -268.899)" fill="#ba5d4f"/>
            <path id="Trazado_1170055" data-name="Trazado 1170055" d="M186.7,285.386a2.159,2.159,0,0,1-3.053,0l-2.21-2.21a2.159,2.159,0,0,0,3.053-3.053l2.21,2.21A2.158,2.158,0,0,1,186.7,285.386Z" transform="translate(-180.104 -278.785)" fill="#a34f41"/>
          </g>
        </g>
        <g id="Grupo_1221146" data-name="Grupo 1221146" transform="translate(23.725 3.577)">
          <path id="Trazado_1170056" data-name="Trazado 1170056" d="M0,0H9.158V14.378H0Z" transform="translate(10.165 0) rotate(45)" fill="#ba5d4f"/>
          <path id="Trazado_1170057" data-name="Trazado 1170057" d="M0,0H9.158V14.378H0Z" transform="translate(20.658 30.832) rotate(-135)" fill="#a34f41"/>
        </g>
        <g id="Grupo_1221149" data-name="Grupo 1221149" transform="translate(0 0)">
          <path id="Trazado_1170058" data-name="Trazado 1170058" d="M177.344,34.774l-.225-.225a2.184,2.184,0,0,1,0-3.089l11.127-11.127a2.184,2.184,0,0,1,3.089,0l.225.225a2.184,2.184,0,0,1,0,3.089L180.433,34.774A2.184,2.184,0,0,1,177.344,34.774Z" transform="translate(-155.441 -18.8)" fill="#873f30"/>
          <path id="Trazado_1170059" data-name="Trazado 1170059" d="M348.883,206.312l.225.225a2.184,2.184,0,0,0,3.089,0l11.127-11.127a2.184,2.184,0,0,0,0-3.089l-.225-.225a2.184,2.184,0,0,0-3.089,0l-11.127,11.127A2.184,2.184,0,0,0,348.883,206.312Z" transform="translate(-306.729 -170.087)" fill="#6c3328"/>
          <g id="Grupo_1221148" data-name="Grupo 1221148">
            <path id="Trazado_1170060" data-name="Trazado 1170060" d="M0,0H10.285V21.715H0Z" transform="translate(43.175 7.674) rotate(45)" fill="#fcc16d"/>
            <path id="Trazado_1170061" data-name="Trazado 1170061" d="M0,0H21.715V5.205H0Z" transform="translate(31.409 26.626) rotate(-45)" fill="#fca62f"/>
            <path id="Trazado_1170062" data-name="Trazado 1170062" d="M240.2,67.716l-1.781-.728a1.638,1.638,0,0,0-1.778.358L224.132,79.855a1.638,1.638,0,0,0-.358,1.778l.728,1.781a1.092,1.092,0,0,0,1.783.359L240.56,69.5A1.092,1.092,0,0,0,240.2,67.716Z" transform="translate(-196.99 -60.348)" fill="#873f30"/>
            <path id="Trazado_1170063" data-name="Trazado 1170063" d="M304.8,132.314l.728,1.781a1.638,1.638,0,0,1-.358,1.778l-12.509,12.509a1.638,1.638,0,0,1-1.778.358l-1.781-.728a1.092,1.092,0,0,1-.359-1.783l14.274-14.274a1.092,1.092,0,0,1,1.783.359Z" transform="translate(-254.037 -117.396)" fill="#6c3328"/>
            <g id="Grupo_1221147" data-name="Grupo 1221147">
              <path id="Trazado_1170064" data-name="Trazado 1170064" d="M58.163,64.563H57.5a9.247,9.247,0,0,1-.77-1.468.894.894,0,1,0-1.652.684c.111.267.234.528.364.784H20.367a2.861,2.861,0,0,0-.779.108,10.393,10.393,0,0,1-1.314-5.323c0-.39.017-.774.051-1.151h17.13a.894.894,0,1,0,0-1.788H19.077l2.1-2.276H55.435a11.161,11.161,0,0,0-.861,2.276H42.822a.894.894,0,1,0,0,1.788H54.261c-.035.363-.055.73-.057,1.1a.894.894,0,0,0,.89.9h0a.894.894,0,0,0,.894-.89,9.567,9.567,0,0,1,1.5-5.172h.667a2.872,2.872,0,0,0,0-5.745H46.986l10.24-10.24a3.078,3.078,0,0,0,0-4.353L57,33.571a3.076,3.076,0,0,0-4.195-.147l-1.583-1.583.539-.539a2.526,2.526,0,0,0,.553-2.749l-.728-1.781a1.982,1.982,0,0,0-1.438-1.194l-1.243-1.243A.894.894,0,0,0,47.641,25.6l.612.612L34.162,40.3l-4.144-4.144L44.109,22.068l.548.548a.894.894,0,1,0,1.264-1.264l-1.18-1.18a1.982,1.982,0,0,0-1.194-1.439h0L41.767,18a2.527,2.527,0,0,0-2.749.553l-.539.539L36.9,17.514a3.077,3.077,0,0,0-.147-4.195l-.225-.225a3.078,3.078,0,0,0-4.353,0L21.045,24.221a3.078,3.078,0,0,0,0,4.353l.225.225a3.077,3.077,0,0,0,4.195.147l1.583,1.583-.539.539a2.526,2.526,0,0,0-.553,2.749l.728,1.781A1.981,1.981,0,0,0,28.1,36.786l-4.483,5.348a3.054,3.054,0,0,0-4.035,3.873l-2.033,1.877A.894.894,0,0,0,18.764,49.2l1.879-1.734,2.215,2.215L6.209,67.713a2.548,2.548,0,1,1-3.6-3.6L15.667,52.056a.894.894,0,0,0-1.213-1.314L1.394,62.8a4.337,4.337,0,0,0,2.938,7.523h.09a4.3,4.3,0,0,0,3.1-1.394l5.359-5.8a10.3,10.3,0,0,0,1.437,3.065,2.082,2.082,0,0,0,1.7.871H17.52a2.868,2.868,0,0,0,2.847,3.25h37.8a2.872,2.872,0,1,0,0-5.745Zm1.084-13.3a1.085,1.085,0,0,1-1.084,1.084H22.829l1.486-1.61a3.056,3.056,0,0,0,3.05-.558h30.8a1.085,1.085,0,0,1,1.084,1.084ZM32.274,40.943,27.1,45.283l-2.058-2.058,4.34-5.177Zm-3.9,7.446a3.07,3.07,0,0,0-.186-1.687l5.348-4.483a1.982,1.982,0,0,0,1.189,1.418l1.781.728a2.527,2.527,0,0,0,2.749-.553l.539-.539,1.583,1.583a3.084,3.084,0,0,0-.356,3.533H28.373ZM54.825,34.457a1.282,1.282,0,0,1,.912.378l.225.225a1.29,1.29,0,0,1,0,1.824L44.835,48.011a1.29,1.29,0,0,1-1.824,0l-.225-.225a1.291,1.291,0,0,1,0-1.824L53.913,34.835A1.281,1.281,0,0,1,54.825,34.457Zm-3.289.225-8.9,8.9-1.577-1.577,8.9-8.9Zm-16.2,6.976L49.609,27.384a.188.188,0,0,1,.137-.058.218.218,0,0,1,.042,0,.19.19,0,0,1,.144.119l.728,1.781a.742.742,0,0,1-.163.807L37.989,42.548a.742.742,0,0,1-.807.162L35.4,41.982a.2.2,0,0,1-.065-.323ZM23.447,27.913a1.281,1.281,0,0,1-.912-.378l-.225-.225a1.29,1.29,0,0,1,0-1.824L33.437,14.359a1.29,1.29,0,0,1,1.824,0l.225.225a1.29,1.29,0,0,1,0,1.824L24.359,27.535a1.283,1.283,0,0,1-.912.378Zm3.289-.225,8.9-8.9,1.577,1.577-8.9,8.9Zm1.038,4.644L40.283,19.823a.742.742,0,0,1,.808-.162l1.781.728a.2.2,0,0,1,.065.323L28.662,34.986a.2.2,0,0,1-.323-.065l-.728-1.781a.742.742,0,0,1,.163-.807ZM21.186,44.954a1.265,1.265,0,0,1,2.159-.894l2.916,2.916a1.265,1.265,0,0,1-1.789,1.789l-2.916-2.916a1.256,1.256,0,0,1-.371-.894Zm-5.41,20.2a9.02,9.02,0,0,1-1.432-3.613l2.143-2.322c0,.044,0,.088,0,.133a12.405,12.405,0,0,0,1.387,5.921H16.014A.291.291,0,0,1,15.776,65.15Zm42.387,3.369h-37.8a1.084,1.084,0,1,1,0-2.168h37.8a1.084,1.084,0,1,1,0,2.168Z" transform="translate(0.001 -12.193)"/>
              <path id="Trazado_1170065" data-name="Trazado 1170065" d="M203.221,417.166a.894.894,0,0,0,0,1.788H224.05a.894.894,0,0,0,0-1.788Z" transform="translate(-178.207 -368.889)"/>
            </g>
          </g>
        </g>
      </g>
    </g>
  </g>
</svg>
