<svg xmlns="http://www.w3.org/2000/svg" xmlns:xlink="http://www.w3.org/1999/xlink" width="108" height="108" viewBox="0 0 108 108">
  <defs>
    <filter id="Trazado_904820" x="0" y="0" width="108" height="108" filterUnits="userSpaceOnUse">
      <feOffset dy="3" input="SourceAlpha"/>
      <feGaussianBlur stdDeviation="3" result="blur"/>
      <feFlood flood-opacity="0.161"/>
      <feComposite operator="in" in2="blur"/>
      <feComposite in="SourceGraphic"/>
    </filter>
  </defs>
  <g id="Grupo_1221565" data-name="Grupo 1221565" transform="translate(-196.827 -4000)">
    <g id="Grupo_1221052" data-name="Grupo 1221052" transform="translate(205.827 4006)">
      <g id="Grupo_1219977" data-name="Grupo 1219977" transform="translate(0 0)">
        <g id="Grupo_1219603" data-name="Grupo 1219603">
          <g id="Grupo_1202655" data-name="Grupo 1202655">
            <g id="Grupo_1173585" data-name="Grupo 1173585">
              <g id="Grupo_1173428" data-name="Grupo 1173428">
                <g id="Grupo_1171958" data-name="Grupo 1171958">
                  <g id="Grupo_1167341" data-name="Grupo 1167341">
                    <g id="Grupo_1166792" data-name="Grupo 1166792">
                      <g transform="matrix(1, 0, 0, 1, -9, -6)" filter="url(#Trazado_904820)">
                        <g id="Trazado_904820-2" data-name="Trazado 904820" transform="translate(9 6)" fill="#fdfaeb">
                          <path d="M 44.99999618530273 88.50002288818359 C 39.12687301635742 88.50002288818359 33.43022155761719 87.35009765625 28.06829643249512 85.08218383789062 C 22.88852119445801 82.89133453369141 18.23629570007324 79.75460815429688 14.24084663391113 75.7591552734375 C 10.24540901184082 71.76371002197266 7.108683586120605 67.11148071289062 4.917821407318115 61.93170928955078 C 2.649921178817749 56.56978225708008 1.499996185302734 50.87313079833984 1.499996185302734 45.00000762939453 C 1.499996185302734 39.12688446044922 2.649921178817749 33.43023300170898 4.917821407318115 28.06829452514648 C 7.108683586120605 22.8885326385498 10.24540901184082 18.23630714416504 14.24084663391113 14.24085807800293 C 18.23629570007324 10.2454080581665 22.88852119445801 7.108695030212402 28.06829643249512 4.917832851409912 C 33.43022155761719 2.649932622909546 39.12687301635742 1.500007629394531 44.99999618530273 1.500007629394531 C 50.87311935424805 1.500007629394531 56.56977081298828 2.649932622909546 61.93169784545898 4.917832851409912 C 67.11147308349609 7.108695030212402 71.76369476318359 10.2454080581665 75.75914764404297 14.24085807800293 C 79.75458526611328 18.23630714416504 82.89131164550781 22.8885326385498 85.08216857910156 28.06829452514648 C 87.35007476806641 33.43023300170898 88.5 39.12688446044922 88.5 45.00000762939453 C 88.5 50.87313079833984 87.35007476806641 56.56978225708008 85.08216857910156 61.93170928955078 C 82.89131164550781 67.11148071289062 79.75458526611328 71.76371002197266 75.75914764404297 75.7591552734375 C 71.76369476318359 79.75460815429688 67.11147308349609 82.89133453369141 61.93169784545898 85.08218383789062 C 56.56977081298828 87.35009765625 50.87311935424805 88.50002288818359 44.99999618530273 88.50002288818359 Z" stroke="none"/>
                          <path d="M 44.99999618530273 2.999992370605469 C 39.32870864868164 2.999992370605469 33.82865142822266 4.110054016113281 28.65262603759766 6.299339294433594 C 23.65165710449219 8.414566040039062 19.15968322753906 11.44333648681641 15.301513671875 15.30150604248047 C 11.44333648681641 19.15967559814453 8.414566040039062 23.65164947509766 6.299339294433594 28.65262222290039 C 4.110054016113281 33.82866287231445 2.999992370605469 39.32872009277344 2.999992370605469 45.00000762939453 C 2.999992370605469 50.67129516601562 4.110054016113281 56.17135238647461 6.299339294433594 61.34738159179688 C 8.414566040039062 66.34835052490234 11.44333648681641 70.84032440185547 15.301513671875 74.69849395751953 C 19.15968322753906 78.55666351318359 23.65165710449219 81.58543395996094 28.65262603759766 83.70066833496094 C 33.82865142822266 85.88995361328125 39.32870864868164 87.00000762939453 44.99999618530273 87.00000762939453 C 50.67128372192383 87.00000762939453 56.17134094238281 85.88995361328125 61.34736633300781 83.70066833496094 C 66.34834289550781 81.58543395996094 70.84030914306641 78.55666351318359 74.69847869873047 74.69849395751953 C 78.55665588378906 70.84032440185547 81.58542633056641 66.34835052490234 83.70065307617188 61.34738159179688 C 85.88993835449219 56.17135238647461 87 50.67129516601562 87 45.00000762939453 C 87 39.32872009277344 85.88993835449219 33.82866287231445 83.70065307617188 28.65262222290039 C 81.58542633056641 23.65164947509766 78.55665588378906 19.15967559814453 74.69847869873047 15.30150604248047 C 70.84030914306641 11.44333648681641 66.34834289550781 8.414566040039062 61.34736633300781 6.299339294433594 C 56.17134094238281 4.110054016113281 50.67128372192383 2.999992370605469 44.99999618530273 2.999992370605469 M 44.99999618530273 -7.62939453125e-06 C 69.85281372070312 -7.62939453125e-06 90 20.14717864990234 90 45.00000762939453 C 90 69.85282135009766 69.85281372070312 90.00000762939453 44.99999618530273 90.00000762939453 C 20.14717864990234 90.00000762939453 -7.62939453125e-06 69.85282135009766 -7.62939453125e-06 45.00000762939453 C -7.62939453125e-06 20.14717864990234 20.14717864990234 -7.62939453125e-06 44.99999618530273 -7.62939453125e-06 Z" stroke="none" fill="#847625"/>
                        </g>
                      </g>
                    </g>
                  </g>
                </g>
              </g>
            </g>
          </g>
        </g>
      </g>
    </g>
    <g id="edificio-del-gobierno" transform="translate(222.857 4023.03)">
      <g id="Grupo_1221563" data-name="Grupo 1221563" transform="translate(0.819 0.819)">
        <g id="Grupo_1221561" data-name="Grupo 1221561">
          <path id="Trazado_1171170" data-name="Trazado 1171170" d="M7.5,19.19H61.8L36.289,7.5H33.012Zm27.151-3.278a2.185,2.185,0,1,1,2.185-2.185A2.185,2.185,0,0,1,34.651,15.913Z" transform="translate(-7.5 -7.5)" fill="#decba0" fill-rule="evenodd"/>
          <circle id="Elipse_14588" data-name="Elipse 14588" cx="2.185" cy="2.185" r="2.185" transform="matrix(0.987, -0.16, 0.16, 0.987, 24.64, 4.425)" fill="#e5ecf5"/>
          <path id="Trazado_1171171" data-name="Trazado 1171171" d="M61.8,121.054V114.5H7.5v6.555ZM7.5,157.11H61.8v-3.278H60.162v-3.278H9.139v3.278H7.5Z" transform="translate(-7.5 -102.809)" fill="#e5ecf5" fill-rule="evenodd"/>
          <path id="Trazado_1171172" data-name="Trazado 1171172" d="M52.5,227.443h8.194V204.5H52.5Zm36.274,0h8.194V204.5H88.774Zm-18.137,0h8.194V204.5H70.637Z" transform="translate(-47.583 -182.975)" fill="#e5ecf5" fill-rule="evenodd"/>
          <path id="Trazado_1171173" data-name="Trazado 1171173" d="M37.5,204H48.971v-3.278H37.5Zm36.274,0H85.245v-3.278H73.773Zm11.472-26.222V174.5H73.773v3.278ZM55.636,204H67.108v-3.278H55.636Zm11.472-26.222V174.5H55.636v3.278Zm-18.137,0V174.5H37.5v3.278Z" transform="translate(-34.221 -156.253)" fill="#decba0" fill-rule="evenodd"/>
          <path id="Trazado_1171174" data-name="Trazado 1171174" d="M7.5,19.19h3.278L36.289,7.5H33.012Z" transform="translate(-7.5 -7.5)" fill="#d4b981" fill-rule="evenodd"/>
          <path id="Trazado_1171175" data-name="Trazado 1171175" d="M9.958,114.5H7.5v6.555H9.958ZM7.5,157.11H9.958v-3.278H11.6v-3.278H9.139v3.278H7.5Z" transform="translate(-7.5 -102.809)" fill="#cad8eb" fill-rule="evenodd"/>
          <path id="Trazado_1171176" data-name="Trazado 1171176" d="M52.5,227.443h2.458V204.5H52.5Zm36.274,0h2.458V204.5H88.774Zm-18.137,0H73.1V204.5H70.637Z" transform="translate(-47.583 -182.975)" fill="#cad8eb" fill-rule="evenodd"/>
          <path id="Trazado_1171177" data-name="Trazado 1171177" d="M37.5,204h2.458v-3.278H37.5Zm36.274,0h2.458v-3.278H73.774V204Zm2.458-29.5H73.774v3.278h2.458ZM55.637,204H58.1v-3.278H55.637ZM58.1,174.5H55.637v3.278H58.1Zm-18.137,0H37.5v3.278h2.458Z" transform="translate(-34.222 -156.253)" fill="#d4b981" fill-rule="evenodd"/>
          <path id="Trazado_1171178" data-name="Trazado 1171178" d="M129.138,204H135.8v-3.278h1.639V177.777H135.8V174.5h-6.665v3.278H127.5v22.944h1.639Zm18.137,0h6.665v-3.278h1.639V177.777H153.94V174.5h-6.665v3.278h-1.639v22.944h1.639Z" transform="translate(-114.388 -156.253)" fill="#87bcc4" fill-rule="evenodd"/>
          <path id="Trazado_1171179" data-name="Trazado 1171179" d="M129.138,178.6V199.9h1.639V204h-1.639v-3.278H127.5V177.777h1.639V174.5h1.639v4.1Zm18.137,0V199.9h1.639V204h-1.639v-3.278h-1.639V177.777h1.639V174.5h1.639v4.1Z" transform="translate(-114.388 -156.253)" fill="#5fa6b0" fill-rule="evenodd"/>
          <path id="Trazado_1171180" data-name="Trazado 1171180" d="M236,46.675a2.188,2.188,0,0,0,3,2.026,2.186,2.186,0,0,1,0-4.052A2.188,2.188,0,0,0,236,46.675Z" transform="translate(-211.035 -40.448)" fill="#cad8eb" fill-rule="evenodd"/>
        </g>
        <g id="Grupo_1221562" data-name="Grupo 1221562" transform="translate(7.375 14.149)">
          <path id="Trazado_1171181" data-name="Trazado 1171181" d="M112.912,164.86h-1.639v-1.639h1.639Zm-18.137,0H93.136v-1.639h1.639Zm-18.137,0H75v-1.639h1.639Zm37.913-9.833h-1.639V150.11h1.639Zm-18.137,0H94.775V150.11h1.639Zm-18.137,0H76.638V150.11h1.639Zm36.274-6.556h-1.639v-1.639h1.639Zm-18.137,0H94.775v-1.639h1.639Zm-18.137,0H76.638v-1.639h1.639Zm41.19-9.833h-1.639V137h1.639Zm-3.278,0h-4.917V137h4.917Z" transform="translate(-74.999 -136.999)" fill="#fff"/>
        </g>
      </g>
      <g id="Grupo_1221564" data-name="Grupo 1221564" transform="translate(0)">
        <path id="Trazado_1171182" data-name="Trazado 1171182" d="M18.278,227v19.666H16.639v3.278H15v1.639H67.662v-1.639H66.023v-3.278H64.384V227H62.746v19.666H60.287V248.3h4.1v1.639H54.551V248.3h4.1v-1.639H56.19V227H54.551v19.666H52.913v3.278H47.887v-3.278H46.248V227H44.609v19.666H42.151V248.3h4.1v1.639H36.415V248.3h4.1v-1.639H38.053V227H36.415v19.666H34.776v3.278H29.75v-3.278H28.111V227H26.472v19.666H24.014V248.3h4.1v1.639H18.278V248.3h4.1v-1.639H19.917V227Z" transform="translate(-13.361 -202.198)"/>
        <path id="Trazado_1171183" data-name="Trazado 1171183" d="M1.639,468.639H27.151V467H0v4.917H47.746v-1.639H1.639Z" transform="translate(0 -415.977)"/>
        <path id="Trazado_1171184" data-name="Trazado 1171184" d="M263.5,468.639h25.512v1.639H284.1v1.639h6.555V467H263.5Z" transform="translate(-234.711 -415.977)"/>
        <path id="Trazado_1171185" data-name="Trazado 1171185" d="M29.788,0H26.152L13.979,5.578l.683,1.49L26.51,1.639h2.92L51.365,11.69H4.575l8.6-3.94-.683-1.49L0,11.984v7.9H3.278v3.278H16.389V19.885h5.026v3.278H34.525V19.885h5.026v3.278H52.662V19.885H55.94v-7.9ZM14.75,21.524H4.917V19.885H14.75Zm36.274,0H41.19V19.885h9.833ZM28.789,18.246v1.639h4.1v1.639H23.053V19.885h4.1V18.246H1.639V13.329H54.3v4.917Z" transform="translate(0)"/>
        <path id="Trazado_1171186" data-name="Trazado 1171186" d="M233.5,137h1.639v1.639H233.5Z" transform="translate(-207.988 -122.031)"/>
        <path id="Trazado_1171187" data-name="Trazado 1171187" d="M211.463,43.009a3.01,3.01,0,0,0,2.891-2.185h2.572V39.185h-2.572a3.005,3.005,0,0,0-5.782,0H206v1.639h2.572A3.01,3.01,0,0,0,211.463,43.009Zm0-4.37A1.366,1.366,0,1,1,210.1,40,1.367,1.367,0,0,1,211.463,38.639Z" transform="translate(-183.493 -32.957)"/>
        <path id="Trazado_1171188" data-name="Trazado 1171188" d="M263.5,137h1.639v1.639H263.5Z" transform="translate(-234.711 -122.031)"/>
      </g>
    </g>
  </g>
</svg>
