<svg xmlns="http://www.w3.org/2000/svg" xmlns:xlink="http://www.w3.org/1999/xlink" width="108" height="108" viewBox="0 0 108 108">
  <defs>
    <filter id="Trazado_904820" x="0" y="0" width="108" height="108" filterUnits="userSpaceOnUse">
      <feOffset dy="3" input="SourceAlpha"/>
      <feGaussianBlur stdDeviation="3" result="blur"/>
      <feFlood flood-opacity="0.161"/>
      <feComposite operator="in" in2="blur"/>
      <feComposite in="SourceGraphic"/>
    </filter>
  </defs>
  <g id="Grupo_1221423" data-name="Grupo 1221423" transform="translate(-616.827 -763.791)">
    <g id="Grupo_1220964" data-name="Grupo 1220964" transform="translate(625.827 769.791)">
      <g id="Grupo_1219977" data-name="Grupo 1219977" transform="translate(0 0)">
        <g id="Grupo_1219603" data-name="Grupo 1219603">
          <g id="Grupo_1202655" data-name="Grupo 1202655" transform="translate(0)">
            <g id="Grupo_1173585" data-name="Grupo 1173585">
              <g id="Grupo_1173428" data-name="Grupo 1173428">
                <g id="Grupo_1171958" data-name="Grupo 1171958">
                  <g id="Grupo_1167341" data-name="Grupo 1167341">
                    <g id="Grupo_1166792" data-name="Grupo 1166792">
                      <g transform="matrix(1, 0, 0, 1, -9, -6)" filter="url(#Trazado_904820)">
                        <g id="Trazado_904820-2" data-name="Trazado 904820" transform="translate(9 6)" fill="#fdfaeb">
                          <path d="M 44.99999618530273 88.49999237060547 C 39.12687301635742 88.49999237060547 33.43022155761719 87.35006713867188 28.06829643249512 85.08216857910156 C 22.88852119445801 82.89130401611328 18.23629570007324 79.75457763671875 14.24084663391113 75.75914001464844 C 10.24540901184082 71.76369476318359 7.108683586120605 67.11146545410156 4.917821407318115 61.93169403076172 C 2.649921178817749 56.56976699829102 1.499996185302734 50.87311553955078 1.499996185302734 44.99999237060547 C 1.499996185302734 39.12686920166016 2.649921178817749 33.43021774291992 4.917821407318115 28.06829261779785 C 7.108683586120605 22.88851737976074 10.24540901184082 18.23630523681641 14.24084663391113 14.24085521697998 C 18.23629570007324 10.24540519714355 22.88852119445801 7.108692169189453 28.06829643249512 4.917829990386963 C 33.43022155761719 2.649929761886597 39.12687301635742 1.500004887580872 44.99999618530273 1.500004887580872 C 50.87311935424805 1.500004887580872 56.56977081298828 2.649929761886597 61.93169784545898 4.917829990386963 C 67.11147308349609 7.108692169189453 71.76369476318359 10.24540519714355 75.75914764404297 14.24085521697998 C 79.75458526611328 18.23630523681641 82.89131164550781 22.88851737976074 85.08216857910156 28.06829261779785 C 87.35007476806641 33.43021774291992 88.5 39.12686920166016 88.5 44.99999237060547 C 88.5 50.87311553955078 87.35007476806641 56.56976699829102 85.08216857910156 61.93169403076172 C 82.89131164550781 67.11146545410156 79.75458526611328 71.76369476318359 75.75914764404297 75.75914001464844 C 71.76369476318359 79.75457763671875 67.11147308349609 82.89130401611328 61.93169784545898 85.08216857910156 C 56.56977081298828 87.35006713867188 50.87311935424805 88.49999237060547 44.99999618530273 88.49999237060547 Z" stroke="none"/>
                          <path d="M 44.99999618530273 2.999992370605469 C 39.32870864868164 2.999992370605469 33.82865142822266 4.11004638671875 28.65262603759766 6.299331665039062 C 23.65165710449219 8.414566040039062 19.15968322753906 11.44333648681641 15.301513671875 15.30150604248047 C 11.44333648681641 19.15967559814453 8.414566040039062 23.65164947509766 6.299339294433594 28.65262222290039 C 4.110054016113281 33.82864761352539 2.999992370605469 39.32870483398438 2.999992370605469 44.99999237060547 C 2.999992370605469 50.67127990722656 4.110054016113281 56.17132186889648 6.299339294433594 61.34736633300781 C 8.414566040039062 66.34833526611328 11.44333648681641 70.84029388427734 15.301513671875 74.69846343994141 C 19.15968322753906 78.55663299560547 23.65165710449219 81.58540344238281 28.65262603759766 83.70063781738281 C 33.82865142822266 85.88992309570312 39.32870864868164 86.99997711181641 44.99999618530273 86.99997711181641 C 50.67128372192383 86.99997711181641 56.17134094238281 85.88992309570312 61.34736633300781 83.70063781738281 C 66.34834289550781 81.58540344238281 70.84030914306641 78.55663299560547 74.69847869873047 74.69846343994141 C 78.55665588378906 70.84029388427734 81.58542633056641 66.34833526611328 83.70065307617188 61.34736633300781 C 85.88993835449219 56.17132186889648 87 50.67127990722656 87 44.99999237060547 C 87 39.32870483398438 85.88993835449219 33.82864761352539 83.70065307617188 28.65262222290039 C 81.58542633056641 23.65164947509766 78.55665588378906 19.15967559814453 74.69847869873047 15.30150604248047 C 70.84030914306641 11.44333648681641 66.34834289550781 8.414566040039062 61.34736633300781 6.299331665039062 C 56.17134094238281 4.11004638671875 50.67128372192383 2.999992370605469 44.99999618530273 2.999992370605469 M 44.99999618530273 -7.62939453125e-06 C 69.85281372070312 -7.62939453125e-06 90 20.14717864990234 90 44.99999237060547 C 90 69.85279083251953 69.85281372070312 89.99997711181641 44.99999618530273 89.99997711181641 C 20.14717864990234 89.99997711181641 -7.62939453125e-06 69.85279083251953 -7.62939453125e-06 44.99999237060547 C -7.62939453125e-06 20.14717864990234 20.14717864990234 -7.62939453125e-06 44.99999618530273 -7.62939453125e-06 Z" stroke="none" fill="#847625"/>
                        </g>
                      </g>
                    </g>
                  </g>
                </g>
              </g>
            </g>
          </g>
        </g>
      </g>
    </g>
    <g id="juez_2_" data-name="juez (2)" transform="translate(615.213 781.246)">
      <g id="Grupo_1221422" data-name="Grupo 1221422" transform="translate(29.092 0.896)">
        <path id="Trazado_1170782" data-name="Trazado 1170782" d="M223.5,27.312a1.236,1.236,0,0,1-.421-1.422,4.18,4.18,0,0,0-.627-4.022,1.233,1.233,0,0,1,0-1.527,4.173,4.173,0,0,0-.828-5.943,9.051,9.051,0,0,1-2.322-2.585c-1.678-2.8-4.91-5.821-10.639-3.611a2.382,2.382,0,0,1-1.712,0l-.043-.016h-.761l-3.437,2.744-2.318,3.04-2.107,2.559,1.791,5.339v4.5l-3.205,2.167-.632,3.642.542,2.348,1.934,1.032a5.632,5.632,0,0,0,1.6-2.26l14.931-.162a5.57,5.57,0,0,0,4.854,3.738,5.318,5.318,0,0,0,3.4-9.566Z" transform="translate(-176.906 -7.439)" fill="#ccc6ce"/>
        <path id="Trazado_1170783" data-name="Trazado 1170783" d="M197.935,293.567l-7.238-2.8-1.572.513L184,294.63h-7.4l-4.863-3.888h-1.577l-1.129.441-1.451.787-2.027,2.868-.2.985v8.208l-.167.009.477,3.564,5.63,8.868H195.2l.813-1.2V301l4.1-4.651V295A7.078,7.078,0,0,0,197.935,293.567Z" transform="translate(-149.591 -256.631)" fill="#7b6c79"/>
        <path id="Trazado_1170784" data-name="Trazado 1170784" d="M136.725,294.4l-6.1,2.384a7.231,7.231,0,0,0-2.163,1.45v1.077l4.007,4.846.337,2.52.446-.132v-6.7C133.248,297.509,135.181,295.575,136.725,294.4Z" transform="translate(-117.288 -259.852)" fill="#665e68"/>
        <g id="Grupo_1221421" data-name="Grupo 1221421" transform="translate(13.387 0)">
          <path id="Trazado_1170785" data-name="Trazado 1170785" d="M153.482,31.568a5.309,5.309,0,0,1,2.125-4.252,1.236,1.236,0,0,0,.421-1.422,4.18,4.18,0,0,1,.627-4.022,1.233,1.233,0,0,0,0-1.527,4.173,4.173,0,0,1,.828-5.943,9.051,9.051,0,0,0,2.322-2.585,9.286,9.286,0,0,1,3.682-3.628c-5.7-2.178-8.922.83-10.6,3.628a9.055,9.055,0,0,1-2.322,2.585,4.173,4.173,0,0,0-.828,5.943,1.233,1.233,0,0,1,0,1.527,4.18,4.18,0,0,0-.626,4.025,1.233,1.233,0,0,1-.422,1.419,5.329,5.329,0,0,0-1.819,2.476l.5.527h2.619v5.569l.764.876a5.353,5.353,0,0,0,1.344.118,5.267,5.267,0,0,0,3.2-1.316A5.3,5.3,0,0,1,153.482,31.568Z" transform="translate(-146.874 -7.443)" fill="#b7aeb8"/>
        </g>
        <path id="Trazado_1170786" data-name="Trazado 1170786" d="M294.69,243.223a.869.869,0,0,1-.555-.808l0-3.561a8.518,8.518,0,0,1-4.679,1.4c-.157,0-.311,0-.464-.012v7.014h3.542l2.167-2.569.1-1.418-.109-.042Z" transform="translate(-258.49 -210.991)" fill="#ffcebe"/>
        <path id="Trazado_1170787" data-name="Trazado 1170787" d="M251.723,240.154a8.969,8.969,0,0,1-4.8-1.406v3.568a.8.8,0,0,1-.37.7l-.306.119v.789l1.966,3.231h3.512v-7Z" transform="translate(-220.893 -210.898)" fill="#ffb1a0"/>
        <path id="Trazado_1170788" data-name="Trazado 1170788" d="M113.006,329.384l-3.082-3.15c-.168.159-.332.329-.492.509l-.418.412v5.665l-1.628,1.7v4.3l.745.6h5.358l1.333-.6v-4.983a6.37,6.37,0,0,0-1.817-4.454Z" transform="translate(-98.754 -287.85)" fill="#544e55"/>
        <path id="Trazado_1170789" data-name="Trazado 1170789" d="M420.357,347.61a1.566,1.566,0,0,0,1.566-1.566V332a8.177,8.177,0,0,0-2.527-5.853L416.3,329.3a6.37,6.37,0,0,0-1.816,4.454V347.61Z" transform="translate(-368.879 -287.77)" fill="#665e68"/>
        <path id="Trazado_1170790" data-name="Trazado 1170790" d="M94.49,269.325V254.437H90.4v14.888a2.045,2.045,0,1,0,4.091,0Z" transform="translate(-83.812 -224.698)" fill="#bd7b62"/>
        <path id="Trazado_1170791" data-name="Trazado 1170791" d="M125.163,430.784H118.37l-.513.119-.98.773-.472,1.234v3.342h11.253v-2.973A2.5,2.5,0,0,0,125.163,430.784Z" transform="translate(-106.687 -379.812)" fill="#bd7b62"/>
        <path id="Trazado_1170792" data-name="Trazado 1170792" d="M65.367,430.784h-7.5a2.5,2.5,0,0,0-2.5,2.5v2.973h7.5v-2.973A2.5,2.5,0,0,1,65.367,430.784Z" transform="translate(-52.999 -379.812)" fill="#ad6a50"/>
        <path id="Trazado_1170793" data-name="Trazado 1170793" d="M283,352.131l-4.385-14.383-2.7-.272-2.08,16.633a20.831,20.831,0,0,0,2.4.141,17.642,17.642,0,0,0,6.307-1.155A.775.775,0,0,0,283,352.131Z" transform="translate(-245.167 -297.738)" fill="#dbedff"/>
        <path id="Trazado_1170794" data-name="Trazado 1170794" d="M237.835,337.75l-4.379,14.367a.78.78,0,0,0,.478.971,18.91,18.91,0,0,0,3.257.868l1.784-1.549,1.56-14.137-.532-.788Z" transform="translate(-209.61 -297.745)" fill="#b5dcff"/>
        <path id="Trazado_1170795" data-name="Trazado 1170795" d="M295.548,302.835l-1.427-.79a8.4,8.4,0,0,1-3.434.728c-.041,0-.08,0-.121,0l-.161.215v3.973l.161.14.094,0a6.543,6.543,0,0,0,5.487-3.016Z" transform="translate(-259.737 -266.574)" fill="#b5dcff"/>
        <path id="Trazado_1170796" data-name="Trazado 1170796" d="M250.973,302.79a9.22,9.22,0,0,1-3.522-.723l-1.325.586-.734,1.47a6.6,6.6,0,0,0,5.581,2.995Z" transform="translate(-220.143 -266.593)" fill="#8bcaff"/>
        <path id="Trazado_1170797" data-name="Trazado 1170797" d="M206.5,277.088l3.238,3.238a1.188,1.188,0,0,0,1.68,0l1.647-1.647a1.188,1.188,0,0,0,0-1.68l-1.78-1.78Z" transform="translate(-185.932 -242.977)" fill="#938493"/>
        <path id="Trazado_1170798" data-name="Trazado 1170798" d="M321.846,280.568a1.188,1.188,0,0,0,1.68,0l3.216-3.216-4.8-1.858-1.747,1.747a1.188,1.188,0,0,0,0,1.68Z" transform="translate(-285.636 -243.219)" fill="#938493"/>
        <path id="Trazado_1170799" data-name="Trazado 1170799" d="M57.795,470.46H36.924a1.235,1.235,0,0,0-1.235,1.235v1.621a1.235,1.235,0,0,0,1.235,1.235H57.795a1.235,1.235,0,0,0,1.235-1.235v-1.621a1.234,1.234,0,0,0-1.235-1.235Z" transform="translate(-35.689 -414.711)" fill="#ffe559"/>
        <path id="Trazado_1170800" data-name="Trazado 1170800" d="M35.951,197.2l.542.346H40.3v-3.928l-.7-.557H36.915a1.226,1.226,0,0,0-1.226,1.227v2.33Z" transform="translate(-35.689 -170.71)" fill="#fbc700"/>
        <path id="Trazado_1170801" data-name="Trazado 1170801" d="M36.915,220.321a1.226,1.226,0,0,1-1.226-1.227v4.361a1.226,1.226,0,0,0,1.226,1.227H39.6l.7-.339v-4.361l-.7.339Z" transform="translate(-35.689 -193.61)" fill="#eab900"/>
        <path id="Trazado_1170802" data-name="Trazado 1170802" d="M144.78,197.544h3.306l.572-.4.252-.49v-2.373a1.227,1.227,0,0,0-1.227-1.227H145l-.22.206v4.279Z" transform="translate(-131.645 -170.709)" fill="#fbc700"/>
        <path id="Trazado_1170803" data-name="Trazado 1170803" d="M147.685,220.321H145l-.22-.309v4.361l.22.309h2.683a1.227,1.227,0,0,0,1.227-1.227v-4.361A1.227,1.227,0,0,1,147.685,220.321Z" transform="translate(-131.646 -193.61)" fill="#eab900"/>
        <path id="Trazado_1170804" data-name="Trazado 1170804" d="M68.163,193.058h9.445v4.485H68.163Z" transform="translate(-64.253 -170.709)" fill="#ffe559"/>
        <path id="Trazado_1170805" data-name="Trazado 1170805" d="M68.163,229.281h9.445v4.361H68.163Z" transform="translate(-64.253 -202.57)" fill="#ffd500"/>
        <path id="Trazado_1170806" data-name="Trazado 1170806" d="M276.741,102.706a12.671,12.671,0,0,1-6.377-1.69,3.813,3.813,0,0,0-3.725,0c-.321.18-.678.362-1.066.539l-.336.652v11.378l2.077,3.341,3.123,1.708.452.133.483.034a8.689,8.689,0,0,0,5.76-8.149v-7.566A.382.382,0,0,0,276.741,102.706Z" transform="translate(-237.6 -89.32)" fill="#ffdecf"/>
        <path id="Trazado_1170807" data-name="Trazado 1170807" d="M225.429,118.18v-9.161a12.214,12.214,0,0,1-5.435,1.152.382.382,0,0,0-.4.377v7.633a8.58,8.58,0,0,0,8.807,8.571,8.4,8.4,0,0,0,2.823-.486A8.513,8.513,0,0,1,225.429,118.18Z" transform="translate(-197.455 -96.788)" fill="#ffcebe"/>
        <path id="Trazado_1170808" data-name="Trazado 1170808" d="M111.626,470.46H97.9l-.3.065-.5.467-.215.467v2.167l.373.625.425.229.321.071h13.618a1.235,1.235,0,0,0,1.235-1.235v-1.621A1.234,1.234,0,0,0,111.626,470.46Z" transform="translate(-89.52 -414.711)" fill="#ffe559"/>
        <path id="Trazado_1170809" data-name="Trazado 1170809" d="M43.192,473.316v-1.621a1.235,1.235,0,0,1,1.235-1.235h-7.5a1.235,1.235,0,0,0-1.235,1.235v1.621a1.235,1.235,0,0,0,1.235,1.235h7.5A1.235,1.235,0,0,1,43.192,473.316Z" transform="translate(-35.689 -414.711)" fill="#ffd500"/>
      </g>
      <path id="Trazado_1170810" data-name="Trazado 1170810" d="M30.327,61.639h27.71a.9.9,0,0,0,0-1.806H53.31c0-.025.006-.051.009-.076s0-.038.007-.058c.006-.065.01-.131.01-.2V57.88a2.129,2.129,0,0,0-.1-.635c-.013-.043-.03-.084-.046-.126a20.569,20.569,0,0,0,6.972,1.191h.022A18.515,18.515,0,0,0,66.794,57.1a1.675,1.675,0,0,0,1-2.077L63.633,41.377a7.512,7.512,0,0,0,2.216-1.9,2.073,2.073,0,0,0,1.771-.59l2.8-2.8L77.1,38.67a5.758,5.758,0,0,1,1.178.669L75.872,41.8A7.233,7.233,0,0,0,73.8,46.885v2.876a.9.9,0,1,0,1.806,0V46.885a5.437,5.437,0,0,1,1.559-3.823l2.425-2.478a7.183,7.183,0,0,1,1.646,4.539V59.17a.664.664,0,0,1-.663.663H75.6V53.975a.9.9,0,1,0-1.806,0v5.858H62.251a.9.9,0,0,0,0,1.806H80.57a2.472,2.472,0,0,0,2.469-2.469V45.122A8.906,8.906,0,0,0,77.78,37l-.018-.007-12.123-4.7,0-2.383a9.674,9.674,0,0,0,1.657-1.566,6.448,6.448,0,0,0,4.951,2.892,6.221,6.221,0,0,0,3.981-11.19h0a.332.332,0,0,1-.117-.386,5.083,5.083,0,0,0-.763-4.893.33.33,0,0,1,0-.413,5.027,5.027,0,0,0,1.078-3.129,5.1,5.1,0,0,0-2.084-4.1,8.13,8.13,0,0,1-2.08-2.319C69.59.344,65.421-1.073,60.522.816a1.472,1.472,0,0,1-1.062,0c-4.9-1.89-9.069-.472-11.739,3.99a8.132,8.132,0,0,1-2.08,2.319,5.1,5.1,0,0,0-2.084,4.1,5.028,5.028,0,0,0,1.079,3.129.33.33,0,0,1,0,.413,5.083,5.083,0,0,0-.762,4.9.329.329,0,0,1-.118.383,6.208,6.208,0,0,0-1.878,2.295H30.318a2.132,2.132,0,0,0-2.129,2.13v6.27a2.132,2.132,0,0,0,2.129,2.13h4.458V45.524a2.953,2.953,0,0,0,2.045,2.806v2.635H33.957a3.4,3.4,0,0,0-3.4,3.4v1.379h-.232a2.14,2.14,0,0,0-2.138,2.138V59.5a2.14,2.14,0,0,0,2.138,2.138ZM52.075,55a1.672,1.672,0,0,0-.028.92,2.123,2.123,0,0,0-.849-.177h-.231V54.363a3.4,3.4,0,0,0-3.4-3.4H46.063v-4.08A7.232,7.232,0,0,0,43.989,41.8l-2.4-2.452a5.69,5.69,0,0,1,1.171-.677l6.675-2.607,2.821,2.821a2.079,2.079,0,0,0,1.725.6,7.277,7.277,0,0,0,2.243,1.9Zm-7.818-8.114v4.08h-5.63V48.33a2.957,2.957,0,0,0,2.045-2.807h0V40.992l2.025,2.07A5.436,5.436,0,0,1,44.257,46.885Zm7.016-11.539,2.949-1.152,1.362,1.362a.285.285,0,0,1,0,.4l-1.648,1.648a.287.287,0,0,1-.4,0ZM66.036,55.452a16.718,16.718,0,0,1-2.947.8l-.482-3.894a.9.9,0,1,0-1.792.222l.482,3.887q-.552.036-1.11.036h-.019q-.8,0-1.592-.065l.478-3.859a.9.9,0,1,0-1.792-.222l-.477,3.852a18.007,18.007,0,0,1-2.952-.78l4.077-13.376a8.292,8.292,0,0,0,2.106.272h.014a7.355,7.355,0,0,0,1.926-.259ZM60.023,40.519h-.007a5.8,5.8,0,0,1-4.464-1.974l1.107-1.107a10.262,10.262,0,0,0,3.382.56h.011a9.246,9.246,0,0,0,3.17-.556L64.3,38.518a5.611,5.611,0,0,1-4.274,2ZM55.786,33.2a1.737,1.737,0,0,0,.237-.888V30.951a9.962,9.962,0,0,0,7.809.023v1.348a1.773,1.773,0,0,0,.243.9l-1.061,1.061a2.083,2.083,0,0,0-.609,1.535,7.361,7.361,0,0,1-2.363.379,8.525,8.525,0,0,1-2.572-.389,2.084,2.084,0,0,0-.609-1.525ZM68.579,35.37l-2.237,2.236a.285.285,0,0,1-.4,0h0l-1.647-1.647h0a.285.285,0,0,1,0-.4l1.331-1.331Zm-.857-13.146a7.793,7.793,0,0,1-15.584.064v-7.1a13.7,13.7,0,0,0,6.434-1.81,2.889,2.889,0,0,1,2.723-.058,14.076,14.076,0,0,0,6.426,1.866ZM44.84,21.491a2.127,2.127,0,0,0,.725-2.456,3.277,3.277,0,0,1,.491-3.153,2.136,2.136,0,0,0,0-2.64,3.238,3.238,0,0,1-.694-2.015,3.284,3.284,0,0,1,1.344-2.642,10,10,0,0,0,2.564-2.85C51.5,2.007,54.71.92,58.81,2.5a3.275,3.275,0,0,0,2.362,0c4.1-1.581,7.309-.494,9.539,3.233a10,10,0,0,0,2.564,2.85,3.284,3.284,0,0,1,1.344,2.642,3.237,3.237,0,0,1-.694,2.015,2.137,2.137,0,0,0,0,2.64,3.277,3.277,0,0,1,.492,3.151,2.13,2.13,0,0,0,.725,2.458,4.415,4.415,0,0,1-2.826,7.942,4.632,4.632,0,0,1-3.891-2.76,9.522,9.522,0,0,0,1.1-4.449c0-8.348,0-7.509,0-7.607a1.277,1.277,0,0,0-1.306-1.238A11.791,11.791,0,0,1,62.3,11.8a4.685,4.685,0,0,0-4.6,0c-.145.081-.3.164-.462.246a11.54,11.54,0,0,1-5.575,1.329,1.281,1.281,0,0,0-1.322,1.286v7.627a9.476,9.476,0,0,0,1.154,4.535,4.664,4.664,0,0,1-3.82,2.61q-.2.008-.406,0V24.472a2.132,2.132,0,0,0-2.13-2.13H43.982A4.435,4.435,0,0,1,44.84,21.491Zm-1.49,2.657h1.78a.324.324,0,0,1,.324.324v6.27a.324.324,0,0,1-.324.324H43.35Zm1.781,8.723a2.132,2.132,0,0,0,2.07-1.638c.178.008.357.012.535.005a6.389,6.389,0,0,0,4.88-2.784,9.07,9.07,0,0,0,1.6,1.471v2.332L42.1,36.99,42.081,37a7.344,7.344,0,0,0-1.408.782V32.871ZM32.1,31.065h-1.78a.324.324,0,0,1-.323-.324v-6.27a.324.324,0,0,1,.323-.324H32.1Zm1.806,0V24.148h7.639v6.917Zm2.677,14.459V32.871h2.285v6.918h0v5.733a1.142,1.142,0,1,1-2.285,0Zm-4.218,8.84a1.594,1.594,0,0,1,1.592-1.592H47.568a1.594,1.594,0,0,1,1.592,1.592v1.378h-16.8ZM30,57.88a.332.332,0,0,1,.332-.332H51.2a.332.332,0,0,1,.332.332V59.5a.332.332,0,0,1-.332.332H30.327a.332.332,0,0,1-.332-.332V57.88Z" transform="translate(0 0)"/>
    </g>
  </g>
</svg>
