<svg xmlns="http://www.w3.org/2000/svg" xmlns:xlink="http://www.w3.org/1999/xlink" width="97.533" height="97.533" viewBox="0 0 97.533 97.533">
  <defs>
    <filter id="Trazado_982547" x="0" y="0" width="97.533" height="97.533" filterUnits="userSpaceOnUse">
      <feOffset dy="3" input="SourceAlpha"/>
      <feGaussianBlur stdDeviation="3" result="blur"/>
      <feFlood flood-opacity="0.161"/>
      <feComposite operator="in" in2="blur"/>
      <feComposite in="SourceGraphic"/>
    </filter>
  </defs>
  <g id="Grupo_1221427" data-name="Grupo 1221427" transform="translate(-609.467 -1823)">
    <g id="Grupo_1206295" data-name="Grupo 1206295" transform="translate(618.467 1829)">
      <g id="Grupo_1206294" data-name="Grupo 1206294" transform="translate(0)">
        <g id="Grupo_1204176" data-name="Grupo 1204176" transform="translate(0)">
          <g id="Grupo_1203355" data-name="Grupo 1203355" transform="translate(0)">
            <g id="Grupo_1202156" data-name="Grupo 1202156">
              <g id="Grupo_1177900" data-name="Grupo 1177900">
                <g id="Grupo_1172010" data-name="Grupo 1172010">
                  <g id="Grupo_1171046" data-name="Grupo 1171046">
                    <g id="Grupo_1148525" data-name="Grupo 1148525">
                      <g transform="matrix(1, 0, 0, 1, -9, -6)" filter="url(#Trazado_982547)">
                        <g id="Trazado_982547-2" data-name="Trazado 982547" transform="translate(9 6)" fill="#f7f4ed">
                          <path d="M 39.7666015625 78.033203125 C 34.59997940063477 78.033203125 29.58870124816895 77.02164459228516 24.87196731567383 75.02663421630859 C 20.31538963317871 73.099365234375 16.22284507751465 70.34000396728516 12.70802402496338 66.82518005371094 C 9.193202018737793 63.31035614013672 6.433835029602051 59.21781158447266 4.506568431854248 54.66123580932617 C 2.511557102203369 49.94449996948242 1.500001549720764 44.93322372436523 1.500001549720764 39.7666015625 C 1.500001549720764 34.59997940063477 2.511557102203369 29.58870124816895 4.506568431854248 24.87196731567383 C 6.433835029602051 20.31538963317871 9.193202018737793 16.22284507751465 12.70802402496338 12.70802402496338 C 16.22284507751465 9.193202018737793 20.31538963317871 6.433835029602051 24.87196731567383 4.506568431854248 C 29.58870124816895 2.511557102203369 34.59997940063477 1.500001549720764 39.7666015625 1.500001549720764 C 44.93322372436523 1.500001549720764 49.94449996948242 2.511557102203369 54.66123580932617 4.506568431854248 C 59.21781158447266 6.433835029602051 63.31035614013672 9.193202018737793 66.82518005371094 12.70802402496338 C 70.34000396728516 16.22284507751465 73.099365234375 20.31538963317871 75.02663421630859 24.87196731567383 C 77.02164459228516 29.58870124816895 78.033203125 34.59997940063477 78.033203125 39.7666015625 C 78.033203125 44.93322372436523 77.02164459228516 49.94449996948242 75.02663421630859 54.66123580932617 C 73.099365234375 59.21781158447266 70.34000396728516 63.31035614013672 66.82518005371094 66.82518005371094 C 63.31035614013672 70.34000396728516 59.21781158447266 73.099365234375 54.66123580932617 75.02663421630859 C 49.94449996948242 77.02164459228516 44.93322372436523 78.033203125 39.7666015625 78.033203125 Z" stroke="none"/>
                          <path d="M 39.7666015625 3 C 34.80181503295898 3 29.98714065551758 3.971687316894531 25.45630264282227 5.888076782226562 C 21.07851409912109 7.739715576171875 17.146240234375 10.39113616943359 13.76869201660156 13.76869201660156 C 10.39113616943359 17.146240234375 7.739715576171875 21.07851409912109 5.888076782226562 25.45630264282227 C 3.971687316894531 29.98714065551758 3 34.80181503295898 3 39.7666015625 C 3 44.73138809204102 3.971687316894531 49.54606628417969 5.888076782226562 54.076904296875 C 7.739715576171875 58.45468902587891 10.39113616943359 62.386962890625 13.76869201660156 65.76451110839844 C 17.146240234375 69.14206695556641 21.07851409912109 71.79348754882812 25.45630264282227 73.64512634277344 C 29.98714065551758 75.56151580810547 34.80181503295898 76.533203125 39.7666015625 76.533203125 C 44.73138809204102 76.533203125 49.54606628417969 75.56151580810547 54.076904296875 73.64512634277344 C 58.45468902587891 71.79348754882812 62.386962890625 69.14206695556641 65.76451110839844 65.76451110839844 C 69.14206695556641 62.386962890625 71.79348754882812 58.45468902587891 73.64512634277344 54.076904296875 C 75.56151580810547 49.54606628417969 76.533203125 44.73138809204102 76.533203125 39.7666015625 C 76.533203125 34.80181503295898 75.56151580810547 29.98714065551758 73.64512634277344 25.45630264282227 C 71.79348754882812 21.07851409912109 69.14206695556641 17.146240234375 65.76451110839844 13.76869201660156 C 62.386962890625 10.39113616943359 58.45468902587891 7.739715576171875 54.076904296875 5.888076782226562 C 49.54606628417969 3.971687316894531 44.73138809204102 3 39.7666015625 3 M 39.7666015625 0 C 61.72908782958984 0 79.533203125 17.80411529541016 79.533203125 39.7666015625 C 79.533203125 61.72908782958984 61.72908782958984 79.533203125 39.7666015625 79.533203125 C 17.80411529541016 79.533203125 0 61.72908782958984 0 39.7666015625 C 0 17.80411529541016 17.80411529541016 0 39.7666015625 0 Z" stroke="none" fill="#655531"/>
                        </g>
                      </g>
                    </g>
                  </g>
                </g>
              </g>
            </g>
          </g>
        </g>
      </g>
    </g>
    <g id="deduccion" transform="translate(626.584 1835.49)">
      <g id="Grupo_1221426" data-name="Grupo 1221426" transform="translate(5.771 7.855)">
        <g id="Grupo_1221424" data-name="Grupo 1221424" transform="translate(0 0)">
          <path id="Trazado_1170811" data-name="Trazado 1170811" d="M51.79,66.31H30.9q-1.314-7.367-8.884-5.649-5.049.878-4.944-1.414c-.018-2.367-.422-3.228-1.032-3.686-1.352-1.04.153-2.381,1.7-3.221-1.3-.1-2.974-1.149-2.614-1.988.578-1.97.305-2.763-.585-3.224q-2.6-1.27-1.058-3.235a18.547,18.547,0,0,0,2.832-3.944,6.554,6.554,0,0,0,.734-3.831c-.062-.636-.094-1.28-.094-1.934a19.181,19.181,0,1,1,33.818,12.4A6.518,6.518,0,0,0,49.2,50.239c-.491,4.468.618,9.651,3.177,15.151a.647.647,0,0,1-.585.92Z" transform="translate(-12.909 -15)" fill="#f6dccd" fill-rule="evenodd"/>
          <path id="Trazado_1170812" data-name="Trazado 1170812" d="M94.669,66.31H90.79a.647.647,0,0,0,.585-.92c-2.559-5.5-3.668-10.684-3.177-15.151a6.518,6.518,0,0,1,1.574-3.661,19.182,19.182,0,0,0-12.7-31.48,18.947,18.947,0,0,1,1.938-.1A19.182,19.182,0,0,1,93.651,46.578a6.518,6.518,0,0,0-1.574,3.661c-.491,4.468.618,9.651,3.177,15.151a.647.647,0,0,1-.585.92ZM65.449,60.545c-.185.036-.371.073-.556.116a8.275,8.275,0,0,1-3.973.015l.094-.015A9.539,9.539,0,0,1,65.449,60.545Z" transform="translate(-55.788 -15)" fill="#f1cbbc" fill-rule="evenodd"/>
        </g>
        <g id="Grupo_1221425" data-name="Grupo 1221425" transform="translate(8.241 3.631)">
          <path id="Trazado_1170813" data-name="Trazado 1170813" d="M318.3,263.758a15.279,15.279,0,0,1-2.591,2.855l7.047,6.908,2.683-2.765Z" transform="translate(-291.583 -240.798)" fill="#a79ba7" fill-rule="evenodd"/>
          <path id="Trazado_1170814" data-name="Trazado 1170814" d="M333.98,263.326a1.771,1.771,0,0,1-.768,1.028l7,6.957.858-.941Z" transform="translate(-307.214 -240.412)" fill="#837683" fill-rule="evenodd"/>
          <path id="Trazado_1170815" data-name="Trazado 1170815" d="M375.14,325.25l3.027-3.123a1.393,1.393,0,0,0-.028-1.963l-8.388-8.139a1.393,1.393,0,0,0-1.963.031l-3.027,3.12a1.393,1.393,0,0,0,.028,1.963l8.388,8.139A1.393,1.393,0,0,0,375.14,325.25Z" transform="translate(-335.041 -283.558)" fill="#f1ba84" fill-rule="evenodd"/>
          <path id="Trazado_1170816" data-name="Trazado 1170816" d="M400.2,312.028l8.388,8.139a1.393,1.393,0,0,1,.028,1.963l-3.027,3.123a1.416,1.416,0,0,1-.375.272,1.394,1.394,0,0,0,1.616-.272l3.027-3.123a1.393,1.393,0,0,0-.028-1.963l-8.388-8.139a1.4,1.4,0,0,0-1.588-.244,1.39,1.39,0,0,1,.347.244Z" transform="translate(-366.734 -283.561)" fill="#e3a76f" fill-rule="evenodd"/>
          <path id="Trazado_1170817" data-name="Trazado 1170817" d="M105.279,48.97A15.273,15.273,0,1,1,90.006,64.243,15.272,15.272,0,0,1,105.279,48.97Z" transform="translate(-90.006 -48.97)" fill="#8ac9fe" fill-rule="evenodd"/>
          <path id="Trazado_1170818" data-name="Trazado 1170818" d="M226.681,48.97a15.273,15.273,0,1,1,0,30.547c-.249,0-.5-.008-.743-.018a15.273,15.273,0,0,0,0-30.51C226.185,48.975,226.431,48.97,226.681,48.97Z" transform="translate(-211.407 -48.97)" fill="#60b7ff" fill-rule="evenodd"/>
          <path id="Trazado_1170819" data-name="Trazado 1170819" d="M135.046,82.3a11.71,11.71,0,1,1-11.71,11.71A11.711,11.711,0,0,1,135.046,82.3Z" transform="translate(-119.773 -78.737)" fill="#eceff1" fill-rule="evenodd"/>
          <path id="Trazado_1170820" data-name="Trazado 1170820" d="M135.046,82.3c.266,0,.529.008.792.026a11.71,11.71,0,0,0,0,23.367c-.263.018-.526.028-.792.028a11.71,11.71,0,0,1,0-23.421Z" transform="translate(-119.773 -78.737)" fill="#d1d1d6" fill-rule="evenodd"/>
        </g>
        <path id="Trazado_1170821" data-name="Trazado 1170821" d="M180.4,141.791l-3.063-3.067a1.714,1.714,0,1,1,2.424-2.424l3.067,3.063,3.063-3.063a1.715,1.715,0,1,1,2.428,2.424l-3.067,3.067,3.067,3.063a1.717,1.717,0,0,1-2.428,2.428l-3.063-3.067-3.067,3.067a1.715,1.715,0,0,1-2.424-2.428Z" transform="translate(-159.307 -122.885)" fill="#fe646f" fill-rule="evenodd"/>
      </g>
      <path id="Trazado_1170822" data-name="Trazado 1170822" d="M42.8,45.217a31.394,31.394,0,0,0,3.645,13.571.855.855,0,0,1-.767,1.233H23.761a.855.855,0,0,1-.842-.7c-.387-2.168-1.188-3.693-2.5-4.524s-3.108-.951-5.356-.443l-.042.008a9.932,9.932,0,0,1-4.143.067,2.549,2.549,0,0,1-1.35-.844,2.191,2.191,0,0,1-.451-1.491A8.193,8.193,0,0,0,8.825,49.8a1.286,1.286,0,0,0-.434-.694L8.376,49.1a2,2,0,0,1-.851-1.429,2.158,2.158,0,0,1,.438-1.428,4.367,4.367,0,0,1,.717-.768A3.734,3.734,0,0,1,7.464,44.5a1.6,1.6,0,0,1-.28-1.572,6.108,6.108,0,0,0,.248-1.251c.031-.487-.095-.761-.417-.93a3.58,3.58,0,0,1-1.987-1.941,2.725,2.725,0,0,1,.647-2.588q.021-.027.044-.052a17.468,17.468,0,0,0,2.7-3.755v0a5.694,5.694,0,0,0,.645-3.348,19.645,19.645,0,0,1-.1-2.023A20.033,20.033,0,1,1,45.7,38.111l.929.9a2.258,2.258,0,0,1,2.689.328h0L57.7,47.48a2.247,2.247,0,0,1,.045,3.172h0l-3.027,3.118h0a2.252,2.252,0,0,1-3.169.052l0,0-8.382-8.139a2.22,2.22,0,0,1-.369-.465Zm1.65-8.32a18.326,18.326,0,1,0-33.773-9.86,17.918,17.918,0,0,0,.091,1.849v0A7.333,7.333,0,0,1,9.935,33.2,19.139,19.139,0,0,1,7,37.3c-.282.365-.445.674-.347.975.122.372.529.65,1.124.942l.015.008a2.473,2.473,0,0,1,.945.808c.442.653.582,1.668.078,3.408A1.549,1.549,0,0,0,9,43.647a2.845,2.845,0,0,0,.738.447,3.024,3.024,0,0,0,.935.248.855.855,0,0,1,.341,1.6,4.984,4.984,0,0,0-1.648,1.275.489.489,0,0,0-.133.3c.007.084.087.142.186.218.731.543,1.351,1.535,1.378,4.359,0,.016,0,.033,0,.049a.548.548,0,0,0,.085.377.893.893,0,0,0,.475.257,8.278,8.278,0,0,0,3.36-.1c2.786-.626,4.993-.368,6.63.673a7.576,7.576,0,0,1,3.117,4.962H44.324C41.786,52.757,40.711,47.523,41.208,43a8.01,8.01,0,0,1,.239-1.269l-2.29-2.222A16.111,16.111,0,1,1,42.906,35.4Zm.928,3.285L41.9,36.807a16.223,16.223,0,0,1-1.445,1.584l3.428,3.327Zm8.118,12.4,3.027-3.118a.534.534,0,0,0-.007-.754h0l-8.386-8.139a.536.536,0,0,0-.754.011h0L44.345,43.7l0,0a.529.529,0,0,0,.011.749l0,0,8.382,8.139a.537.537,0,0,0,.754-.011ZM29.286,12.344A14.416,14.416,0,1,0,43.7,26.76,14.415,14.415,0,0,0,29.286,12.344Zm0,1.851A12.565,12.565,0,1,1,16.721,26.76,12.564,12.564,0,0,1,29.286,14.2Zm0,1.71A10.854,10.854,0,1,0,40.14,26.76,10.854,10.854,0,0,0,29.286,15.906ZM25.651,26.761,23.193,24.3a2.569,2.569,0,1,1,3.632-3.635l2.462,2.459,2.459-2.459A2.571,2.571,0,0,1,35.383,24.3l-2.462,2.462,2.461,2.459,0,0a2.572,2.572,0,0,1-3.637,3.637l0,0L29.287,30.4l-2.462,2.462a2.571,2.571,0,1,1-3.634-3.637Zm1.814.605L24.4,30.429a.861.861,0,0,0,0,1.217h0a.862.862,0,0,0,1.215,0l3.067-3.067a.855.855,0,0,1,1.21,0l3.062,3.065a.861.861,0,1,0,1.218-1.218l-3.065-3.062a.855.855,0,0,1,0-1.21l3.067-3.067a.862.862,0,0,0,0-1.215h0a.861.861,0,0,0-1.217,0l-3.063,3.064a.855.855,0,0,1-1.209,0l-3.067-3.063,0,0a.857.857,0,0,0-1.212,0l0,0a.857.857,0,0,0,0,1.212l0,0,3.063,3.067a.855.855,0,0,1,0,1.209Z" fill-rule="evenodd"/>
    </g>
  </g>
</svg>
