<svg xmlns="http://www.w3.org/2000/svg" xmlns:xlink="http://www.w3.org/1999/xlink" width="97.533" height="97.533" viewBox="0 0 97.533 97.533">
  <defs>
    <filter id="Trazado_982547" x="0" y="0" width="97.533" height="97.533" filterUnits="userSpaceOnUse">
      <feOffset dy="3" input="SourceAlpha"/>
      <feGaussianBlur stdDeviation="3" result="blur"/>
      <feFlood flood-opacity="0.161"/>
      <feComposite operator="in" in2="blur"/>
      <feComposite in="SourceGraphic"/>
    </filter>
  </defs>
  <g id="Grupo_1221438" data-name="Grupo 1221438" transform="translate(-609.467 -1976)">
    <g id="Grupo_1206297" data-name="Grupo 1206297" transform="translate(618.467 1982)">
      <g id="Grupo_1204177" data-name="Grupo 1204177" transform="translate(0)">
        <g id="Grupo_1203356" data-name="Grupo 1203356" transform="translate(0)">
          <g id="Grupo_1202156" data-name="Grupo 1202156">
            <g id="Grupo_1177900" data-name="Grupo 1177900">
              <g id="Grupo_1172010" data-name="Grupo 1172010">
                <g id="Grupo_1171046" data-name="Grupo 1171046">
                  <g id="Grupo_1148525" data-name="Grupo 1148525">
                    <g transform="matrix(1, 0, 0, 1, -9, -6)" filter="url(#Trazado_982547)">
                      <g id="Trazado_982547-2" data-name="Trazado 982547" transform="translate(9 6)" fill="#f7f4ed">
                        <path d="M 39.7666015625 78.033203125 C 34.59997940063477 78.033203125 29.58870124816895 77.02164459228516 24.87196731567383 75.02663421630859 C 20.31538963317871 73.099365234375 16.22284507751465 70.34000396728516 12.70802402496338 66.82518005371094 C 9.193202018737793 63.31035614013672 6.433835029602051 59.21781158447266 4.506568431854248 54.66123580932617 C 2.511557102203369 49.94449996948242 1.500001549720764 44.93322372436523 1.500001549720764 39.7666015625 C 1.500001549720764 34.59997940063477 2.511557102203369 29.58870124816895 4.506568431854248 24.87196731567383 C 6.433835029602051 20.31538963317871 9.193202018737793 16.22284507751465 12.70802402496338 12.70802402496338 C 16.22284507751465 9.193202018737793 20.31538963317871 6.433835029602051 24.87196731567383 4.506568431854248 C 29.58870124816895 2.511557102203369 34.59997940063477 1.500001549720764 39.7666015625 1.500001549720764 C 44.93322372436523 1.500001549720764 49.94449996948242 2.511557102203369 54.66123580932617 4.506568431854248 C 59.21781158447266 6.433835029602051 63.31035614013672 9.193202018737793 66.82518005371094 12.70802402496338 C 70.34000396728516 16.22284507751465 73.099365234375 20.31538963317871 75.02663421630859 24.87196731567383 C 77.02164459228516 29.58870124816895 78.033203125 34.59997940063477 78.033203125 39.7666015625 C 78.033203125 44.93322372436523 77.02164459228516 49.94449996948242 75.02663421630859 54.66123580932617 C 73.099365234375 59.21781158447266 70.34000396728516 63.31035614013672 66.82518005371094 66.82518005371094 C 63.31035614013672 70.34000396728516 59.21781158447266 73.099365234375 54.66123580932617 75.02663421630859 C 49.94449996948242 77.02164459228516 44.93322372436523 78.033203125 39.7666015625 78.033203125 Z" stroke="none"/>
                        <path d="M 39.7666015625 3 C 34.80181503295898 3 29.98714065551758 3.971687316894531 25.45630264282227 5.888076782226562 C 21.07851409912109 7.739715576171875 17.146240234375 10.39113616943359 13.76869201660156 13.76869201660156 C 10.39113616943359 17.146240234375 7.739715576171875 21.07851409912109 5.888076782226562 25.45630264282227 C 3.971687316894531 29.98714065551758 3 34.80181503295898 3 39.7666015625 C 3 44.73138809204102 3.971687316894531 49.54606628417969 5.888076782226562 54.076904296875 C 7.739715576171875 58.45468902587891 10.39113616943359 62.386962890625 13.76869201660156 65.76451110839844 C 17.146240234375 69.14206695556641 21.07851409912109 71.79348754882812 25.45630264282227 73.64512634277344 C 29.98714065551758 75.56151580810547 34.80181503295898 76.533203125 39.7666015625 76.533203125 C 44.73138809204102 76.533203125 49.54606628417969 75.56151580810547 54.076904296875 73.64512634277344 C 58.45468902587891 71.79348754882812 62.386962890625 69.14206695556641 65.76451110839844 65.76451110839844 C 69.14206695556641 62.386962890625 71.79348754882812 58.45468902587891 73.64512634277344 54.076904296875 C 75.56151580810547 49.54606628417969 76.533203125 44.73138809204102 76.533203125 39.7666015625 C 76.533203125 34.80181503295898 75.56151580810547 29.98714065551758 73.64512634277344 25.45630264282227 C 71.79348754882812 21.07851409912109 69.14206695556641 17.146240234375 65.76451110839844 13.76869201660156 C 62.386962890625 10.39113616943359 58.45468902587891 7.739715576171875 54.076904296875 5.888076782226562 C 49.54606628417969 3.971687316894531 44.73138809204102 3 39.7666015625 3 M 39.7666015625 0 C 61.72908782958984 0 79.533203125 17.80411529541016 79.533203125 39.7666015625 C 79.533203125 61.72908782958984 61.72908782958984 79.533203125 39.7666015625 79.533203125 C 17.80411529541016 79.533203125 0 61.72908782958984 0 39.7666015625 C 0 17.80411529541016 17.80411529541016 0 39.7666015625 0 Z" stroke="none" fill="#655531"/>
                      </g>
                    </g>
                  </g>
                </g>
              </g>
            </g>
          </g>
        </g>
      </g>
    </g>
    <g id="ley_2_" data-name="ley (2)" transform="translate(629.435 1963.598)">
      <g id="Grupo_1221434" data-name="Grupo 1221434" transform="translate(0.844 30.127)">
        <g id="Grupo_1221430" data-name="Grupo 1221430" transform="translate(0 19.901)">
          <g id="Grupo_1221428" data-name="Grupo 1221428" transform="translate(0 6.624)">
            <path id="Trazado_1170823" data-name="Trazado 1170823" d="M30.3,275.36l-2.8-2.8L8.47,290.133a3.014,3.014,0,1,0,4.259,4.259Z" transform="translate(-7.5 -272.564)" fill="#873f30"/>
            <path id="Trazado_1170824" data-name="Trazado 1170824" d="M13.812,301.263a3.015,3.015,0,0,1-4.261,0,2.984,2.984,0,0,1-.735-1.2,3.009,3.009,0,0,0,3.058-.732c.029-.029.058-.06.086-.089l17.57-19.032,1.936,1.936L13.9,301.175C13.868,301.205,13.84,301.235,13.812,301.263Z" transform="translate(-8.668 -279.347)" fill="#6c3328"/>
          </g>
          <path id="Trazado_1170825" data-name="Trazado 1170825" d="M183.838,213.677l-6.438,7.679,2.63,2.63,7.679-6.438Z" transform="translate(-158.287 -213.677)" fill="#873f30"/>
          <path id="Trazado_1170826" data-name="Trazado 1170826" d="M192.01,213.677l-2.08,2.482.624.624a1.176,1.176,0,0,1,0,1.664l-3.946,3.946,1.594,1.594,7.679-6.438Z" transform="translate(-166.46 -213.677)" fill="#6c3328"/>
          <g id="Grupo_1221429" data-name="Grupo 1221429" transform="translate(17.072 6.017)">
            <path id="Trazado_1170827" data-name="Trazado 1170827" d="M162.369,272.941l-2.553-2.553a1.89,1.89,0,1,1,2.673-2.673l2.553,2.553a1.89,1.89,0,0,1-2.673,2.673Z" transform="translate(-159.262 -267.162)" fill="#ba5d4f"/>
            <path id="Trazado_1170828" data-name="Trazado 1170828" d="M174.277,282.184a1.89,1.89,0,0,1-2.673,0l-1.935-1.935a1.89,1.89,0,1,0,2.673-2.673l1.935,1.935A1.889,1.889,0,0,1,174.277,282.184Z" transform="translate(-168.498 -276.405)" fill="#a34f41"/>
          </g>
        </g>
        <g id="Grupo_1221431" data-name="Grupo 1221431" transform="translate(19.987 2.349)">
          <path id="Trazado_1170829" data-name="Trazado 1170829" d="M0,0H8.018V12.587H0Z" transform="translate(8.899 0) rotate(45)" fill="#ba5d4f"/>
          <path id="Trazado_1170830" data-name="Trazado 1170830" d="M0,0H8.018V12.587H0Z" transform="translate(18.085 26.993) rotate(-135)" fill="#a34f41"/>
        </g>
        <g id="Grupo_1221433" data-name="Grupo 1221433" transform="translate(17.635 0)">
          <path id="Trazado_1170831" data-name="Trazado 1170831" d="M165.025,49.974l-.2-.2a1.912,1.912,0,0,1,0-2.7l9.741-9.741a1.912,1.912,0,0,1,2.7,0l.2.2a1.912,1.912,0,0,1,0,2.7l-9.741,9.741A1.912,1.912,0,0,1,165.025,49.974Z" transform="translate(-164.268 -36.772)" fill="#873f30"/>
          <path id="Trazado_1170832" data-name="Trazado 1170832" d="M324.176,209.125l.2.2a1.912,1.912,0,0,0,2.7,0l9.741-9.741a1.912,1.912,0,0,0,0-2.7l-.2-.2a1.912,1.912,0,0,0-2.7,0l-9.741,9.741A1.912,1.912,0,0,0,324.176,209.125Z" transform="translate(-305.69 -178.195)" fill="#6c3328"/>
          <g id="Grupo_1221432" data-name="Grupo 1221432" transform="translate(4.923 4.923)">
            <path id="Trazado_1170833" data-name="Trazado 1170833" d="M0,0H9V19.011H0Z" transform="translate(14.457 1.012) rotate(45)" fill="#fcc16d"/>
            <path id="Trazado_1170834" data-name="Trazado 1170834" d="M0,0H19.011V4.557H0Z" transform="translate(4.155 17.604) rotate(-45)" fill="#fca62f"/>
            <path id="Trazado_1170835" data-name="Trazado 1170835" d="M222.517,81.278l-1.56-.638a1.434,1.434,0,0,0-1.557.313L208.45,91.9a1.434,1.434,0,0,0-.313,1.557l.638,1.56a.956.956,0,0,0,1.561.314l12.5-12.5A.956.956,0,0,0,222.517,81.278Z" transform="translate(-208.03 -80.534)" fill="#873f30"/>
            <path id="Trazado_1170836" data-name="Trazado 1170836" d="M282.455,141.216l.638,1.56a1.434,1.434,0,0,1-.313,1.557l-10.951,10.951a1.434,1.434,0,0,1-1.557.313l-1.56-.638a.956.956,0,0,1-.314-1.561l12.5-12.5A.956.956,0,0,1,282.455,141.216Z" transform="translate(-261.358 -133.862)" fill="#6c3328"/>
          </g>
        </g>
      </g>
      <g id="Grupo_1221437" data-name="Grupo 1221437" transform="translate(0 29.285)">
        <g id="Grupo_1221435" data-name="Grupo 1221435" transform="translate(27.052 39.292)">
          <path id="Trazado_1170837" data-name="Trazado 1170837" d="M263.7,383.041h-23.22v-3.259a1.218,1.218,0,0,1,1.218-1.218h20.784a1.218,1.218,0,0,1,1.218,1.218Z" transform="translate(-240.477 -378.564)" fill="#ba5d4f"/>
          <path id="Trazado_1170838" data-name="Trazado 1170838" d="M417.174,379.784v3.258h-2.548v-3.258a1.219,1.219,0,0,0-1.218-1.218h2.548A1.219,1.219,0,0,1,417.174,379.784Z" transform="translate(-393.954 -378.566)" fill="#a34f41"/>
        </g>
        <path id="Trazado_1170839" data-name="Trazado 1170839" d="M218.82,412.266H185.365a1.218,1.218,0,0,1-1.107-1.725l1.183-2.582a6.29,6.29,0,0,1,5.719-3.671h21.866a6.29,6.29,0,0,1,5.719,3.671l1.183,2.582A1.218,1.218,0,0,1,218.82,412.266Z" transform="translate(-163.43 -362.102)" fill="#873f30"/>
        <path id="Trazado_1170840" data-name="Trazado 1170840" d="M420.976,412.263h-3.257a1.218,1.218,0,0,0,1.107-1.725l-1.183-2.584a6.292,6.292,0,0,0-5.719-3.671h3.256a6.292,6.292,0,0,1,5.72,3.671l1.183,2.584A1.218,1.218,0,0,1,420.976,412.263Z" transform="translate(-365.586 -362.098)" fill="#6c3328"/>
        <g id="Grupo_1221436" data-name="Grupo 1221436" transform="translate(0)">
          <path id="Trazado_1170841" data-name="Trazado 1170841" d="M39.292,36.324a1.8,1.8,0,0,0-1.083-1.311l-1.56-.638a2.273,2.273,0,0,0-2.472.5l-.429.429-1.3-1.3a2.758,2.758,0,0,0-.168-3.712l-.2-.2a2.759,2.759,0,0,0-3.9,0l-9.741,9.741a2.759,2.759,0,0,0,0,3.9l.2.2a2.755,2.755,0,0,0,3.712.168l1.3,1.3-.429.429a2.272,2.272,0,0,0-.5,2.472l.638,1.559a1.8,1.8,0,0,0,1.188,1.054L20.8,55.389A2.729,2.729,0,0,0,17.23,58.84L1.241,73.6a3.857,3.857,0,0,0,2.614,6.692h.08a3.825,3.825,0,0,0,2.757-1.24L14.7,70.378a.844.844,0,0,0-1.24-1.145L5.452,77.907a2.17,2.17,0,1,1-3.066-3.066L18.225,60.219l1.849,1.849-3.914,4.24a.844.844,0,1,0,1.24,1.145l4.049-4.386a2.735,2.735,0,0,0,3.457-3.573l4.477-3.753a1.8,1.8,0,0,0,1.054,1.188l1.56.638a2.273,2.273,0,0,0,2.472-.5l.429-.429,1.3,1.3a2.758,2.758,0,0,0,.168,3.712l.2.2a2.759,2.759,0,0,0,3.9,0L50.2,52.11a2.759,2.759,0,0,0,0-3.9l-.2-.2a2.759,2.759,0,0,0-3.712-.168l-1.3-1.3.429-.429a2.272,2.272,0,0,0,.5-2.472l-.638-1.56A1.8,1.8,0,0,0,43.969,41c-.035-.057-4.619-4.642-4.678-4.677ZM25.784,52.068l2.441,2.441-4.34,3.639-1.739-1.739ZM48.057,48.9a1.062,1.062,0,0,1,.755.313l.2.2a1.07,1.07,0,0,1,0,1.511l-9.741,9.741a1.069,1.069,0,0,1-1.511,0l-.2-.2a1.07,1.07,0,0,1,0-1.511L47.3,49.209a1.062,1.062,0,0,1,.755-.313Zm-2.965.136L37.385,56.74,36.09,55.446,43.8,47.738Zm-.866-4.109L33.275,55.874a.589.589,0,0,1-.641.129l-1.56-.638a.112.112,0,0,1-.037-.183l12.5-12.5a.1.1,0,0,1,.076-.033l.025,0a.1.1,0,0,1,.082.068l.638,1.56a.589.589,0,0,1-.129.641Zm-2.009-3.307L29.968,53.866l-3.541-3.541L38.676,38.075Zm-21.63,1.428a1.061,1.061,0,0,1-.755-.313h0l-.2-.2a1.069,1.069,0,0,1,0-1.511l9.741-9.741a1.069,1.069,0,0,1,1.511,0l.2.2a1.068,1.068,0,0,1,0,1.511l-9.741,9.741a1.062,1.062,0,0,1-.755.313Zm3.831,3.973,6.023-6.023A.844.844,0,0,0,29.248,39.8l-4.4,4.4-1.294-1.294L31.261,35.2l1.294,1.294-.491.491a.844.844,0,1,0,1.193,1.193l2.113-2.113a.588.588,0,0,1,.641-.129l1.56.638a.112.112,0,0,1,.037.183l-12.5,12.5a.112.112,0,0,1-.183-.037l-.638-1.56a.589.589,0,0,1,.129-.641ZM19.066,57.194a1.048,1.048,0,0,1,1.48,0L23.1,59.747a1.046,1.046,0,0,1-1.48,1.48l-2.553-2.553A1.048,1.048,0,0,1,19.066,57.194Z" transform="translate(0 -29.285)"/>
          <path id="Trazado_1170842" data-name="Trazado 1170842" d="M212.856,378.121a7.156,7.156,0,0,0-4.966-4v-1a2.064,2.064,0,0,0-2.062-2.062H191.374a.844.844,0,0,0,0,1.687h14.455a.375.375,0,0,1,.374.374v.832H184.671v-.832a.375.375,0,0,1,.374-.374h2.348a.844.844,0,0,0,0-1.687h-2.348a2.064,2.064,0,0,0-2.062,2.062v1a7.156,7.156,0,0,0-4.966,4l-1.183,2.582a2.062,2.062,0,0,0,1.875,2.92h33.455a2.062,2.062,0,0,0,1.875-2.92Zm-.377,3.643a.365.365,0,0,1-.315.172H178.71a.374.374,0,0,1-.34-.53l1.183-2.582a5.461,5.461,0,0,1,4.952-3.179H206.37a5.461,5.461,0,0,1,4.952,3.179l1.183,2.582A.364.364,0,0,1,212.48,381.764Z" transform="translate(-156.775 -332.616)"/>
          <path id="Trazado_1170843" data-name="Trazado 1170843" d="M469.956,340.162a.842.842,0,0,0,.595-.245l.913-.908a.844.844,0,1,0-1.19-1.2l-.913.908a.844.844,0,0,0,.595,1.442Z" transform="translate(-416.34 -302.887)"/>
          <path id="Trazado_1170844" data-name="Trazado 1170844" d="M445.778,318.272l-.317,1.263a.844.844,0,1,0,1.637.411l.317-1.263a.844.844,0,0,0-1.637-.411Z" transform="translate(-395.327 -285.196)"/>
          <path id="Trazado_1170845" data-name="Trazado 1170845" d="M485.78,368a.842.842,0,0,0,1.02.619l1.265-.309a.844.844,0,0,0-.4-1.639l-1.265.309A.844.844,0,0,0,485.78,368Z" transform="translate(-431.111 -328.697)"/>
        </g>
      </g>
    </g>
  </g>
</svg>
