<svg xmlns="http://www.w3.org/2000/svg" xmlns:xlink="http://www.w3.org/1999/xlink" width="97.533" height="97.533" viewBox="0 0 97.533 97.533">
  <defs>
    <filter id="Trazado_982547" x="0" y="0" width="97.533" height="97.533" filterUnits="userSpaceOnUse">
      <feOffset dy="3" input="SourceAlpha"/>
      <feGaussianBlur stdDeviation="3" result="blur"/>
      <feFlood flood-opacity="0.161"/>
      <feComposite operator="in" in2="blur"/>
      <feComposite in="SourceGraphic"/>
    </filter>
  </defs>
  <g id="Grupo_1221442" data-name="Grupo 1221442" transform="translate(-609.5 -2129)">
    <g id="Grupo_1206298" data-name="Grupo 1206298" transform="translate(618.5 2135)">
      <g id="Grupo_1204178" data-name="Grupo 1204178" transform="translate(0)">
        <g id="Grupo_1203357" data-name="Grupo 1203357" transform="translate(0)">
          <g id="Grupo_1202156" data-name="Grupo 1202156">
            <g id="Grupo_1177900" data-name="Grupo 1177900">
              <g id="Grupo_1172010" data-name="Grupo 1172010">
                <g id="Grupo_1171046" data-name="Grupo 1171046">
                  <g id="Grupo_1148525" data-name="Grupo 1148525">
                    <g transform="matrix(1, 0, 0, 1, -9, -6)" filter="url(#Trazado_982547)">
                      <g id="Trazado_982547-2" data-name="Trazado 982547" transform="translate(9 6)" fill="#f7f4ed">
                        <path d="M 39.7666015625 78.033203125 C 34.59997940063477 78.033203125 29.58870124816895 77.02164459228516 24.87196731567383 75.02663421630859 C 20.31538963317871 73.099365234375 16.22284507751465 70.34000396728516 12.70802402496338 66.82518005371094 C 9.193202018737793 63.31035614013672 6.433835029602051 59.21781158447266 4.506568431854248 54.66123580932617 C 2.511557102203369 49.94449996948242 1.500001549720764 44.93322372436523 1.500001549720764 39.7666015625 C 1.500001549720764 34.59997940063477 2.511557102203369 29.58870124816895 4.506568431854248 24.87196731567383 C 6.433835029602051 20.31538963317871 9.193202018737793 16.22284507751465 12.70802402496338 12.70802402496338 C 16.22284507751465 9.193202018737793 20.31538963317871 6.433835029602051 24.87196731567383 4.506568431854248 C 29.58870124816895 2.511557102203369 34.59997940063477 1.500001549720764 39.7666015625 1.500001549720764 C 44.93322372436523 1.500001549720764 49.94449996948242 2.511557102203369 54.66123580932617 4.506568431854248 C 59.21781158447266 6.433835029602051 63.31035614013672 9.193202018737793 66.82518005371094 12.70802402496338 C 70.34000396728516 16.22284507751465 73.099365234375 20.31538963317871 75.02663421630859 24.87196731567383 C 77.02164459228516 29.58870124816895 78.033203125 34.59997940063477 78.033203125 39.7666015625 C 78.033203125 44.93322372436523 77.02164459228516 49.94449996948242 75.02663421630859 54.66123580932617 C 73.099365234375 59.21781158447266 70.34000396728516 63.31035614013672 66.82518005371094 66.82518005371094 C 63.31035614013672 70.34000396728516 59.21781158447266 73.099365234375 54.66123580932617 75.02663421630859 C 49.94449996948242 77.02164459228516 44.93322372436523 78.033203125 39.7666015625 78.033203125 Z" stroke="none"/>
                        <path d="M 39.7666015625 3 C 34.80181503295898 3 29.98714065551758 3.971687316894531 25.45630264282227 5.888076782226562 C 21.07851409912109 7.739715576171875 17.146240234375 10.39113616943359 13.76869201660156 13.76869201660156 C 10.39113616943359 17.146240234375 7.739715576171875 21.07851409912109 5.888076782226562 25.45630264282227 C 3.971687316894531 29.98714065551758 3 34.80181503295898 3 39.7666015625 C 3 44.73138809204102 3.971687316894531 49.54606628417969 5.888076782226562 54.076904296875 C 7.739715576171875 58.45468902587891 10.39113616943359 62.386962890625 13.76869201660156 65.76451110839844 C 17.146240234375 69.14206695556641 21.07851409912109 71.79348754882812 25.45630264282227 73.64512634277344 C 29.98714065551758 75.56151580810547 34.80181503295898 76.533203125 39.7666015625 76.533203125 C 44.73138809204102 76.533203125 49.54606628417969 75.56151580810547 54.076904296875 73.64512634277344 C 58.45468902587891 71.79348754882812 62.386962890625 69.14206695556641 65.76451110839844 65.76451110839844 C 69.14206695556641 62.386962890625 71.79348754882812 58.45468902587891 73.64512634277344 54.076904296875 C 75.56151580810547 49.54606628417969 76.533203125 44.73138809204102 76.533203125 39.7666015625 C 76.533203125 34.80181503295898 75.56151580810547 29.98714065551758 73.64512634277344 25.45630264282227 C 71.79348754882812 21.07851409912109 69.14206695556641 17.146240234375 65.76451110839844 13.76869201660156 C 62.386962890625 10.39113616943359 58.45468902587891 7.739715576171875 54.076904296875 5.888076782226562 C 49.54606628417969 3.971687316894531 44.73138809204102 3 39.7666015625 3 M 39.7666015625 0 C 61.72908782958984 0 79.533203125 17.80411529541016 79.533203125 39.7666015625 C 79.533203125 61.72908782958984 61.72908782958984 79.533203125 39.7666015625 79.533203125 C 17.80411529541016 79.533203125 0 61.72908782958984 0 39.7666015625 C 0 17.80411529541016 17.80411529541016 0 39.7666015625 0 Z" stroke="none" fill="#655531"/>
                      </g>
                    </g>
                  </g>
                </g>
              </g>
            </g>
          </g>
        </g>
      </g>
    </g>
    <g id="sala-de-justicia" transform="translate(631.052 2147.552)">
      <g id="Grupo_1221440" data-name="Grupo 1221440" transform="translate(1.846 1.846)">
        <path id="Trazado_1170846" data-name="Trazado 1170846" d="M15.551,41.812a6.828,6.828,0,0,0-2.249-1.3l-1.226,2.249a1.575,1.575,0,0,1-2.621,0L8.228,40.51A5.976,5.976,0,0,0,4,46v.846H17.53V46A5.572,5.572,0,0,0,15.551,41.812Z" transform="translate(-2.309 -7.944)" fill="#ccd1d9"/>
        <path id="Trazado_1170847" data-name="Trazado 1170847" d="M55.551,41.812a6.828,6.828,0,0,0-2.249-1.3l-1.226,2.249a1.575,1.575,0,0,1-2.621,0L48.228,40.51A5.976,5.976,0,0,0,44,46v.846H57.53V46A5.572,5.572,0,0,0,55.551,41.812Z" transform="translate(-8.483 -7.944)" fill="#fcd770"/>
        <path id="Trazado_1170848" data-name="Trazado 1170848" d="M35.551,41.812a6.828,6.828,0,0,0-2.249-1.3l-1.226,2.249a1.575,1.575,0,0,1-2.621,0L28.228,40.51A5.976,5.976,0,0,0,24,46v.846H37.53V46A5.572,5.572,0,0,0,35.551,41.812Z" transform="translate(-5.396 -7.944)" fill="#b4dd7f"/>
        <g id="Grupo_1221439" data-name="Grupo 1221439" transform="translate(4.228 27.06)">
          <path id="Trazado_1170849" data-name="Trazado 1170849" d="M54.074,40.431l-1.226,2.249a1.575,1.575,0,0,1-2.621,0L49,40.431a7.677,7.677,0,0,1,5.074,0Z" transform="translate(-13.483 -34.926)" fill="#f0d0b4"/>
          <path id="Trazado_1170850" data-name="Trazado 1170850" d="M34.074,40.431l-1.226,2.249a1.575,1.575,0,0,1-2.621,0L29,40.431a7.677,7.677,0,0,1,5.074,0Z" transform="translate(-10.396 -34.926)" fill="#f0d0b4"/>
          <path id="Trazado_1170851" data-name="Trazado 1170851" d="M14.074,40.431l-1.226,2.249a1.575,1.575,0,0,1-2.621,0L9,40.431a7.677,7.677,0,0,1,5.074,0Z" transform="translate(-7.309 -34.926)" fill="#f0d0b4"/>
          <path id="Trazado_1170852" data-name="Trazado 1170852" d="M35.372,34a3.985,3.985,0,0,1,.085.846,4.228,4.228,0,0,1-8.456,0A3.985,3.985,0,0,1,27.085,34Z" transform="translate(-10.087 -34)" fill="#f0d0b4"/>
          <path id="Trazado_1170853" data-name="Trazado 1170853" d="M55.456,34.846a4.228,4.228,0,0,1-8.456,0A3.985,3.985,0,0,1,47.085,34h8.287a3.985,3.985,0,0,1,.085.846Z" transform="translate(-13.174 -34)" fill="#f0d0b4"/>
          <path id="Trazado_1170854" data-name="Trazado 1170854" d="M15.456,34.846a4.228,4.228,0,0,1-8.456,0A3.985,3.985,0,0,1,7.085,34h8.287A3.985,3.985,0,0,1,15.456,34.846Z" transform="translate(-7 -34)" fill="#f0d0b4"/>
        </g>
        <path id="Trazado_1170855" data-name="Trazado 1170855" d="M15.387,33.383H7.1a4.229,4.229,0,0,1,8.287,0Z" transform="translate(-2.787 -6.322)" fill="#b27946"/>
        <path id="Trazado_1170856" data-name="Trazado 1170856" d="M55.387,33.383H47.1a4.229,4.229,0,0,1,8.287,0Z" transform="translate(-8.962 -6.322)" fill="#b27946"/>
        <path id="Trazado_1170857" data-name="Trazado 1170857" d="M35.387,33.383H27.1a4.229,4.229,0,0,1,8.287,0Z" transform="translate(-5.874 -6.322)" fill="#b27946"/>
        <path id="Trazado_1170858" data-name="Trazado 1170858" d="M51.356,52v8.456H46.282V55.383H41.208v5.074H36.134V55.383H19.222v5.074H14.148V55.383H9.074v5.074H4V52Z" transform="translate(-2.309 -9.718)" fill="#d3a06c"/>
        <path id="Trazado_1170859" data-name="Trazado 1170859" d="M10,56h5.074v5.074H10Z" transform="translate(-3.235 -10.335)" fill="#ccd1d9"/>
        <path id="Trazado_1170860" data-name="Trazado 1170860" d="M22,56H38.913v5.074H22Z" transform="translate(-5.087 -10.335)" fill="#ccd1d9"/>
        <path id="Trazado_1170861" data-name="Trazado 1170861" d="M48,56h5.074v5.074H48Z" transform="translate(-9.101 -10.335)" fill="#ccd1d9"/>
        <path id="Trazado_1170862" data-name="Trazado 1170862" d="M52.738,48v3.383H2V48H52.738Z" transform="translate(-2 -9.101)" fill="#b27946"/>
        <path id="Trazado_1170863" data-name="Trazado 1170863" d="M52.738,22.846v1.691a.848.848,0,0,1-.846.846H2.846A.848.848,0,0,1,2,24.537V22.846A.848.848,0,0,1,2.846,22H51.893A.848.848,0,0,1,52.738,22.846Z" transform="translate(-2 -5.087)" fill="#b27946"/>
        <path id="Trazado_1170864" data-name="Trazado 1170864" d="M48,2H58.148V8.765H48Z" transform="translate(-9.101 -2)" fill="#fcd770"/>
        <path id="Trazado_1170865" data-name="Trazado 1170865" d="M4,2H14.148V8.765H4Z" transform="translate(-2.309 -2)" fill="#fcd770"/>
        <path id="Trazado_1170866" data-name="Trazado 1170866" d="M30.765,17.537v3.383H24V18.966a3.591,3.591,0,0,1,.863-2.275,1.447,1.447,0,0,1,.152-.169,3.389,3.389,0,0,1,1.607-.9L29.074,15v.846A1.7,1.7,0,0,0,30.765,17.537Z" transform="translate(-5.396 -4.007)" fill="#ccd1d9"/>
        <path id="Trazado_1170867" data-name="Trazado 1170867" d="M38.765,18.966v1.953H32V17.537a1.7,1.7,0,0,0,1.691-1.691V15l2.452.617a3.389,3.389,0,0,1,1.607.9,1.447,1.447,0,0,1,.152.169A3.418,3.418,0,0,1,38.765,18.966Z" transform="translate(-6.631 -4.007)" fill="#ccd1d9"/>
        <path id="Trazado_1170868" data-name="Trazado 1170868" d="M34.765,7.691V9.383a3.383,3.383,0,0,1-6.765,0V7.691A1.7,1.7,0,0,1,29.691,6h3.383A1.7,1.7,0,0,1,34.765,7.691Z" transform="translate(-6.013 -2.617)" fill="#f0d0b4"/>
        <path id="Trazado_1170869" data-name="Trazado 1170869" d="M30,14.762v-1.3a3.36,3.36,0,0,0,3.383,0v2.148A1.7,1.7,0,0,1,31.691,17.3,1.7,1.7,0,0,1,30,15.608Z" transform="translate(-6.322 -3.769)" fill="#f0d0b4"/>
        <path id="Trazado_1170870" data-name="Trazado 1170870" d="M27.074,8.765a3.366,3.366,0,0,0,1.691,2.926v1.3l-2.452.617a3.389,3.389,0,0,0-1.607.9,1.447,1.447,0,0,0-.152.169h-.008a2.821,2.821,0,0,1-.524-.051,2.539,2.539,0,0,1-.33-4.879V7.074A5.074,5.074,0,0,1,28.765,2h3.383a5.076,5.076,0,0,1,2.266.533,4.937,4.937,0,0,1,1.793,1.5,5.067,5.067,0,0,1,1.015,3.044V9.755a2.539,2.539,0,0,1-.33,4.879,2.82,2.82,0,0,1-.524.051h-.008a1.447,1.447,0,0,0-.152-.169,3.389,3.389,0,0,0-1.607-.9l-2.452-.617v-1.3a3.366,3.366,0,0,0,1.691-2.926V7.074a1.7,1.7,0,0,0-1.691-1.691H28.765a1.7,1.7,0,0,0-1.691,1.691Z" transform="translate(-5.087 -2)" fill="#656d78"/>
      </g>
      <g id="Grupo_1221441" data-name="Grupo 1221441" transform="translate(1 1)">
        <path id="Trazado_1170871" data-name="Trazado 1170871" d="M51.738,17.913V1H39.9V9.456H50.047v8.456H34.826v-1.1a4.29,4.29,0,0,0-.359-1.712,3.378,3.378,0,0,0,.359-6.036V6.919A5.919,5.919,0,0,0,28.906,1H25.524A5.919,5.919,0,0,0,19.6,6.919V9.061a3.378,3.378,0,0,0,.359,6.036,4.287,4.287,0,0,0-.359,1.712v1.1H14.53V1H2.691V9.456H12.839v8.456H2.691A1.693,1.693,0,0,0,1,19.6V21.3a1.693,1.693,0,0,0,1.691,1.691H51.738A1.693,1.693,0,0,0,53.43,21.3V19.6A1.693,1.693,0,0,0,51.738,17.913ZM41.591,7.765V2.691h8.456V7.765Zm-37.208,0V2.691h8.456V7.765ZM28.06,17.913V16.066a2.526,2.526,0,0,0,1.668-2.15l1.426.356a2.615,2.615,0,0,1,1.98,2.537v1.1Zm-.846-6.765a2.54,2.54,0,0,1-2.537-2.537V6.919a.847.847,0,0,1,.846-.846h3.383a.847.847,0,0,1,.846.846V8.611A2.54,2.54,0,0,1,27.215,11.148Zm0,1.691a4.224,4.224,0,0,0,.846-.085v.931a.846.846,0,1,1-1.691,0v-.931A4.224,4.224,0,0,0,27.215,12.839ZM20.731,10.4l.564-.2V6.919a4.228,4.228,0,0,1,4.228-4.228h3.383a4.228,4.228,0,0,1,4.228,4.228V10.2l.564.2a1.692,1.692,0,0,1-.211,3.251c-.016,0-.031,0-.048,0a4.3,4.3,0,0,0-1.875-1.023l-1.812-.452v-.207a4.211,4.211,0,0,0,1.691-3.361V6.919a2.54,2.54,0,0,0-2.537-2.537H25.524a2.54,2.54,0,0,0-2.537,2.537V8.611a4.208,4.208,0,0,0,1.691,3.361v.207l-1.812.453a4.3,4.3,0,0,0-1.877,1.025l-.046-.007a1.692,1.692,0,0,1-.211-3.251Zm.564,6.411a2.614,2.614,0,0,1,1.981-2.537l1.425-.356a2.527,2.527,0,0,0,1.668,2.15v1.847H21.3ZM2.691,21.3V19.6H51.738V21.3Z" transform="translate(-1 -1)"/>
        <path id="Trazado_1170872" data-name="Trazado 1170872" d="M47.256,38.061a5.074,5.074,0,1,0-6.256,0,6.784,6.784,0,0,0-4.483,6.16H34.826a6.784,6.784,0,0,0-4.483-6.16,5.074,5.074,0,1,0-6.256,0,6.784,6.784,0,0,0-4.483,6.16H17.913a6.784,6.784,0,0,0-4.483-6.16,5.074,5.074,0,1,0-6.256,0,6.784,6.784,0,0,0-4.483,6.16H1V49.3H2.691v8.456H51.738V49.3H53.43V44.222H51.738A6.784,6.784,0,0,0,47.256,38.061Zm2.791,6.16H44.973V42.356a2.507,2.507,0,0,0,1.212-.972l.856-1.575A5.008,5.008,0,0,1,50.047,44.222Zm-5.919-5.074a6.869,6.869,0,0,1,1.284.123l-.672,1.241a.811.811,0,0,1-1.183.065l-.71-1.307a6.923,6.923,0,0,1,1.282-.123Zm0-8.456a3.372,3.372,0,0,1,2.912,1.691H41.216A3.369,3.369,0,0,1,44.128,30.691Zm-3.383,3.383H47.51a3.383,3.383,0,0,1-6.765,0Zm.47,5.736.895,1.641a2.4,2.4,0,0,0,1.173.909v1.862H38.209A5.006,5.006,0,0,1,41.215,39.81Zm-8.081,4.412H28.06V42.356a2.507,2.507,0,0,0,1.212-.972l.856-1.575A5.008,5.008,0,0,1,33.134,44.222Zm-5.919-5.074a6.869,6.869,0,0,1,1.284.123l-.672,1.241a.811.811,0,0,1-1.183.065l-.71-1.307a6.923,6.923,0,0,1,1.282-.123Zm0-8.456a3.372,3.372,0,0,1,2.912,1.691H24.3A3.369,3.369,0,0,1,27.215,30.691Zm-3.383,3.383H30.6a3.383,3.383,0,0,1-6.765,0Zm.47,5.736L25.2,41.45a2.4,2.4,0,0,0,1.173.909v1.862H21.3A5.006,5.006,0,0,1,24.3,39.81Zm-8.081,4.412H11.148V42.356a2.507,2.507,0,0,0,1.212-.972l.856-1.575A5.008,5.008,0,0,1,16.222,44.222ZM10.3,39.148a6.869,6.869,0,0,1,1.284.123l-.672,1.241a.811.811,0,0,1-1.183.065L9.02,39.27a6.923,6.923,0,0,1,1.282-.123Zm0-8.456a3.372,3.372,0,0,1,2.912,1.691H7.39A3.372,3.372,0,0,1,10.3,30.691ZM6.919,34.074h6.765a3.383,3.383,0,1,1-6.765,0Zm.47,5.736.895,1.641a2.4,2.4,0,0,0,1.173.909v1.862H4.383A5.008,5.008,0,0,1,7.39,39.81ZM12.839,56.06H9.456V52.678h3.383Zm21.987,0H19.6V52.678H34.826Zm10.148,0H41.591V52.678h3.383Zm5.074,0H46.665V50.987H39.9V56.06H36.517V50.987h-18.6V56.06H14.53V50.987H7.765V56.06H4.383V49.3H50.047ZM51.738,47.6H2.691V45.913H51.738Z" transform="translate(-1 -5.322)"/>
      </g>
    </g>
  </g>
</svg>
