<svg xmlns="http://www.w3.org/2000/svg" xmlns:xlink="http://www.w3.org/1999/xlink" width="113" height="113" viewBox="0 0 113 113">
  <defs>
    <filter id="Trazado_982547" x="0" y="0" width="113" height="113" filterUnits="userSpaceOnUse">
      <feOffset dy="3" input="SourceAlpha"/>
      <feGaussianBlur stdDeviation="3" result="blur"/>
      <feFlood flood-opacity="0.161"/>
      <feComposite operator="in" in2="blur"/>
      <feComposite in="SourceGraphic"/>
    </filter>
  </defs>
  <g id="Grupo_1221176" data-name="Grupo 1221176" transform="translate(-271 -1133.491)">
    <g id="Grupo_1220488" data-name="Grupo 1220488" transform="translate(-0.425 190.509)">
      <g id="Grupo_1219621" data-name="Grupo 1219621" transform="translate(0 -5515.518)">
        <g id="Grupo_1203672" data-name="Grupo 1203672" transform="translate(-0.575 557.5)">
          <g id="Grupo_1202432" data-name="Grupo 1202432" transform="translate(0 1255.486)">
            <g id="Grupo_1202055" data-name="Grupo 1202055" transform="translate(0 3240.511)">
              <g id="Grupo_1177900" data-name="Grupo 1177900" transform="translate(281 1411.003)">
                <g id="Grupo_1172010" data-name="Grupo 1172010" transform="translate(0)">
                  <g id="Grupo_1171046" data-name="Grupo 1171046">
                    <g id="Grupo_1148525" data-name="Grupo 1148525">
                      <g transform="matrix(1, 0, 0, 1, -9, -6)" filter="url(#Trazado_982547)">
                        <g id="Trazado_982547-2" data-name="Trazado 982547" transform="translate(9 6)" fill="#f2d944">
                          <path d="M 47.5 93.5 C 41.28937149047852 93.5 35.26533508300781 92.28397369384766 29.59518623352051 89.88570404052734 C 24.11771965026855 87.56893157958984 19.19813346862793 84.25196075439453 14.97309303283691 80.02691650390625 C 10.74804019927979 75.80186462402344 7.431066513061523 70.88229370117188 5.114293098449707 65.40481567382812 C 2.716026782989502 59.73468017578125 1.5 53.71062850952148 1.5 47.5 C 1.5 41.28937149047852 2.716026782989502 35.26533508300781 5.114293098449707 29.59518623352051 C 7.431066513061523 24.11771965026855 10.74804019927979 19.19813346862793 14.97309303283691 14.97309303283691 C 19.19813346862793 10.74804019927979 24.11771965026855 7.431066513061523 29.59518623352051 5.114293098449707 C 35.26533508300781 2.716026782989502 41.28937149047852 1.5 47.5 1.5 C 53.71062850952148 1.5 59.73468017578125 2.716026782989502 65.40481567382812 5.114293098449707 C 70.88229370117188 7.431066513061523 75.80186462402344 10.74804019927979 80.02691650390625 14.97309303283691 C 84.25196075439453 19.19813346862793 87.56893157958984 24.11771965026855 89.88570404052734 29.59518623352051 C 92.28397369384766 35.26533508300781 93.5 41.28937149047852 93.5 47.5 C 93.5 53.71062850952148 92.28397369384766 59.73468017578125 89.88570404052734 65.40481567382812 C 87.56893157958984 70.88229370117188 84.25196075439453 75.80186462402344 80.02691650390625 80.02691650390625 C 75.80186462402344 84.25196075439453 70.88229370117188 87.56893157958984 65.40481567382812 89.88570404052734 C 59.73468017578125 92.28397369384766 53.71062850952148 93.5 47.5 93.5 Z" stroke="none"/>
                          <path d="M 47.5 3 C 41.49121475219727 3 35.66376876831055 4.176155090332031 30.17950439453125 6.495796203613281 C 24.88084411621094 8.736953735351562 20.12152099609375 11.94598388671875 16.03375244140625 16.03375244140625 C 11.94598388671875 20.12152099609375 8.736953735351562 24.88084411621094 6.495796203613281 30.17950439453125 C 4.176155090332031 35.66376876831055 3 41.49121475219727 3 47.5 C 3 53.50878524780273 4.176155090332031 59.33623123168945 6.495796203613281 64.82049560546875 C 8.736953735351562 70.11915588378906 11.94598388671875 74.87847900390625 16.03375244140625 78.96624755859375 C 20.12152099609375 83.05401611328125 24.88084411621094 86.26304626464844 30.17950439453125 88.50419616699219 C 35.66376876831055 90.82384490966797 41.49121475219727 92 47.5 92 C 53.50878524780273 92 59.33623123168945 90.82384490966797 64.82049560546875 88.50419616699219 C 70.11915588378906 86.26304626464844 74.87847900390625 83.05401611328125 78.96624755859375 78.96624755859375 C 83.05401611328125 74.87847900390625 86.26304626464844 70.11915588378906 88.50419616699219 64.82049560546875 C 90.82384490966797 59.33623123168945 92 53.50878524780273 92 47.5 C 92 41.49121475219727 90.82384490966797 35.66376876831055 88.50419616699219 30.17950439453125 C 86.26304626464844 24.88084411621094 83.05401611328125 20.12152099609375 78.96624755859375 16.03375244140625 C 74.87847900390625 11.94598388671875 70.11915588378906 8.736953735351562 64.82049560546875 6.495796203613281 C 59.33623123168945 4.176155090332031 53.50878524780273 3 47.5 3 M 47.5 0 C 73.7335205078125 0 95 21.2664794921875 95 47.5 C 95 73.7335205078125 73.7335205078125 95 47.5 95 C 21.2664794921875 95 0 73.7335205078125 0 47.5 C 0 21.2664794921875 21.2664794921875 0 47.5 0 Z" stroke="none" fill="#ba9c5a"/>
                        </g>
                      </g>
                    </g>
                  </g>
                </g>
              </g>
            </g>
          </g>
        </g>
      </g>
    </g>
    <g id="obediente" transform="translate(284.66 1157.491)">
      <g id="Grupo_1221152" data-name="Grupo 1221152" transform="translate(26.744 0.864)">
        <path id="Trazado_1170066" data-name="Trazado 1170066" d="M153.588,7.5h-36.7a.576.576,0,0,0-.576.576V24.051h3.779a2.824,2.824,0,0,1,.2,5.641v3.5h0a1.152,1.152,0,0,1,.977,1.138v7.153a1.152,1.152,0,0,1-.977,1.138h0v3.5a2.824,2.824,0,0,1-.2,5.641h-3.779V56.5h7.952a1.152,1.152,0,0,1,1.152,1.152v2.293s0,0,0,0h.878A1.152,1.152,0,0,1,127.45,61.1v3.675h26.714V8.076A.576.576,0,0,0,153.588,7.5Z" transform="translate(-116.315 -7.5)" fill="#fff3de"/>
      </g>
      <g id="Grupo_1221153" data-name="Grupo 1221153" transform="translate(26.744 0.864)">
        <path id="Trazado_1170067" data-name="Trazado 1170067" d="M120.094,24.051l.1,0V8.076a.576.576,0,0,1,.576-.576h-3.882a.576.576,0,0,0-.576.576V24.051Z" transform="translate(-116.315 -7.5)" fill="#ffe5c2"/>
        <path id="Trazado_1170068" data-name="Trazado 1170068" d="M120.094,391.63h-3.779v4.729H120.2v-4.731Z" transform="translate(-116.315 -347.362)" fill="#ffe5c2"/>
      </g>
      <g id="Grupo_1221171" data-name="Grupo 1221171" transform="translate(15.942 17.415)">
        <g id="Grupo_1221154" data-name="Grupo 1221154" transform="translate(15.755 11.888)">
          <path id="Trazado_1170069" data-name="Trazado 1170069" d="M159.3,254.29h5.334v3.941H159.3Z" transform="translate(-159.296 -254.29)" fill="#883f2e"/>
          <path id="Trazado_1170070" data-name="Trazado 1170070" d="M237.5,254.29h7.619v3.941H237.5Z" transform="translate(-228.49 -254.29)" fill="#883f2e"/>
        </g>
        <g id="Grupo_1221155" data-name="Grupo 1221155" transform="translate(15.755 13.929)">
          <path id="Trazado_1170071" data-name="Trazado 1170071" d="M159.3,272h5.334v1.9H159.3Z" transform="translate(-159.296 -272)" fill="#6d3326"/>
          <path id="Trazado_1170072" data-name="Trazado 1170072" d="M237.5,272h7.619v1.9H237.5Z" transform="translate(-228.49 -272)" fill="#6d3326"/>
        </g>
        <g id="Grupo_1221156" data-name="Grupo 1221156" transform="translate(32.385 10.968)">
          <path id="Trazado_1170073" data-name="Trazado 1170073" d="M325.027,249.2a2.89,2.89,0,0,1-2.89,2.89H304.273a.657.657,0,0,1-.657-.657v-4.466a.657.657,0,0,1,.657-.657h17.865A2.89,2.89,0,0,1,325.027,249.2Z" transform="translate(-303.616 -246.31)" fill="#ca6e59"/>
        </g>
        <g id="Grupo_1221157" data-name="Grupo 1221157" transform="translate(32.385 10.968)">
          <path id="Trazado_1170074" data-name="Trazado 1170074" d="M307.544,249.616a.657.657,0,0,1-.657-.657V246.31h-2.614a.657.657,0,0,0-.657.657v4.466a.657.657,0,0,0,.657.657h17.865a2.89,2.89,0,0,0,2.86-2.474Z" transform="translate(-303.616 -246.31)" fill="#bb5d4c"/>
        </g>
        <g id="Grupo_1221158" data-name="Grupo 1221158" transform="translate(21.089 10.968)">
          <path id="Trazado_1170075" data-name="Trazado 1170075" d="M209.263,246.887v4.627a.576.576,0,0,1-.576.576h-2.526a.576.576,0,0,1-.576-.576v-4.627a.576.576,0,0,1,.576-.576h2.526A.576.576,0,0,1,209.263,246.887Z" transform="translate(-205.585 -246.311)" fill="#ca6e59"/>
        </g>
        <g id="Grupo_1221159" data-name="Grupo 1221159" transform="translate(21.089 10.968)">
          <path id="Trazado_1170076" data-name="Trazado 1170076" d="M207.256,251.515v-4.627a.576.576,0,0,1,.576-.576h-1.671a.576.576,0,0,0-.576.576v4.627a.576.576,0,0,0,.576.576h1.671A.576.576,0,0,1,207.256,251.515Z" transform="translate(-205.585 -246.311)" fill="#bb5d4c"/>
        </g>
        <g id="Grupo_1221160" data-name="Grupo 1221160" transform="translate(7.159 5.641)">
          <path id="Trazado_1170077" data-name="Trazado 1170077" d="M92.146,312.312H84.878a1.158,1.158,0,0,1-.175-.015v3.5c.065,0,.131-.008.2-.008h7.225c.066,0,.132,0,.2.008v-3.5A1.142,1.142,0,0,1,92.146,312.312Z" transform="translate(-84.703 -299.366)" fill="#883f2e"/>
          <path id="Trazado_1170078" data-name="Trazado 1170078" d="M84.878,312.312a1.158,1.158,0,0,1-.175-.015v3.5c.065,0,.131-.008.2-.008h2.7v-3.481H84.878Z" transform="translate(-84.703 -299.366)" fill="#6d3326"/>
          <path id="Trazado_1170079" data-name="Trazado 1170079" d="M84.878,203.568h7.268a1.158,1.158,0,0,1,.175.015v-3.5c-.065,0-.131.008-.2.008H84.9c-.066,0-.132,0-.2-.008v3.5A1.158,1.158,0,0,1,84.878,203.568Z" transform="translate(-84.703 -200.079)" fill="#883f2e"/>
          <path id="Trazado_1170080" data-name="Trazado 1170080" d="M84.878,203.567H87.6v-3.481H84.9c-.066,0-.132,0-.2-.008v3.5A1.174,1.174,0,0,1,84.878,203.567Z" transform="translate(-84.703 -200.078)" fill="#6d3326"/>
        </g>
        <g id="Grupo_1221161" data-name="Grupo 1221161" transform="translate(6.182 9.129)">
          <path id="Trazado_1170081" data-name="Trazado 1170081" d="M85.8,231.5v7.153a1.152,1.152,0,0,1-1.152,1.152H77.377a1.152,1.152,0,0,1-1.152-1.152V231.5a1.152,1.152,0,0,1,1.152-1.152h7.268A1.152,1.152,0,0,1,85.8,231.5Z" transform="translate(-76.225 -230.352)" fill="#ca6e59"/>
        </g>
        <g id="Grupo_1221162" data-name="Grupo 1221162" transform="translate(6.182 9.129)">
          <path id="Trazado_1170082" data-name="Trazado 1170082" d="M80.117,238.657V231.5a1.152,1.152,0,0,1,1.152-1.152H77.377a1.152,1.152,0,0,0-1.152,1.152v7.153a1.152,1.152,0,0,0,1.152,1.152h3.892A1.152,1.152,0,0,1,80.117,238.657Z" transform="translate(-76.225 -230.352)" fill="#bb5d4c"/>
        </g>
        <g id="Grupo_1221165" data-name="Grupo 1221165" transform="translate(0 32.445)">
          <path id="Trazado_1170083" data-name="Trazado 1170083" d="M58.065,436.248a1.178,1.178,0,0,0,.006-.118v-2.293a1.152,1.152,0,0,0-1.152-1.152H41.347a1.152,1.152,0,0,0-1.152,1.152v2.293a1.178,1.178,0,0,0,.006.118Z" transform="translate(-38.165 -432.685)" fill="#ca6e59"/>
          <path id="Trazado_1170084" data-name="Trazado 1170084" d="M44.1,436.248a1.178,1.178,0,0,1-.006-.118v-2.293a1.152,1.152,0,0,1,1.152-1.152h-3.9a1.152,1.152,0,0,0-1.152,1.152v2.293a1.178,1.178,0,0,0,.006.118Z" transform="translate(-38.165 -432.685)" fill="#bb5d4c"/>
          <g id="Grupo_1221163" data-name="Grupo 1221163" transform="translate(0 3.448)">
            <path id="Trazado_1170085" data-name="Trazado 1170085" d="M44.515,467.435H23.154a.576.576,0,0,1-.576-.576v-3.1a1.152,1.152,0,0,1,1.152-1.152H43.362a1.152,1.152,0,0,1,1.152,1.152Z" transform="translate(-22.578 -462.608)" fill="#883f2e"/>
          </g>
          <g id="Grupo_1221164" data-name="Grupo 1221164" transform="translate(0 3.448)">
            <path id="Trazado_1170086" data-name="Trazado 1170086" d="M26.429,466.859v-3.1a1.152,1.152,0,0,1,1.152-1.152H23.73a1.152,1.152,0,0,0-1.152,1.152v3.1a.576.576,0,0,0,.576.576h3.851A.576.576,0,0,1,26.429,466.859Z" transform="translate(-22.578 -462.608)" fill="#6d3326"/>
          </g>
        </g>
        <g id="Grupo_1221170" data-name="Grupo 1221170" transform="translate(4.532)">
          <g id="Grupo_1221166" data-name="Grupo 1221166" transform="translate(0 22.068)">
            <path id="Trazado_1170087" data-name="Trazado 1170087" d="M74.778,345.457a2.824,2.824,0,0,1-2.824,2.824H64.729a2.824,2.824,0,1,1,0-5.648h7.225A2.824,2.824,0,0,1,74.778,345.457Z" transform="translate(-61.905 -342.633)" fill="#ca6e59"/>
          </g>
          <g id="Grupo_1221167" data-name="Grupo 1221167" transform="translate(0 22.068)">
            <path id="Trazado_1170088" data-name="Trazado 1170088" d="M65.752,345.457a2.824,2.824,0,0,1,2.824-2.824H64.729a2.824,2.824,0,1,0,0,5.648h3.847A2.824,2.824,0,0,1,65.752,345.457Z" transform="translate(-61.905 -342.633)" fill="#bb5d4c"/>
          </g>
          <g id="Grupo_1221168" data-name="Grupo 1221168" transform="translate(0)">
            <path id="Trazado_1170089" data-name="Trazado 1170089" d="M74.778,153.952a2.824,2.824,0,0,1-2.824,2.824H64.729a2.824,2.824,0,0,1,0-5.648h7.225A2.824,2.824,0,0,1,74.778,153.952Z" transform="translate(-61.905 -151.128)" fill="#ca6e59"/>
          </g>
          <g id="Grupo_1221169" data-name="Grupo 1221169">
            <path id="Trazado_1170090" data-name="Trazado 1170090" d="M65.752,153.952a2.824,2.824,0,0,1,2.824-2.824H64.729a2.824,2.824,0,0,0,0,5.648h3.847A2.824,2.824,0,0,1,65.752,153.952Z" transform="translate(-61.905 -151.128)" fill="#bb5d4c"/>
          </g>
        </g>
      </g>
      <g id="Grupo_1221174" data-name="Grupo 1221174" transform="translate(37.583 6.235)">
        <g id="Grupo_1221172" data-name="Grupo 1221172">
          <circle id="Elipse_14569" data-name="Elipse 14569" cx="8.086" cy="8.086" r="8.086" fill="#4fc123"/>
        </g>
        <g id="Grupo_1221173" data-name="Grupo 1221173" transform="translate(0)">
          <path id="Trazado_1170091" data-name="Trazado 1170091" d="M214.247,62.193a8.088,8.088,0,0,1,6.148-7.851,8.086,8.086,0,1,0,0,15.7,8.088,8.088,0,0,1-6.148-7.851Z" transform="translate(-210.372 -54.107)" fill="#47a920"/>
        </g>
      </g>
      <g id="Grupo_1221175" data-name="Grupo 1221175" transform="translate(15.078 0)">
        <path id="Trazado_1170092" data-name="Trazado 1170092" d="M66.849,27.519H65.457V12.561a.864.864,0,0,0-.891-.864.888.888,0,0,0-.838.9V27.519H57.936a.864.864,0,0,0,0,1.729h8.913a2.026,2.026,0,1,1,0,4.051H49.192V29.248H53.9a.864.864,0,0,0,0-1.729H48.984a1.523,1.523,0,0,0-1.4.919H41.474a1.442,1.442,0,0,0-1.341-.919H37.607a1.442,1.442,0,0,0-1.341.919h-3.7V27.7a2.015,2.015,0,0,0-.977-1.725v-2.2a3.688,3.688,0,0,0-1.061-7.221H27.608V1.729H63.729v6.8a.864.864,0,0,0,.891.864.888.888,0,0,0,.838-.9V1.44A1.44,1.44,0,0,0,64.017,0H27.32a1.44,1.44,0,0,0-1.44,1.44v15.11H23.3a3.688,3.688,0,0,0-1.061,7.22v2.2A2.015,2.015,0,0,0,21.26,27.7V34.85a2.015,2.015,0,0,0,.977,1.725v2.2A3.688,3.688,0,0,0,23.3,46H25.88v3H19.125a2.019,2.019,0,0,0-2.017,2.017v1.432h-.013a2.019,2.019,0,0,0-2.017,2.017v3.1A1.442,1.442,0,0,0,16.518,59h47.5a1.44,1.44,0,0,0,1.44-1.44V35.027h1.392a3.754,3.754,0,0,0,0-7.508ZM41.573,30.167h5.89v2.212h-5.89ZM37.9,29.248h1.949V33.3H37.9Zm-5.334.919h3.606v2.212H32.561ZM21.338,20.239a1.962,1.962,0,0,1,1.96-1.96h7.225a1.96,1.96,0,0,1,0,3.92H23.3a1.962,1.962,0,0,1-1.96-1.96Zm1.938,14.9a.288.288,0,0,1-.288-.288V27.7a.288.288,0,0,1,.288-.288h7.268a.288.288,0,0,1,.288.288V34.85a.288.288,0,0,1-.288.288Zm6.579,1.729v1.752h-5.89V36.866ZM23.965,25.68V23.928h5.89V25.68ZM23.3,44.267a1.96,1.96,0,0,1,0-3.92h7.225a1.96,1.96,0,1,1,0,3.92Zm13.716,13H16.807V54.461a.288.288,0,0,1,.288-.288h5.349a.864.864,0,0,0,0-1.729H18.837V51.013a.288.288,0,0,1,.288-.288H34.7a.288.288,0,0,1,.288.288v1.432H26.477a.864.864,0,0,0,0,1.729H36.727a.288.288,0,0,1,.288.288Zm26.714,0H38.743V54.461a2.019,2.019,0,0,0-2.017-2.017h-.014V51.013A2.019,2.019,0,0,0,34.7,49H27.608V46h2.915a3.688,3.688,0,0,0,1.061-7.221v-2.2a2.015,2.015,0,0,0,.977-1.725v-.742h3.7a1.442,1.442,0,0,0,1.341.919h2.526a1.442,1.442,0,0,0,1.341-.919h6.114a1.523,1.523,0,0,0,1.4.919H63.729V57.271Z" transform="translate(-15.078 0)"/>
        <path id="Trazado_1170093" data-name="Trazado 1170093" d="M202.872,55.557a8.95,8.95,0,1,0,8.95-8.95,8.96,8.96,0,0,0-8.95,8.95Zm16.172,0a7.222,7.222,0,1,1-7.222-7.222,7.23,7.23,0,0,1,7.222,7.222Z" transform="translate(-181.232 -41.236)"/>
        <path id="Trazado_1170094" data-name="Trazado 1170094" d="M247.819,102.875A.864.864,0,0,0,246.6,104.1l2.658,2.658a.864.864,0,0,0,1.222,0l4.121-4.121a.864.864,0,0,0-1.222-1.222l-3.509,3.509Z" transform="translate(-219.694 -89.502)"/>
        <path id="Trazado_1170095" data-name="Trazado 1170095" d="M243.681,327.933a.864.864,0,0,0,.864.864H260.44a.864.864,0,0,0,0-1.729H244.545A.864.864,0,0,0,243.681,327.933Z" transform="translate(-217.338 -289.379)"/>
        <path id="Trazado_1170096" data-name="Trazado 1170096" d="M319.559,363.546h-8.194a.864.864,0,0,0,0,1.729h8.194a.864.864,0,0,0,0-1.729Z" transform="translate(-276.457 -321.653)"/>
        <path id="Trazado_1170097" data-name="Trazado 1170097" d="M244.545,365.275h4.7a.864.864,0,0,0,0-1.729h-4.7a.864.864,0,1,0,0,1.729Z" transform="translate(-217.338 -321.653)"/>
        <path id="Trazado_1170098" data-name="Trazado 1170098" d="M260.439,400.023H244.544a.864.864,0,0,0,0,1.729h15.894a.864.864,0,0,0,0-1.729Z" transform="translate(-217.337 -353.927)"/>
        <path id="Trazado_1170099" data-name="Trazado 1170099" d="M350.525,436.5h-4.161a.864.864,0,0,0,0,1.729h4.161a.864.864,0,0,0,0-1.729Z" transform="translate(-307.424 -386.2)"/>
        <path id="Trazado_1170100" data-name="Trazado 1170100" d="M253.628,436.5h-9.083a.864.864,0,1,0,0,1.729h9.083a.864.864,0,1,0,0-1.729Z" transform="translate(-217.338 -386.2)"/>
      </g>
    </g>
  </g>
</svg>
