<svg xmlns="http://www.w3.org/2000/svg" xmlns:xlink="http://www.w3.org/1999/xlink" width="108" height="108" viewBox="0 0 108 108">
  <defs>
    <filter id="Trazado_904820" x="0" y="0" width="108" height="108" filterUnits="userSpaceOnUse">
      <feOffset dy="3" input="SourceAlpha"/>
      <feGaussianBlur stdDeviation="3" result="blur"/>
      <feFlood flood-opacity="0.161"/>
      <feComposite operator="in" in2="blur"/>
      <feComposite in="SourceGraphic"/>
    </filter>
  </defs>
  <g id="Grupo_1221473" data-name="Grupo 1221473" transform="translate(-193.827 -4049)">
    <g id="Grupo_1220968" data-name="Grupo 1220968" transform="translate(202.827 4055)">
      <g id="Grupo_1219977" data-name="Grupo 1219977" transform="translate(0 0)">
        <g id="Grupo_1219603" data-name="Grupo 1219603">
          <g id="Grupo_1202655" data-name="Grupo 1202655">
            <g id="Grupo_1173585" data-name="Grupo 1173585">
              <g id="Grupo_1173428" data-name="Grupo 1173428">
                <g id="Grupo_1171958" data-name="Grupo 1171958">
                  <g id="Grupo_1167341" data-name="Grupo 1167341">
                    <g id="Grupo_1166792" data-name="Grupo 1166792">
                      <g transform="matrix(1, 0, 0, 1, -9, -6)" filter="url(#Trazado_904820)">
                        <g id="Trazado_904820-2" data-name="Trazado 904820" transform="translate(9 6)" fill="#fdfaeb">
                          <path d="M 44.99999618530273 88.49999237060547 C 39.12687301635742 88.49999237060547 33.43022155761719 87.35006713867188 28.06829643249512 85.08216857910156 C 22.88852119445801 82.89130401611328 18.23629570007324 79.75457763671875 14.24084663391113 75.75914001464844 C 10.24540901184082 71.76369476318359 7.108683586120605 67.11146545410156 4.917821407318115 61.93169403076172 C 2.649921178817749 56.56976699829102 1.499996185302734 50.87311553955078 1.499996185302734 44.99999237060547 C 1.499996185302734 39.12686920166016 2.649921178817749 33.43021774291992 4.917821407318115 28.06829261779785 C 7.108683586120605 22.88851737976074 10.24540901184082 18.23630523681641 14.24084663391113 14.24085521697998 C 18.23629570007324 10.24540519714355 22.88852119445801 7.108692169189453 28.06829643249512 4.917829990386963 C 33.43022155761719 2.649929761886597 39.12687301635742 1.500004887580872 44.99999618530273 1.500004887580872 C 50.87311935424805 1.500004887580872 56.56977081298828 2.649929761886597 61.93169784545898 4.917829990386963 C 67.11147308349609 7.108692169189453 71.76369476318359 10.24540519714355 75.75914764404297 14.24085521697998 C 79.75458526611328 18.23630523681641 82.89131164550781 22.88851737976074 85.08216857910156 28.06829261779785 C 87.35007476806641 33.43021774291992 88.5 39.12686920166016 88.5 44.99999237060547 C 88.5 50.87311553955078 87.35007476806641 56.56976699829102 85.08216857910156 61.93169403076172 C 82.89131164550781 67.11146545410156 79.75458526611328 71.76369476318359 75.75914764404297 75.75914001464844 C 71.76369476318359 79.75457763671875 67.11147308349609 82.89130401611328 61.93169784545898 85.08216857910156 C 56.56977081298828 87.35006713867188 50.87311935424805 88.49999237060547 44.99999618530273 88.49999237060547 Z" stroke="none"/>
                          <path d="M 44.99999618530273 2.999992370605469 C 39.32870864868164 2.999992370605469 33.82865142822266 4.11004638671875 28.65262603759766 6.299331665039062 C 23.65165710449219 8.414566040039062 19.15968322753906 11.44333648681641 15.301513671875 15.30150604248047 C 11.44333648681641 19.15967559814453 8.414566040039062 23.65164947509766 6.299339294433594 28.65262222290039 C 4.110054016113281 33.82864761352539 2.999992370605469 39.32870483398438 2.999992370605469 44.99999237060547 C 2.999992370605469 50.67127990722656 4.110054016113281 56.17132186889648 6.299339294433594 61.34736633300781 C 8.414566040039062 66.34833526611328 11.44333648681641 70.84029388427734 15.301513671875 74.69846343994141 C 19.15968322753906 78.55663299560547 23.65165710449219 81.58540344238281 28.65262603759766 83.70063781738281 C 33.82865142822266 85.88992309570312 39.32870864868164 86.99997711181641 44.99999618530273 86.99997711181641 C 50.67128372192383 86.99997711181641 56.17134094238281 85.88992309570312 61.34736633300781 83.70063781738281 C 66.34834289550781 81.58540344238281 70.84030914306641 78.55663299560547 74.69847869873047 74.69846343994141 C 78.55665588378906 70.84029388427734 81.58542633056641 66.34833526611328 83.70065307617188 61.34736633300781 C 85.88993835449219 56.17132186889648 87 50.67127990722656 87 44.99999237060547 C 87 39.32870483398438 85.88993835449219 33.82864761352539 83.70065307617188 28.65262222290039 C 81.58542633056641 23.65164947509766 78.55665588378906 19.15967559814453 74.69847869873047 15.30150604248047 C 70.84030914306641 11.44333648681641 66.34834289550781 8.414566040039062 61.34736633300781 6.299331665039062 C 56.17134094238281 4.11004638671875 50.67128372192383 2.999992370605469 44.99999618530273 2.999992370605469 M 44.99999618530273 -7.62939453125e-06 C 69.85281372070312 -7.62939453125e-06 90 20.14717864990234 90 44.99999237060547 C 90 69.85279083251953 69.85281372070312 89.99997711181641 44.99999618530273 89.99997711181641 C 20.14717864990234 89.99997711181641 -7.62939453125e-06 69.85279083251953 -7.62939453125e-06 44.99999237060547 C -7.62939453125e-06 20.14717864990234 20.14717864990234 -7.62939453125e-06 44.99999618530273 -7.62939453125e-06 Z" stroke="none" fill="#847625"/>
                        </g>
                      </g>
                    </g>
                  </g>
                </g>
              </g>
            </g>
          </g>
        </g>
      </g>
    </g>
    <g id="obediente_1_" data-name="obediente (1)" transform="translate(212.48 4069.725)">
      <g id="Grupo_1221463" data-name="Grupo 1221463" transform="translate(9.966 0.878)">
        <g id="Grupo_1221461" data-name="Grupo 1221461" transform="translate(0)">
          <g id="Grupo_1221458" data-name="Grupo 1221458" transform="translate(0 22.934)">
            <g id="Grupo_1221451" data-name="Grupo 1221451" transform="translate(0 0)">
              <path id="Trazado_1170900" data-name="Trazado 1170900" d="M39.208,203.967l2.108,3.652a.351.351,0,0,0,.3.176H56.067a.351.351,0,0,0,.3-.176l2.108-3.652a.351.351,0,0,0-.3-.527H39.512a.351.351,0,0,0-.3.527Z" transform="translate(-39.16 -203.44)" fill="#fed402"/>
            </g>
            <g id="Grupo_1221457" data-name="Grupo 1221457">
              <g id="Grupo_1221452" data-name="Grupo 1221452" transform="translate(31.395 0)">
                <path id="Trazado_1170901" data-name="Trazado 1170901" d="M307.429,203.967l2.108,3.652a.351.351,0,0,0,.3.176h14.446a.351.351,0,0,0,.3-.176l2.108-3.652a.351.351,0,0,0-.3-.527H307.734A.351.351,0,0,0,307.429,203.967Z" transform="translate(-307.382 -203.44)" fill="#fed402"/>
              </g>
              <g id="Grupo_1221453" data-name="Grupo 1221453" transform="translate(0 0)">
                <path id="Trazado_1170902" data-name="Trazado 1170902" d="M39.208,203.967l2.108,3.652a.351.351,0,0,0,.3.176H56.067a.351.351,0,0,0,.3-.176l2.108-3.652a.351.351,0,0,0-.3-.527H39.512a.351.351,0,0,0-.3.527Z" transform="translate(-39.16 -203.44)" fill="#ca6e59"/>
              </g>
              <g id="Grupo_1221454" data-name="Grupo 1221454" transform="translate(0)">
                <path id="Trazado_1170903" data-name="Trazado 1170903" d="M46.277,207.618l-2.108-3.652a.351.351,0,0,1,.3-.527H39.512a.351.351,0,0,0-.3.527l2.108,3.652a.351.351,0,0,0,.3.176h4.961A.351.351,0,0,1,46.277,207.618Z" transform="translate(-39.161 -203.439)" fill="#bb5d4c"/>
              </g>
              <g id="Grupo_1221455" data-name="Grupo 1221455" transform="translate(31.395 0)">
                <path id="Trazado_1170904" data-name="Trazado 1170904" d="M307.429,203.967l2.108,3.652a.351.351,0,0,0,.3.176h14.446a.351.351,0,0,0,.3-.176l2.108-3.652a.351.351,0,0,0-.3-.527H307.734A.351.351,0,0,0,307.429,203.967Z" transform="translate(-307.382 -203.44)" fill="#ca6e59"/>
              </g>
              <g id="Grupo_1221456" data-name="Grupo 1221456" transform="translate(31.395)">
                <path id="Trazado_1170905" data-name="Trazado 1170905" d="M315.112,207.618,313,203.966a.351.351,0,0,1,.3-.527h-5.574a.351.351,0,0,0-.3.527l2.108,3.652a.351.351,0,0,0,.3.176h5.574A.351.351,0,0,1,315.112,207.618Z" transform="translate(-307.383 -203.439)" fill="#bb5d4c"/>
              </g>
            </g>
          </g>
          <path id="Trazado_1170906" data-name="Trazado 1170906" d="M240.656,125.17V103.708a.585.585,0,0,0-.585-.585h-3.519a.585.585,0,0,0-.585.585V125.17h4.69Z" transform="translate(-212.93 -91.931)" fill="#bb5d4c"/>
          <path id="Trazado_1170907" data-name="Trazado 1170907" d="M237.952,125.17V103.708a.585.585,0,0,1,.585-.585h-1.986a.585.585,0,0,0-.585.585V125.17h1.986Z" transform="translate(-212.93 -91.931)" fill="#a44f3e"/>
          <g id="Grupo_1221459" data-name="Grupo 1221459" transform="translate(22.104 0)">
            <circle id="Elipse_14586" data-name="Elipse 14586" cx="3.277" cy="3.277" r="3.277" fill="#883f2e"/>
          </g>
          <g id="Grupo_1221460" data-name="Grupo 1221460" transform="translate(22.104)">
            <path id="Trazado_1170908" data-name="Trazado 1170908" d="M230.932,10.777a3.276,3.276,0,0,1,1.813-2.932,3.277,3.277,0,1,0,0,5.863A3.276,3.276,0,0,1,230.932,10.777Z" transform="translate(-228.005 -7.5)" fill="#6d3326"/>
          </g>
        </g>
        <g id="Grupo_1221462" data-name="Grupo 1221462" transform="translate(4.511 33.24)">
          <path id="Trazado_1170909" data-name="Trazado 1170909" d="M220.2,296.515v-2.689a2.341,2.341,0,0,0-2.341-2.341H211.6a2.341,2.341,0,0,0-2.341,2.341v2.689Z" transform="translate(-193.858 -291.485)" fill="#883f2e"/>
          <path id="Trazado_1170910" data-name="Trazado 1170910" d="M213.2,296.515v-2.689a2.341,2.341,0,0,1,2.341-2.341H211.6a2.341,2.341,0,0,0-2.341,2.341v2.689Z" transform="translate(-193.857 -291.485)" fill="#6d3326"/>
          <path id="Trazado_1170911" data-name="Trazado 1170911" d="M191.03,339.788v-3.325a2.006,2.006,0,0,0-2.006-2.006H173.178a2.006,2.006,0,0,0-2.006,2.006v3.325Z" transform="translate(-160.232 -329.427)" fill="#bb5d4c"/>
          <path id="Trazado_1170912" data-name="Trazado 1170912" d="M176.109,339.788v-3.325a2.006,2.006,0,0,1,2.006-2.006h-4.936a2.006,2.006,0,0,0-2.006,2.006v3.325Z" transform="translate(-160.233 -329.427)" fill="#a44f3e"/>
          <path id="Trazado_1170913" data-name="Trazado 1170913" d="M80.829,379.006a3.127,3.127,0,0,0-3.126,3.126v5.94a3.126,3.126,0,0,0,3.126,3.126H82.1v-8.285h6.393V391.2h35.8V379.006Z" transform="translate(-77.703 -368.762)" fill="#fff3de"/>
        </g>
      </g>
      <g id="Grupo_1221472" data-name="Grupo 1221472" transform="translate(6.974 44.362)">
        <g id="Grupo_1221467" data-name="Grupo 1221467" transform="translate(0)">
          <g id="Grupo_1221464" data-name="Grupo 1221464">
            <path id="Trazado_1170914" data-name="Trazado 1170914" d="M24.226,391.2a3.126,3.126,0,0,1-3.126-3.126v-5.94a3.126,3.126,0,0,1,3.126-3.126H19.693a6.1,6.1,0,1,0,0,12.193h4.533Z" transform="translate(-13.596 -379.006)" fill="#3675bb"/>
          </g>
          <g id="Grupo_1221465" data-name="Grupo 1221465">
            <path id="Trazado_1170915" data-name="Trazado 1170915" d="M16.557,385.1a6.1,6.1,0,0,1,6.1-6.1H19.693a6.1,6.1,0,1,0,0,12.193h2.961A6.1,6.1,0,0,1,16.557,385.1Z" transform="translate(-13.596 -379.006)" fill="#2b68b6"/>
          </g>
          <g id="Grupo_1221466" data-name="Grupo 1221466" transform="translate(7.504 0.004)">
            <path id="Trazado_1170916" data-name="Trazado 1170916" d="M82.1,387.8a3.123,3.123,0,0,1-1.433-2.627v-5.94c0-.066,0-.131.007-.2a3.127,3.127,0,0,0-2.968,3.122v5.94a3.126,3.126,0,0,0,3.126,3.126H82.1Z" transform="translate(-77.703 -379.041)" fill="#ffe5c2"/>
            <path id="Trazado_1170917" data-name="Trazado 1170917" d="M169.857,458.174h35.8V461.1h-35.8Z" transform="translate(-159.071 -448.912)" fill="#ffe5c2"/>
          </g>
        </g>
        <g id="Grupo_1221471" data-name="Grupo 1221471" transform="translate(11.897 3.908)">
          <g id="Grupo_1221468" data-name="Grupo 1221468">
            <path id="Trazado_1170918" data-name="Trazado 1170918" d="M121.633,422.824V412.395H115.24v10.429a.351.351,0,0,0,.551.289l2.645-1.831,2.645,1.831A.351.351,0,0,0,121.633,422.824Z" transform="translate(-115.24 -412.395)" fill="#fb2b3a"/>
          </g>
          <g id="Grupo_1221470" data-name="Grupo 1221470" transform="translate(0)">
            <g id="Grupo_1221469" data-name="Grupo 1221469">
              <path id="Trazado_1170919" data-name="Trazado 1170919" d="M118.183,412.395H115.24v10.429a.351.351,0,0,0,.551.289l2.392-1.655Z" transform="translate(-115.24 -412.395)" fill="#e41f2d"/>
            </g>
          </g>
        </g>
      </g>
      <path id="Trazado_1170920" data-name="Trazado 1170920" d="M63.719,55.677H61.94V45.24h1.78a.878.878,0,1,0,0-1.756H46.153v-2.33a2.887,2.887,0,0,0-2.884-2.884H41.7V36.459a3.222,3.222,0,0,0-3.126-3.216V19.079a.878.878,0,0,0-1.756,0V33.24H33.88V12.948h2.934v2.034a.878.878,0,0,0,1.756,0V12.656a1.465,1.465,0,0,0-1.463-1.463h-.882V8.215a4.166,4.166,0,0,0,3.183-3.183H50.166v1.6L41.582,22.943a1.227,1.227,0,0,0-.935,1.835l2.108,3.652a1.232,1.232,0,0,0,1.064.615h8.264a.878.878,0,0,0,0-1.756H44.125l-1.5-2.6H59.463l-1.5,2.6H56.181a.878.878,0,0,0,0,1.756h2.086a1.232,1.232,0,0,0,1.064-.615l2.108-3.652a1.227,1.227,0,0,0-.935-1.835L51.922,6.634v-1.6h3.286a.878.878,0,0,0,0-1.756h-15.8a4.154,4.154,0,0,0-8.121,0h-15.8a.878.878,0,0,0,0,1.756h3.286v1.6L10.188,22.943a1.227,1.227,0,0,0-.935,1.835h0l2.108,3.652a1.232,1.232,0,0,0,1.064.614H26.873a1.232,1.232,0,0,0,1.064-.615l2.108-3.652a1.227,1.227,0,0,0-.935-1.835L20.527,6.634v-1.6H31.286a4.167,4.167,0,0,0,3.183,3.183v2.977h-.882a1.465,1.465,0,0,0-1.463,1.463V33.242A3.222,3.222,0,0,0,29,36.458v1.811H27.424a2.887,2.887,0,0,0-2.884,2.884v2.33H13.071a6.974,6.974,0,1,0,0,13.949h4.923V58.7a1.229,1.229,0,0,0,1.928,1.011l2.146-1.485,2.146,1.485A1.229,1.229,0,0,0,26.142,58.7V57.433H63.719a.878.878,0,1,0,0-1.755ZM50.166,22.934H43.571L50.166,10.4ZM51.922,10.4l6.595,12.531H51.922Zm-33.15,0V22.934H12.176Zm7.8,16.885H12.73l-1.5-2.6H28.069Zm.554-4.354H20.527V10.4Zm5.826-18.78a2.4,2.4,0,1,1,2.4,2.4A2.4,2.4,0,0,1,32.948,4.155Zm-2.195,32.3A1.465,1.465,0,0,1,32.216,35h6.261a1.465,1.465,0,0,1,1.463,1.463v1.811H30.753ZM13.071,55.677a5.219,5.219,0,1,1,0-10.437h1.222a3.981,3.981,0,0,0-.693,2.249v5.94a3.98,3.98,0,0,0,.693,2.249Zm11.315,2.017-1.819-1.259a.878.878,0,0,0-1,0l-1.819,1.259V49.148h4.637Zm35.8-10.3H41.209a.878.878,0,1,0,0,1.756H60.184v2.621H41.209a.878.878,0,0,0,0,1.756H60.184v2.152H26.142v-6.53h7.407a.878.878,0,0,0,0-1.756H17.6a.878.878,0,1,0,0,1.756h.389v6.53H17.6a2.251,2.251,0,0,1-2.249-2.249v-5.94A2.251,2.251,0,0,1,17.6,45.24H31.718a.878.878,0,1,0,0-1.756H26.3v-2.33a1.13,1.13,0,0,1,1.128-1.128H43.269A1.13,1.13,0,0,1,44.4,41.154v2.33H35.815a.878.878,0,1,0,0,1.756H60.184Z" transform="translate(0)"/>
    </g>
  </g>
</svg>
