<svg xmlns="http://www.w3.org/2000/svg" xmlns:xlink="http://www.w3.org/1999/xlink" width="113" height="113" viewBox="0 0 113 113">
  <defs>
    <filter id="Trazado_982547" x="0" y="0" width="113" height="113" filterUnits="userSpaceOnUse">
      <feOffset dy="3" input="SourceAlpha"/>
      <feGaussianBlur stdDeviation="3" result="blur"/>
      <feFlood flood-opacity="0.161"/>
      <feComposite operator="in" in2="blur"/>
      <feComposite in="SourceGraphic"/>
    </filter>
  </defs>
  <g id="Grupo_1221179" data-name="Grupo 1221179" transform="translate(-586 -1134)">
    <g id="Grupo_1220489" data-name="Grupo 1220489" transform="translate(0.575 190.73)">
      <g id="Grupo_1219624" data-name="Grupo 1219624" transform="translate(0 -5515.518)">
        <g id="Grupo_1203673" data-name="Grupo 1203673" transform="translate(-0.575 557.5)">
          <g id="Grupo_1202433" data-name="Grupo 1202433" transform="translate(-0.56 1255.773)">
            <g id="Grupo_1202054" data-name="Grupo 1202054" transform="translate(0 3240.511)">
              <g id="Grupo_1177897" data-name="Grupo 1177897" transform="translate(595.561 1411.003)">
                <g id="Grupo_1172010" data-name="Grupo 1172010" transform="translate(0)">
                  <g id="Grupo_1171046" data-name="Grupo 1171046">
                    <g id="Grupo_1148525" data-name="Grupo 1148525">
                      <g transform="matrix(1, 0, 0, 1, -9, -6)" filter="url(#Trazado_982547)">
                        <g id="Trazado_982547-2" data-name="Trazado 982547" transform="translate(9 6)" fill="#f2d944">
                          <path d="M 47.5 93.5 C 41.28937149047852 93.5 35.26533508300781 92.28397369384766 29.59518623352051 89.88570404052734 C 24.11771965026855 87.56893157958984 19.19813346862793 84.25196075439453 14.97309303283691 80.02691650390625 C 10.74804019927979 75.80186462402344 7.431066513061523 70.88229370117188 5.114293098449707 65.40481567382812 C 2.716026782989502 59.73468017578125 1.5 53.71062850952148 1.5 47.5 C 1.5 41.28937149047852 2.716026782989502 35.26533508300781 5.114293098449707 29.59518623352051 C 7.431066513061523 24.11771965026855 10.74804019927979 19.19813346862793 14.97309303283691 14.97309303283691 C 19.19813346862793 10.74804019927979 24.11771965026855 7.431066513061523 29.59518623352051 5.114293098449707 C 35.26533508300781 2.716026782989502 41.28937149047852 1.5 47.5 1.5 C 53.71062850952148 1.5 59.73468017578125 2.716026782989502 65.40481567382812 5.114293098449707 C 70.88229370117188 7.431066513061523 75.80186462402344 10.74804019927979 80.02691650390625 14.97309303283691 C 84.25196075439453 19.19813346862793 87.56893157958984 24.11771965026855 89.88570404052734 29.59518623352051 C 92.28397369384766 35.26533508300781 93.5 41.28937149047852 93.5 47.5 C 93.5 53.71062850952148 92.28397369384766 59.73468017578125 89.88570404052734 65.40481567382812 C 87.56893157958984 70.88229370117188 84.25196075439453 75.80186462402344 80.02691650390625 80.02691650390625 C 75.80186462402344 84.25196075439453 70.88229370117188 87.56893157958984 65.40481567382812 89.88570404052734 C 59.73468017578125 92.28397369384766 53.71062850952148 93.5 47.5 93.5 Z" stroke="none"/>
                          <path d="M 47.5 3 C 41.49121475219727 3 35.66376876831055 4.176155090332031 30.17950439453125 6.495796203613281 C 24.88084411621094 8.736953735351562 20.12152099609375 11.94598388671875 16.03375244140625 16.03375244140625 C 11.94598388671875 20.12152099609375 8.736953735351562 24.88084411621094 6.495796203613281 30.17950439453125 C 4.176155090332031 35.66376876831055 3 41.49121475219727 3 47.5 C 3 53.50878524780273 4.176155090332031 59.33623123168945 6.495796203613281 64.82049560546875 C 8.736953735351562 70.11915588378906 11.94598388671875 74.87847900390625 16.03375244140625 78.96624755859375 C 20.12152099609375 83.05401611328125 24.88084411621094 86.26304626464844 30.17950439453125 88.50419616699219 C 35.66376876831055 90.82384490966797 41.49121475219727 92 47.5 92 C 53.50878524780273 92 59.33623123168945 90.82384490966797 64.82049560546875 88.50419616699219 C 70.11915588378906 86.26304626464844 74.87847900390625 83.05401611328125 78.96624755859375 78.96624755859375 C 83.05401611328125 74.87847900390625 86.26304626464844 70.11915588378906 88.50419616699219 64.82049560546875 C 90.82384490966797 59.33623123168945 92 53.50878524780273 92 47.5 C 92 41.49121475219727 90.82384490966797 35.66376876831055 88.50419616699219 30.17950439453125 C 86.26304626464844 24.88084411621094 83.05401611328125 20.12152099609375 78.96624755859375 16.03375244140625 C 74.87847900390625 11.94598388671875 70.11915588378906 8.736953735351562 64.82049560546875 6.495796203613281 C 59.33623123168945 4.176155090332031 53.50878524780273 3 47.5 3 M 47.5 0 C 73.7335205078125 0 95 21.2664794921875 95 47.5 C 95 73.7335205078125 73.7335205078125 95 47.5 95 C 21.2664794921875 95 0 73.7335205078125 0 47.5 C 0 21.2664794921875 21.2664794921875 0 47.5 0 Z" stroke="none" fill="#ba9c5a"/>
                        </g>
                      </g>
                    </g>
                  </g>
                </g>
              </g>
            </g>
          </g>
        </g>
      </g>
    </g>
    <g id="corte_1_" data-name="corte (1)" transform="translate(611.994 1153.999)">
      <g id="Grupo_1221178" data-name="Grupo 1221178" transform="translate(0.891 0.887)">
        <path id="Trazado_1170101" data-name="Trazado 1170101" d="M111.462,21.763l-1.027-.271-1.259.271L87.194,35.168h43.855l1.237-.624Z" transform="translate(-77.789 -19.842)" fill="#b7aeb8"/>
        <path id="Trazado_1170102" data-name="Trazado 1170102" d="M0,0H6.134V29.124H0Z" transform="translate(13.598 51.539) rotate(180)" fill="#7b6c79"/>
        <path id="Trazado_1170103" data-name="Trazado 1170103" d="M0,0H6.134V29.124H0Z" transform="translate(38.621 51.539) rotate(180)" fill="#938493"/>
        <path id="Trazado_1170104" data-name="Trazado 1170104" d="M0,0H6.134V29.124H0Z" transform="translate(51.132 51.539) rotate(180)" fill="#938493"/>
        <path id="Trazado_1170105" data-name="Trazado 1170105" d="M0,0H6.134V29.124H0Z" transform="translate(26.109 51.539) rotate(180)" fill="#7b6c79"/>
        <path id="Trazado_1170106" data-name="Trazado 1170106" d="M110.108,159.532v4.76l.449.3.315.144.219.044h40.37a1.033,1.033,0,0,0,1.033-1.033v-4.219H110.108Z" transform="translate(-97.999 -141.59)" fill="#b7aeb8"/>
        <g id="Grupo_1221177" data-name="Grupo 1221177" transform="translate(4.16)">
          <path id="Trazado_1170107" data-name="Trazado 1170107" d="M50.807,163.752v-4.219H42.753v4.219a1.033,1.033,0,0,0,1.033,1.033H51.84A1.033,1.033,0,0,1,50.807,163.752Z" transform="translate(-42.753 -141.591)" fill="#938493"/>
          <path id="Trazado_1170108" data-name="Trazado 1170108" d="M69.5,10.041a4.3,4.3,0,0,1,2.768-.609l-2.085-1.28a4.3,4.3,0,0,0-4.519,0L42.753,22.214l1.183.624h4.713Z" transform="translate(-42.753 -7.512)" fill="#938493"/>
          <path id="Trazado_1170109" data-name="Trazado 1170109" d="M210.733,85.749l-.652-.186-1.416.316-9.148,5.8h19l.856-.624Z" transform="translate(-181.015 -76.351)" fill="#938493"/>
        </g>
        <path id="Trazado_1170110" data-name="Trazado 1170110" d="M159.726,72.484a4.312,4.312,0,0,1,2.245-.64l-2.29-1.405a4.3,4.3,0,0,0-4.519,0l-10.932,6.71.507.624h6.374Z" transform="translate(-128.093 -62.446)" fill="#7b6c79"/>
        <path id="Trazado_1170111" data-name="Trazado 1170111" d="M124.9,132.082H76.018l-.227.048-.516.546v2.958l.3.465.535.229H124.9a1.033,1.033,0,0,0,1.033-1.033v-2.179A1.033,1.033,0,0,0,124.9,132.082Z" transform="translate(-67.277 -117.38)" fill="#ccc6ce"/>
        <path id="Trazado_1170112" data-name="Trazado 1170112" d="M15.559,135.295v-2.179a1.033,1.033,0,0,1,1.033-1.033H8.538A1.033,1.033,0,0,0,7.5,133.115v2.179a1.033,1.033,0,0,0,1.033,1.033h8.054A1.033,1.033,0,0,1,15.559,135.295Z" transform="translate(-7.505 -117.38)" fill="#b7aeb8"/>
        <path id="Trazado_1170113" data-name="Trazado 1170113" d="M110.108,437.81v-4.76l.449-.3.315-.144.219-.044h40.37a1.033,1.033,0,0,1,1.033,1.033v4.219H110.108Z" transform="translate(-97.999 -382.393)" fill="#b7aeb8"/>
        <path id="Trazado_1170114" data-name="Trazado 1170114" d="M50.807,433.59v4.219H42.753V433.59a1.033,1.033,0,0,1,1.033-1.033H51.84A1.033,1.033,0,0,0,50.807,433.59Z" transform="translate(-38.593 -382.392)" fill="#938493"/>
        <path id="Trazado_1170115" data-name="Trazado 1170115" d="M124.9,472.779H76.018l-.227-.048-.516-.546v-2.958l.3-.465.535-.229H124.9a1.033,1.033,0,0,1,1.033,1.033v2.179A1.033,1.033,0,0,1,124.9,472.779Z" transform="translate(-67.277 -414.122)" fill="#ccc6ce"/>
        <path id="Trazado_1170116" data-name="Trazado 1170116" d="M15.559,469.565v2.179a1.033,1.033,0,0,0,1.033,1.033H8.538A1.033,1.033,0,0,1,7.5,471.745v-2.179a1.033,1.033,0,0,1,1.033-1.033h8.054A1.033,1.033,0,0,0,15.559,469.565Z" transform="translate(-7.505 -414.121)" fill="#b7aeb8"/>
      </g>
      <path id="Trazado_1170117" data-name="Trazado 1170117" d="M1.924,60.429h26.23a.885.885,0,1,0,0-1.77H1.924a.148.148,0,0,1-.148-.148V56.331a.148.148,0,0,1,.148-.148h56.59a.148.148,0,0,1,.148.148v2.179a.148.148,0,0,1-.148.148H32.285a.885.885,0,1,0,0,1.77h26.23a1.921,1.921,0,0,0,1.918-1.918V56.331a1.921,1.921,0,0,0-1.918-1.918H56.273V52.085a1.921,1.921,0,0,0-1.918-1.918H52.908V39.632a.885.885,0,1,0-1.77,0V50.167H46.774v-25.2h4.364V35.5a.885.885,0,0,0,1.77,0V24.966h1.446a1.921,1.921,0,0,0,1.918-1.918V20.72h2.242A1.921,1.921,0,0,0,60.433,18.8V16.623A1.921,1.921,0,0,0,58.514,14.7H55.638L32.942.774a5.181,5.181,0,0,0-5.445,0L4.8,14.7H1.924A1.921,1.921,0,0,0,.006,16.622V18.8A1.92,1.92,0,0,0,1.924,20.72H4.166v2.328a1.92,1.92,0,0,0,1.918,1.918H7.469v25.2H6.084a1.921,1.921,0,0,0-1.918,1.918v2.327H1.924A1.921,1.921,0,0,0,.006,56.331V58.51a1.921,1.921,0,0,0,1.918,1.918Zm26.5-58.147a3.418,3.418,0,0,1,3.592,0L52.253,14.7H43.661L32.942,8.125a5.18,5.18,0,0,0-5.445,0L16.778,14.7H8.185ZM40.277,14.7H20.162l8.261-5.071h0a3.418,3.418,0,0,1,3.593,0ZM1.924,18.95a.148.148,0,0,1-.148-.148V16.622a.148.148,0,0,1,.148-.148h56.59a.148.148,0,0,1,.148.148V18.8a.148.148,0,0,1-.148.148ZM6.084,23.2a.148.148,0,0,1-.148-.148V20.72H54.5v2.328a.148.148,0,0,1-.148.148H6.084ZM45,24.966v25.2H40.4v-25.2Zm-6.377,0v25.2H34.262v-25.2Zm-6.134,0v25.2H27.886v-25.2Zm-6.377,0v25.2H21.751v-25.2Zm-6.134,0v25.2H15.374v-25.2Zm-6.377,0v25.2H9.24v-25.2ZM5.936,52.085a.148.148,0,0,1,.148-.148h48.27a.148.148,0,0,1,.148.148v2.327H5.936Z" transform="translate(0 0)"/>
    </g>
  </g>
</svg>
