<svg xmlns="http://www.w3.org/2000/svg" xmlns:xlink="http://www.w3.org/1999/xlink" width="103" height="103" viewBox="0 0 103 103">
  <defs>
    <filter id="Trazado_904820" x="0" y="0" width="103" height="103" filterUnits="userSpaceOnUse">
      <feOffset dy="3" input="SourceAlpha"/>
      <feGaussianBlur stdDeviation="3" result="blur"/>
      <feFlood flood-opacity="0.161"/>
      <feComposite operator="in" in2="blur"/>
      <feComposite in="SourceGraphic"/>
    </filter>
  </defs>
  <g id="Grupo_1222708" data-name="Grupo 1222708" transform="translate(-171 -2368)">
    <g id="Grupo_1221049" data-name="Grupo 1221049" transform="translate(5 -7973)">
      <g id="Grupo_1219296" data-name="Grupo 1219296" transform="translate(175 10347)">
        <g id="Grupo_1218002" data-name="Grupo 1218002" transform="translate(0 0)">
          <g id="Grupo_1211578" data-name="Grupo 1211578">
            <g id="Grupo_1207774" data-name="Grupo 1207774" transform="translate(0)">
              <g id="Grupo_1206630" data-name="Grupo 1206630" transform="translate(0)">
                <g id="Grupo_1185091" data-name="Grupo 1185091">
                  <g id="Grupo_1179560" data-name="Grupo 1179560">
                    <g id="Grupo_1173787" data-name="Grupo 1173787">
                      <g id="Grupo_1171910" data-name="Grupo 1171910">
                        <g id="Grupo_1167341" data-name="Grupo 1167341">
                          <g id="Grupo_1166792" data-name="Grupo 1166792">
                            <g transform="matrix(1, 0, 0, 1, -9, -6)" filter="url(#Trazado_904820)">
                              <g id="Trazado_904820-2" data-name="Trazado 904820" transform="translate(9 6)" fill="#e5f0f6">
                                <path d="M 42.49999618530273 83.50018310546875 C 36.96437454223633 83.50018310546875 31.59512519836426 82.41635894775391 26.54140853881836 80.27880859375 C 21.65933799743652 78.2138671875 17.27447891235352 75.25739288330078 13.50861930847168 71.49153137207031 C 9.742773056030273 67.72567749023438 6.786314010620117 63.34079360961914 4.721360683441162 58.45870971679688 C 2.583819627761841 53.40498352050781 1.499996185302734 48.03572463989258 1.499996185302734 42.50008773803711 C 1.499996185302734 36.96445083618164 2.583819627761841 31.59519386291504 4.721360683441162 26.54146385192871 C 6.786314010620117 21.65938186645508 9.742773056030273 17.27451133728027 13.50861930847168 13.50865268707275 C 17.27447891235352 9.742794036865234 21.65933799743652 6.786323070526123 26.54140853881836 4.721381664276123 C 31.59512519836426 2.583828926086426 36.96437454223633 1.50000536441803 42.49999618530273 1.50000536441803 C 48.03561782836914 1.50000536441803 53.40486526489258 2.583828926086426 58.45858383178711 4.721381664276123 C 63.34065628051758 6.786323070526123 67.72551727294922 9.742794036865234 71.49137115478516 13.50865268707275 C 75.25721740722656 17.27451133728027 78.21367645263672 21.65938186645508 80.27863311767578 26.54146385192871 C 82.41617584228516 31.59519386291504 83.5 36.96445083618164 83.5 42.50008773803711 C 83.5 48.03572463989258 82.41617584228516 53.40498352050781 80.27863311767578 58.45870971679688 C 78.21367645263672 63.34079360961914 75.25721740722656 67.72567749023438 71.49137115478516 71.49153137207031 C 67.72551727294922 75.25739288330078 63.34065628051758 78.2138671875 58.45858383178711 80.27880859375 C 53.40486526489258 82.41635894775391 48.03561782836914 83.50018310546875 42.49999618530273 83.50018310546875 Z" stroke="none"/>
                                <path d="M 42.49999618530273 2.999992370605469 C 37.16621017456055 2.999992370605469 31.99356842041016 4.043952941894531 27.1257438659668 6.102874755859375 C 22.42246246337891 8.092193603515625 18.19786071777344 10.94071197509766 14.56929016113281 14.56929779052734 C 10.94070434570312 18.19789123535156 8.092193603515625 22.42250061035156 6.102874755859375 27.12579345703125 C 4.043952941894531 31.99362182617188 2.999992370605469 37.16628646850586 2.999992370605469 42.50008773803711 C 2.999992370605469 47.83388900756836 4.043952941894531 53.00653839111328 6.102874755859375 57.87438201904297 C 8.092193603515625 62.57765960693359 10.94070434570312 66.80227661132812 14.56929016113281 70.43086242675781 C 18.19786071777344 74.0594482421875 22.42246246337891 76.90796661376953 27.1257438659668 78.89728546142578 C 31.99356842041016 80.95620727539062 37.16621017456055 82.00016784667969 42.49999618530273 82.00016784667969 C 47.83378219604492 82.00016784667969 53.00642395019531 80.95620727539062 57.87425231933594 78.89728546142578 C 62.57752990722656 76.90796661376953 66.80213165283203 74.0594482421875 70.43070220947266 70.43086242675781 C 74.05928802490234 66.80227661132812 76.90779876708984 62.57765960693359 78.89711761474609 57.87438201904297 C 80.95603942871094 53.00653839111328 82 47.83388900756836 82 42.50008773803711 C 82 37.16628646850586 80.95603942871094 31.99362182617188 78.89711761474609 27.12579345703125 C 76.90779876708984 22.42250061035156 74.05928802490234 18.19789123535156 70.43070220947266 14.56929779052734 C 66.80213165283203 10.94071197509766 62.57752990722656 8.092193603515625 57.87425231933594 6.102874755859375 C 53.00642395019531 4.043952941894531 47.83378219604492 2.999992370605469 42.49999618530273 2.999992370605469 M 42.49999618530273 -7.62939453125e-06 C 65.97209167480469 -7.62939453125e-06 85 19.02793884277344 85 42.50008773803711 C 85 65.97223663330078 65.97209167480469 85.00016784667969 42.49999618530273 85.00016784667969 C 19.02790069580078 85.00016784667969 -7.62939453125e-06 65.97223663330078 -7.62939453125e-06 42.50008773803711 C -7.62939453125e-06 19.02793884277344 19.02790069580078 -7.62939453125e-06 42.49999618530273 -7.62939453125e-06 Z" stroke="none" fill="#1172b3"/>
                              </g>
                            </g>
                          </g>
                        </g>
                      </g>
                    </g>
                  </g>
                </g>
              </g>
            </g>
          </g>
        </g>
      </g>
    </g>
    <g id="ley-internacional" transform="translate(194.35 2388.352)">
      <path id="Trazado_1174753" data-name="Trazado 1174753" d="M243.2,26.326h3.477V49.509H243.2Z" transform="translate(-216.456 -23.431)" fill="#d77953"/>
      <path id="Trazado_1174754" data-name="Trazado 1174754" d="M237.174,26.326h2.07V49.509h-2.07Z" transform="translate(-211.094 -23.431)" fill="#cb6848"/>
      <path id="Trazado_1174755" data-name="Trazado 1174755" d="M229.493,218.349h-2.7c-3.338,0-3.671.988-3.671,2.208v3.5H231.7v-3.5A2.207,2.207,0,0,0,229.493,218.349Z" transform="translate(-198.583 -194.341)" fill="#5c547e"/>
      <path id="Trazado_1174756" data-name="Trazado 1174756" d="M215.841,218.349h-2.815a2.207,2.207,0,0,0-2.208,2.208v3.5h2.815v-3.5A2.207,2.207,0,0,1,215.841,218.349Z" transform="translate(-187.636 -194.341)" fill="#453b5e"/>
      <path id="Trazado_1174757" data-name="Trazado 1174757" d="M147.616,9.57a2.069,2.069,0,0,0-2.07-2.07H117.809c-3.606,0-4.048.926-4.048,2.07s.442,2.07,4.048,2.07h27.737A2.069,2.069,0,0,0,147.616,9.57Z" transform="translate(-101.251 -6.675)" fill="#e28f6d"/>
      <path id="Trazado_1174758" data-name="Trazado 1174758" d="M94.887,9.57a2.069,2.069,0,0,1,2.07-2.07H92.4a2.07,2.07,0,1,0,0,4.14h4.554A2.069,2.069,0,0,1,94.887,9.57Z" transform="translate(-80.399 -6.675)" fill="#d77953"/>
      <g id="Grupo_1222707" data-name="Grupo 1222707" transform="translate(14.488 4.965)">
        <path id="Trazado_1174759" data-name="Trazado 1174759" d="M346.738,45.152v1.242a2.07,2.07,0,1,1-4.14,0V45.152Z" transform="translate(-319.415 -45.152)" fill="#5c547e"/>
        <path id="Trazado_1174760" data-name="Trazado 1174760" d="M135.89,45.152v1.242a2.07,2.07,0,1,1-4.14,0V45.152Z" transform="translate(-131.75 -45.152)" fill="#5c547e"/>
        <path id="Trazado_1174761" data-name="Trazado 1174761" d="M333.709,173.995v-.828h-7.866l-2.07.828c0,2.217.8,4.135,6,4.135A4.14,4.14,0,0,0,333.709,173.995Z" transform="translate(-302.66 -159.091)" fill="#5c547e"/>
      </g>
      <path id="Trazado_1174762" data-name="Trazado 1174762" d="M312.439,173.995v-.828h-3.726v.828a4.14,4.14,0,0,0,4.14,4.14c3.48,0,3.328,0,3.519-.005A4.14,4.14,0,0,1,312.439,173.995Z" transform="translate(-274.767 -154.127)" fill="#453b5e"/>
      <path id="Trazado_1174763" data-name="Trazado 1174763" d="M122.86,173.995v-.828h-7.866l-2.07.828c0,2.217.8,4.135,6,4.135A4.14,4.14,0,0,0,122.86,173.995Z" transform="translate(-100.506 -154.127)" fill="#5c547e"/>
      <path id="Trazado_1174764" data-name="Trazado 1174764" d="M101.59,173.995v-.828H97.864v.828a4.14,4.14,0,0,0,4.14,4.14c3.48,0,3.327,0,3.519-.005A4.14,4.14,0,0,1,101.59,173.995Z" transform="translate(-87.101 -154.127)" fill="#453b5e"/>
      <path id="Trazado_1174765" data-name="Trazado 1174765" d="M170.6,253.912h-9.064l-18.154,1.933c-11.671,2.271-14.155,17.947-3.55,24.479q1.526.513,3.136.9a27.741,27.741,0,0,0,10.982-.748,35.389,35.389,0,0,0,18.992-18.411,27.725,27.725,0,0,0,.963-4.337A3.347,3.347,0,0,0,170.6,253.912Z" transform="translate(-118.464 -225.994)" fill="#6dc34d"/>
      <path id="Trazado_1174766" data-name="Trazado 1174766" d="M31.6,255.844l-10.17-1.933H10.844a3.345,3.345,0,0,0-3.305,3.816A27.348,27.348,0,0,0,9,263.533c4.418,8.451,10.787,14.015,19.043,16.79A40.172,40.172,0,0,1,31.6,255.844Z" transform="translate(-6.678 -225.993)" fill="#58b232"/>
      <path id="Trazado_1174767" data-name="Trazado 1174767" d="M341.711,316.277a27.609,27.609,0,0,1-18.992,18.411,5.468,5.468,0,0,1,1.566-3.64l1.157-1.185a6.5,6.5,0,0,0,1.7-5.885,7.582,7.582,0,0,1,9.113-8.96h0C336.272,315.019,336.094,314.981,341.711,316.277Z" transform="translate(-287.233 -280.205)" fill="#5fd8fb"/>
      <path id="Trazado_1174768" data-name="Trazado 1174768" d="M162.11,426.99a4.889,4.889,0,0,0-2.95-9.088,5.479,5.479,0,0,1-1.021.006c-4.27.772-6.192,6.4.595,8.666a27.432,27.432,0,0,0,3.08.588Z" transform="translate(-137.311 -371.931)" fill="#5fd8fb"/>
      <path id="Trazado_1174769" data-name="Trazado 1174769" d="M39.628,329.533a5.456,5.456,0,0,1-4.945-4.832,6.715,6.715,0,0,0-9.527-5.486L21.124,321.1a27.6,27.6,0,0,0,19.1,17.1A38.373,38.373,0,0,1,39.628,329.533Z" transform="translate(-18.799 -283.556)" fill="#02c6f9"/>
      <path id="Trazado_1174770" data-name="Trazado 1174770" d="M183.74,260.59a6.418,6.418,0,0,1,5.485-2.557l1.634.09a5.46,5.46,0,0,0,5.616-4.213H179.4c-7.925.23-9.078,7.111-3.863,9.333A7.463,7.463,0,0,0,183.74,260.59Z" transform="translate(-153.403 -225.993)" fill="#5fd8fb"/>
      <path id="Trazado_1174771" data-name="Trazado 1174771" d="M134.11,253.912c1.155,2.2,3,5.711,3,5.72a7.385,7.385,0,0,0,4.38,3.613,35.512,35.512,0,0,1,3.863-9.333Z" transform="translate(-119.362 -225.994)" fill="#02c6f9"/>
      <path id="Trazado_1174772" data-name="Trazado 1174772" d="M52.135,27.094H33.943v-.878a3.036,3.036,0,0,0-2.9-3.029V5.789h5.8v.417A2.9,2.9,0,0,0,38.51,8.825l-5.287,9.819c-.165.3-.077.544-.1,1.224a4.97,4.97,0,0,0,4.964,4.964H41.4a4.97,4.97,0,0,0,4.964-4.964V19.04a.845.845,0,0,0-.1-.4L40.974,8.825a2.9,2.9,0,0,0,1.663-2.619V5.789H44.3A2.895,2.895,0,0,0,44.3,0H24.286a.825.825,0,1,0,0,1.649H44.3a1.245,1.245,0,0,1,0,2.491H12a1.245,1.245,0,1,1,0-2.491h8.418a.825.825,0,1,0,0-1.649H12a2.895,2.895,0,1,0,0,5.789h1.659v.417a2.9,2.9,0,0,0,1.662,2.619l-5.287,9.819a.844.844,0,0,0-.1.4v.828A4.97,4.97,0,0,0,14.9,24.833h3.312a4.97,4.97,0,0,0,4.965-4.964V19.04a.847.847,0,0,0-.1-.4L17.79,8.825a2.9,2.9,0,0,0,1.663-2.619V5.789h5.8v17.4a3.036,3.036,0,0,0-2.9,3.029v.878H4.165A4.171,4.171,0,0,0,.043,31.848,28.381,28.381,0,0,0,48.829,47.353a.825.825,0,0,0-1.2-1.13,26.763,26.763,0,0,1-11.112,7.086,4.689,4.689,0,0,1,1.126-1.89L38.8,50.234A7.291,7.291,0,0,0,40.717,43.6a6.757,6.757,0,0,1,8.1-7.988l.062.014c1.459.327-2.965-.683,4.529,1.046A26.554,26.554,0,0,1,50,43.322a.825.825,0,1,0,1.347.952,28.184,28.184,0,0,0,4.911-12.426,4.171,4.171,0,0,0-4.122-4.754ZM41.906,28.743a4.625,4.625,0,0,1-4.4,2.565l-1.634-.09a7.216,7.216,0,0,0-6.19,2.885,6.669,6.669,0,0,1-11.2-.853l0,0c-.063-.119-1.653-3.15-2.362-4.5Zm-.508-5.56H38.086a3.319,3.319,0,0,1-3.315-3.315v0h9.942v0A3.319,3.319,0,0,1,41.4,23.183Zm-6.071-4.968,4.415-8.2,4.415,8.2Zm5.66-12.009a1.245,1.245,0,0,1-2.491,0V5.789h2.491ZM18.214,23.183H14.9a3.319,3.319,0,0,1-3.315-3.315v0H21.53v0A3.319,3.319,0,0,1,18.214,23.183Zm-6.071-4.968,4.415-8.2,4.415,8.2ZM17.8,6.206a1.245,1.245,0,0,1-2.491,0V5.789H17.8ZM29.4,5.789V23.183H26.9V5.789ZM24.007,26.216a1.385,1.385,0,0,1,1.383-1.383h5.52a1.385,1.385,0,0,1,1.383,1.383v.878H24.007ZM3.375,37.96l3.33-1.554a5.89,5.89,0,0,1,8.348,4.737,6.3,6.3,0,0,0,6.879,5.648,4.065,4.065,0,0,1,2.4,7.583A26.775,26.775,0,0,1,3.375,37.96ZM49.21,34.01A8.406,8.406,0,0,0,39.1,43.947a5.646,5.646,0,0,1-1.485,5.136l-1.157,1.185a6.323,6.323,0,0,0-1.746,3.565,26.83,26.83,0,0,1-8.086.77,5.712,5.712,0,0,0-4.862-9.452,4.647,4.647,0,0,1-5.064-4.1,7.54,7.54,0,0,0-10.7-6.142L2.8,36.408a26.526,26.526,0,0,1-1.124-4.787,2.521,2.521,0,0,1,2.489-2.878H14.249c1.837,3.5,2.675,5.1,2.773,5.283h0A8.318,8.318,0,0,0,31,35.092a5.574,5.574,0,0,1,4.779-2.228l1.634.09a6.273,6.273,0,0,0,6.279-4.211h8.446a2.521,2.521,0,0,1,2.488,2.879,26.646,26.646,0,0,1-.72,3.472C50.4,34.286,51.429,34.521,49.21,34.01Z" transform="translate(0)"/>
    </g>
  </g>
</svg>
