<svg xmlns="http://www.w3.org/2000/svg" xmlns:xlink="http://www.w3.org/1999/xlink" width="113" height="113" viewBox="0 0 113 113">
  <defs>
    <filter id="Trazado_982547" x="0" y="0" width="113" height="113" filterUnits="userSpaceOnUse">
      <feOffset dy="3" input="SourceAlpha"/>
      <feGaussianBlur stdDeviation="3" result="blur"/>
      <feFlood flood-opacity="0.161"/>
      <feComposite operator="in" in2="blur"/>
      <feComposite in="SourceGraphic"/>
    </filter>
  </defs>
  <g id="Grupo_1221185" data-name="Grupo 1221185" transform="translate(-901 -1133.778)">
    <g id="Grupo_1220490" data-name="Grupo 1220490" transform="translate(0 190.509)">
      <g id="Grupo_1219625" data-name="Grupo 1219625" transform="translate(0 -5515.518)">
        <g id="Grupo_1203674" data-name="Grupo 1203674" transform="translate(0 557.5)">
          <g id="Grupo_1202434" data-name="Grupo 1202434" transform="translate(-0.56 1255.773)">
            <g id="Grupo_1202053" data-name="Grupo 1202053" transform="translate(0 3240.511)">
              <g id="Grupo_1177898" data-name="Grupo 1177898" transform="translate(910.561 1411.003)">
                <g id="Grupo_1172010" data-name="Grupo 1172010" transform="translate(0)">
                  <g id="Grupo_1171046" data-name="Grupo 1171046">
                    <g id="Grupo_1148525" data-name="Grupo 1148525">
                      <g transform="matrix(1, 0, 0, 1, -9, -6)" filter="url(#Trazado_982547)">
                        <g id="Trazado_982547-2" data-name="Trazado 982547" transform="translate(9 6)" fill="#f2d944">
                          <path d="M 47.5 93.5 C 41.28937149047852 93.5 35.26533508300781 92.28397369384766 29.59518623352051 89.88570404052734 C 24.11771965026855 87.56893157958984 19.19813346862793 84.25196075439453 14.97309303283691 80.02691650390625 C 10.74804019927979 75.80186462402344 7.431066513061523 70.88229370117188 5.114293098449707 65.40481567382812 C 2.716026782989502 59.73468017578125 1.5 53.71062850952148 1.5 47.5 C 1.5 41.28937149047852 2.716026782989502 35.26533508300781 5.114293098449707 29.59518623352051 C 7.431066513061523 24.11771965026855 10.74804019927979 19.19813346862793 14.97309303283691 14.97309303283691 C 19.19813346862793 10.74804019927979 24.11771965026855 7.431066513061523 29.59518623352051 5.114293098449707 C 35.26533508300781 2.716026782989502 41.28937149047852 1.5 47.5 1.5 C 53.71062850952148 1.5 59.73468017578125 2.716026782989502 65.40481567382812 5.114293098449707 C 70.88229370117188 7.431066513061523 75.80186462402344 10.74804019927979 80.02691650390625 14.97309303283691 C 84.25196075439453 19.19813346862793 87.56893157958984 24.11771965026855 89.88570404052734 29.59518623352051 C 92.28397369384766 35.26533508300781 93.5 41.28937149047852 93.5 47.5 C 93.5 53.71062850952148 92.28397369384766 59.73468017578125 89.88570404052734 65.40481567382812 C 87.56893157958984 70.88229370117188 84.25196075439453 75.80186462402344 80.02691650390625 80.02691650390625 C 75.80186462402344 84.25196075439453 70.88229370117188 87.56893157958984 65.40481567382812 89.88570404052734 C 59.73468017578125 92.28397369384766 53.71062850952148 93.5 47.5 93.5 Z" stroke="none"/>
                          <path d="M 47.5 3 C 41.49121475219727 3 35.66376876831055 4.176155090332031 30.17950439453125 6.495796203613281 C 24.88084411621094 8.736953735351562 20.12152099609375 11.94598388671875 16.03375244140625 16.03375244140625 C 11.94598388671875 20.12152099609375 8.736953735351562 24.88084411621094 6.495796203613281 30.17950439453125 C 4.176155090332031 35.66376876831055 3 41.49121475219727 3 47.5 C 3 53.50878524780273 4.176155090332031 59.33623123168945 6.495796203613281 64.82049560546875 C 8.736953735351562 70.11915588378906 11.94598388671875 74.87847900390625 16.03375244140625 78.96624755859375 C 20.12152099609375 83.05401611328125 24.88084411621094 86.26304626464844 30.17950439453125 88.50419616699219 C 35.66376876831055 90.82384490966797 41.49121475219727 92 47.5 92 C 53.50878524780273 92 59.33623123168945 90.82384490966797 64.82049560546875 88.50419616699219 C 70.11915588378906 86.26304626464844 74.87847900390625 83.05401611328125 78.96624755859375 78.96624755859375 C 83.05401611328125 74.87847900390625 86.26304626464844 70.11915588378906 88.50419616699219 64.82049560546875 C 90.82384490966797 59.33623123168945 92 53.50878524780273 92 47.5 C 92 41.49121475219727 90.82384490966797 35.66376876831055 88.50419616699219 30.17950439453125 C 86.26304626464844 24.88084411621094 83.05401611328125 20.12152099609375 78.96624755859375 16.03375244140625 C 74.87847900390625 11.94598388671875 70.11915588378906 8.736953735351562 64.82049560546875 6.495796203613281 C 59.33623123168945 4.176155090332031 53.50878524780273 3 47.5 3 M 47.5 0 C 73.7335205078125 0 95 21.2664794921875 95 47.5 C 95 73.7335205078125 73.7335205078125 95 47.5 95 C 21.2664794921875 95 0 73.7335205078125 0 47.5 C 0 21.2664794921875 21.2664794921875 0 47.5 0 Z" stroke="none" fill="#ba9c5a"/>
                        </g>
                      </g>
                    </g>
                  </g>
                </g>
              </g>
            </g>
          </g>
        </g>
      </g>
    </g>
    <g id="juez_1_" data-name="juez (1)" transform="translate(923.797 1152.238)">
      <path id="Trazado_1170140" data-name="Trazado 1170140" d="M47,12.464h4.178v8.672H47Z" transform="translate(1.871 0.511)" fill="#955a21"/>
      <path id="Trazado_1170141" data-name="Trazado 1170141" d="M13.694,43.832a3.693,3.693,0,0,1-2.612-6.3L19.4,29.208l10.445-2.089V24.326h6.267v2.793l10.445,2.089,4.178,14.624Z" transform="translate(0.223 1.039)" fill="#5a5b5d"/>
      <path id="Trazado_1170142" data-name="Trazado 1170142" d="M43.98,26.025,42.838,12.9l-.224-2.574A9.115,9.115,0,0,0,33.535,2H31.445a9.113,9.113,0,0,0-9.079,8.325L22.143,12.9,21,26.025Z" transform="translate(0.713 0.045)" fill="#955a21"/>
      <path id="Trazado_1170143" data-name="Trazado 1170143" d="M42.7,12.9l-.224-2.574A9.115,9.115,0,0,0,33.4,2H31.312a9.088,9.088,0,0,0-3.355.638,9.074,9.074,0,0,0-2.59,5.6l-.224,2.576L24,23.936H43.665Z" transform="translate(0.846 0.045)" fill="#ab692a"/>
      <path id="Trazado_1170144" data-name="Trazado 1170144" d="M39.624,18.4A7.312,7.312,0,1,1,25,18.4V11.089h3.776A29.213,29.213,0,0,0,39.623,9Z" transform="translate(0.891 0.356)" fill="#deb2ae"/>
      <path id="Trazado_1170145" data-name="Trazado 1170145" d="M25.178,12H23.611a2.611,2.611,0,0,0,0,5.223h1.567" transform="translate(0.713 0.49)" fill="#deb2ae"/>
      <path id="Trazado_1170146" data-name="Trazado 1170146" d="M39,12h1.567a2.611,2.611,0,1,1,0,5.223H39" transform="translate(1.515 0.49)" fill="#deb2ae"/>
      <path id="Trazado_1170147" data-name="Trazado 1170147" d="M8,47H58.138V63.713H8Z" transform="translate(0.134 2.049)" fill="#ab692a"/>
      <g id="Grupo_1221184" data-name="Grupo 1221184" transform="translate(8.134 52.183)">
        <path id="Trazado_1170148" data-name="Trazado 1170148" d="M8,50H58.138v2.089H8Z" transform="translate(-8 -50)" fill="#b4b5b9"/>
        <path id="Trazado_1170149" data-name="Trazado 1170149" d="M26,63.356V55H38.535v8.356" transform="translate(-7.198 -49.777)" fill="#b4b5b9"/>
        <path id="Trazado_1170150" data-name="Trazado 1170150" d="M12,63.356V55H22.445v8.356" transform="translate(-7.822 -49.777)" fill="#b4b5b9"/>
        <path id="Trazado_1170151" data-name="Trazado 1170151" d="M42,63.356V55H52.445v8.356" transform="translate(-6.485 -49.777)" fill="#b4b5b9"/>
      </g>
      <path id="Trazado_1170152" data-name="Trazado 1170152" d="M53.356,39.579V26H45V39.579a4.178,4.178,0,1,0,8.356,0Z" transform="translate(1.782 1.114)" fill="#424344"/>
      <path id="Trazado_1170153" data-name="Trazado 1170153" d="M46,26.267V23.134a3.134,3.134,0,1,1,6.267,0v3.134" transform="translate(1.827 0.846)" fill="#fbe2d9"/>
      <path id="Trazado_1170154" data-name="Trazado 1170154" d="M37.445,43.508,35.728,31.6H28.717L27,43.508Z" transform="translate(0.98 1.363)" fill="#dcdddf"/>
      <circle id="Elipse_14574" data-name="Elipse 14574" cx="4.5" cy="4.5" r="4.5" transform="translate(46.406 4.762)" fill="#dc8039"/>
      <ellipse id="Elipse_14575" data-name="Elipse 14575" cx="2.5" cy="2" rx="2.5" ry="2" transform="translate(48.406 7.762)" fill="#955a21"/>
      <path id="Trazado_1170155" data-name="Trazado 1170155" d="M29.343,27l3.134,6.266L21.3,28.61" transform="translate(0.726 1.158)" fill="#b4b5b9"/>
      <path id="Trazado_1170156" data-name="Trazado 1170156" d="M35.134,27,32,33.266,43.18,28.61" transform="translate(1.203 1.158)" fill="#b4b5b9"/>
      <path id="Trazado_1170157" data-name="Trazado 1170157" d="M25,12.089v6.267a7.312,7.312,0,1,0,14.624,0V10a29.214,29.214,0,0,1-10.848,2.089Z" transform="translate(0.891 0.401)" fill="#fbe2d9"/>
      <path id="Trazado_1170158" data-name="Trazado 1170158" d="M35.267,24.32v2.8l-3.134,6.267L29,27.119v-2.8A7.268,7.268,0,0,0,35.267,24.32Z" transform="translate(1.069 1.039)" fill="#deb2ae"/>
      <path id="Trazado_1170159" data-name="Trazado 1170159" d="M29,26.386v.641l3.134,6.267,3.134-6.267v-.641a7.976,7.976,0,0,1-6.267,0Z" transform="translate(1.069 1.131)" fill="#fbe2d9"/>
      <path id="Trazado_1170160" data-name="Trazado 1170160" d="M23,37h2.089a3.134,3.134,0,1,1,0,6.267H23" transform="translate(0.802 1.604)" fill="#fbe2d9"/>
      <path id="Trazado_1170161" data-name="Trazado 1170161" d="M24.312,43.356H22.223V37.089H17V35h6.267a1.045,1.045,0,0,1,1.045,1.045Z" transform="translate(0.535 1.515)" fill="#77787c"/>
      <path id="Trazado_1170162" data-name="Trazado 1170162" d="M6,43H60.317v4.178H6Z" transform="translate(0.045 1.871)" fill="#955a21"/>
      <path id="Trazado_1170163" data-name="Trazado 1170163" d="M10.089,45.089H60.227V43H8A2.089,2.089,0,0,0,10.089,45.089Z" transform="translate(0.134 1.871)" fill="#ab692a"/>
      <path id="Trazado_1170164" data-name="Trazado 1170164" d="M6,43H60.317v4.178H6Z" transform="translate(0.045 1.871)" fill="#955a21"/>
      <path id="Trazado_1170165" data-name="Trazado 1170165" d="M13,55h9.4v7.312H13Z" transform="translate(0.356 2.406)" fill="#dcdddf"/>
      <path id="Trazado_1170166" data-name="Trazado 1170166" d="M27,55H38.49v7.312H27Z" transform="translate(0.98 2.406)" fill="#dcdddf"/>
      <path id="Trazado_1170167" data-name="Trazado 1170167" d="M43,55h9.4v7.312H43Z" transform="translate(1.693 2.406)" fill="#dcdddf"/>
      <path id="Trazado_1170168" data-name="Trazado 1170168" d="M59.317,65.762V50.094h1.045a1.045,1.045,0,0,0,1.045-1.045V44.871a1.045,1.045,0,0,0-1.045-1.045h-5.25a5.168,5.168,0,0,0,1.072-3.134V27.114a1.045,1.045,0,0,0-1.045-1.045V23.98a4.14,4.14,0,0,0-1.045-2.737V13.507a5.223,5.223,0,1,0-6.267,0v7.739a4.139,4.139,0,0,0-1.045,2.734v2.089a1.045,1.045,0,0,0-1.045,1.045v1.859L37.381,27.3v-.188h7.312a1.045,1.045,0,0,0,1.045-1.135l-.754-8.67a3.6,3.6,0,0,0-.424-4.879l-.187-2.147A10.1,10.1,0,0,0,34.247,1H32.158a10.1,10.1,0,0,0-10.12,9.278l-.187,2.149a3.6,3.6,0,0,0-.424,4.879l-.759,8.673a1.045,1.045,0,0,0,1.045,1.135h7.312V27.3l-9.61,1.921a1.045,1.045,0,0,0-.534.285l-8.319,8.32a4.732,4.732,0,0,0-.572,6H6.045A1.045,1.045,0,0,0,5,44.871v4.178a1.045,1.045,0,0,0,1.045,1.045H7.089V65.762H9.178V54.272H57.227v11.49ZM47.827,40.693V28.158h6.267V40.693a3.134,3.134,0,0,1-6.267,0ZM50.96,6.223a3.134,3.134,0,1,1-3.134,3.134A3.134,3.134,0,0,1,50.96,6.223Zm0,8.356a5.223,5.223,0,0,0,1.045-.1v5.477A4.187,4.187,0,0,0,50.96,19.8a4.1,4.1,0,0,0-1.045.148V14.475A5.223,5.223,0,0,0,50.96,14.579Zm-2.089,9.4a2.089,2.089,0,1,1,4.178,0v2.089H48.871ZM46.809,43.827H39.33L37.857,33.617l6.632-2.763,1.253.25v9.589A5.168,5.168,0,0,0,46.809,43.827ZM24.846,39.648h1.045a2.089,2.089,0,1,1,0,4.178H24.846Zm5.223,2.089a4.146,4.146,0,0,0-.344-1.651l.814-5.641,2.25.94H32.8a1.029,1.029,0,0,0,.808,0h.008l2.25-.94,1.358,9.38h-7.73a4.135,4.135,0,0,0,.578-2.092ZM33.2,25.025a6.274,6.274,0,0,1-6.267-6.267V12.49h2.731a30.105,30.105,0,0,0,9.8-1.632v7.9A6.274,6.274,0,0,1,33.2,25.025Zm0,2.089a8.307,8.307,0,0,0,2.089-.275v1.073L33.2,32.09l-2.089-4.178V26.839a8.307,8.307,0,0,0,2.089.275Zm7.616,3.006L35.4,32.38l1.521-3.042Zm-2.107-5.1a8.331,8.331,0,0,0,2.847-6.267h.522A3.586,3.586,0,0,0,43,18.627l.556,6.4Zm2.847-11.49h.522a1.567,1.567,0,1,1,0,3.134h-.522ZM24.115,10.459a8.024,8.024,0,0,1,8.043-7.37h2.089a8.026,8.026,0,0,1,8.043,7.372l.088,1.013c-.1-.007-.192-.029-.3-.029h-.522V9.356a1.045,1.045,0,0,0-1.433-.97A28,28,0,0,1,29.667,10.4H25.891a1.045,1.045,0,0,0-1.045,1.045h-.522c-.1,0-.2.022-.294.029Zm.731,6.209h-.522a1.567,1.567,0,0,1,0-3.134h.522Zm-1.438,1.959a3.586,3.586,0,0,0,.916.131h.522a8.331,8.331,0,0,0,2.847,6.267H22.852Zm6.083,10.712,1.518,3.042-5.426-2.26ZM11.267,41.179a2.632,2.632,0,0,1,.776-1.873l8.1-8.1,1.776-.355,6.632,2.763L27.9,38.1a4.122,4.122,0,0,0-2.009-.539H24.846A1.045,1.045,0,0,0,23.8,36.515H17.535V38.6h5.223v5.223H13.916a2.652,2.652,0,0,1-2.649-2.648ZM7.089,45.916H59.317V48H7.089Zm2.089,6.267V50.094H57.227v2.089Z" transform="translate(0 0)"/>
      <path id="Trazado_1170169" data-name="Trazado 1170169" d="M39.624,63.4V55.045A1.045,1.045,0,0,0,38.579,54H26.045A1.045,1.045,0,0,0,25,55.045V63.4h2.089V56.089H37.535V63.4Z" transform="translate(0.891 2.361)"/>
      <path id="Trazado_1170170" data-name="Trazado 1170170" d="M23.535,63.4V55.045A1.045,1.045,0,0,0,22.49,54H12.045A1.045,1.045,0,0,0,11,55.045V63.4h2.089V56.089h8.356V63.4Z" transform="translate(0.267 2.361)"/>
      <path id="Trazado_1170171" data-name="Trazado 1170171" d="M53.535,63.4V55.045A1.045,1.045,0,0,0,52.49,54H42.045A1.045,1.045,0,0,0,41,55.045V63.4h2.089V56.089h8.356V63.4Z" transform="translate(1.604 2.361)"/>
    </g>
  </g>
</svg>
