<svg xmlns="http://www.w3.org/2000/svg" xmlns:xlink="http://www.w3.org/1999/xlink" width="108" height="108" viewBox="0 0 108 108">
  <defs>
    <filter id="Trazado_904820" x="0" y="0" width="108" height="108" filterUnits="userSpaceOnUse">
      <feOffset dy="3" input="SourceAlpha"/>
      <feGaussianBlur stdDeviation="3" result="blur"/>
      <feFlood flood-opacity="0.161"/>
      <feComposite operator="in" in2="blur"/>
      <feComposite in="SourceGraphic"/>
    </filter>
  </defs>
  <g id="Grupo_1222706" data-name="Grupo 1222706" transform="translate(-614.117 -5503)">
    <g id="Grupo_1221054" data-name="Grupo 1221054" transform="translate(623.117 5509)">
      <g id="Grupo_1203639" data-name="Grupo 1203639" transform="translate(0 0)">
        <g id="Grupo_1202437" data-name="Grupo 1202437" transform="translate(0 0)">
          <g id="Grupo_1177315" data-name="Grupo 1177315" transform="translate(0 0)">
            <g id="Grupo_1173585" data-name="Grupo 1173585" transform="translate(0 0)">
              <g id="Grupo_1173428" data-name="Grupo 1173428">
                <g id="Grupo_1171958" data-name="Grupo 1171958">
                  <g id="Grupo_1167341" data-name="Grupo 1167341">
                    <g id="Grupo_1166792" data-name="Grupo 1166792">
                      <g transform="matrix(1, 0, 0, 1, -9, -6)" filter="url(#Trazado_904820)">
                        <g id="Trazado_904820-2" data-name="Trazado 904820" transform="translate(9 6)" fill="#fdfaeb">
                          <path d="M 44.99999618530273 88.49994659423828 C 39.12687301635742 88.49994659423828 33.43022155761719 87.35002136230469 28.06829643249512 85.08212280273438 C 22.88852119445801 82.89125823974609 18.23629570007324 79.75454711914062 14.24084663391113 75.75910186767578 C 10.24540901184082 71.76364898681641 7.108683586120605 67.11143493652344 4.917821407318115 61.93165969848633 C 2.649921178817749 56.56973648071289 1.499996185302734 50.87309646606445 1.499996185302734 44.99997329711914 C 1.499996185302734 39.12685012817383 2.649921178817749 33.43021011352539 4.917821407318115 28.06828498840332 C 7.108683586120605 22.88851165771484 10.24540901184082 18.23629760742188 14.24084663391113 14.24084854125977 C 18.23629570007324 10.24539852142334 22.88852119445801 7.108685970306396 28.06829643249512 4.917823314666748 C 33.43022155761719 2.649923324584961 39.12687301635742 1.499998331069946 44.99999618530273 1.499998331069946 C 50.87311935424805 1.499998331069946 56.56977081298828 2.649923324584961 61.93169784545898 4.917823314666748 C 67.11147308349609 7.108685970306396 71.76369476318359 10.24539852142334 75.75914764404297 14.24084854125977 C 79.75458526611328 18.23629760742188 82.89131164550781 22.88851165771484 85.08216857910156 28.06828498840332 C 87.35007476806641 33.43021011352539 88.5 39.12685012817383 88.5 44.99997329711914 C 88.5 50.87309646606445 87.35007476806641 56.56973648071289 85.08216857910156 61.93165969848633 C 82.89131164550781 67.11143493652344 79.75458526611328 71.76364898681641 75.75914764404297 75.75910186767578 C 71.76369476318359 79.75454711914062 67.11147308349609 82.89125823974609 61.93169784545898 85.08212280273438 C 56.56977081298828 87.35002136230469 50.87311935424805 88.49994659423828 44.99999618530273 88.49994659423828 Z" stroke="none"/>
                          <path d="M 44.99999618530273 3 C 39.32870864868164 3 33.82865142822266 4.110061645507812 28.65262603759766 6.299331665039062 C 23.65165710449219 8.414573669433594 19.15968322753906 11.44332885742188 15.301513671875 15.30149841308594 C 11.44333648681641 19.15969085693359 8.414566040039062 23.65164184570312 6.299339294433594 28.65261459350586 C 4.110054016113281 33.82864379882812 2.999992370605469 39.32868576049805 2.999992370605469 44.99997329711914 C 2.999992370605469 50.67126083374023 4.110054016113281 56.17130279541016 6.299339294433594 61.34732818603516 C 8.414566040039062 66.34829711914062 11.44333648681641 70.84025573730469 15.301513671875 74.69844055175781 C 19.15968322753906 78.55661773681641 23.65165710449219 81.58537292480469 28.65262603759766 83.70061492919922 C 33.82865142822266 85.88988494873047 39.32870864868164 86.99994659423828 44.99999618530273 86.99994659423828 C 50.67128372192383 86.99994659423828 56.17134094238281 85.88988494873047 61.34736633300781 83.70061492919922 C 66.34834289550781 81.58537292480469 70.84030914306641 78.55661773681641 74.69847869873047 74.69844055175781 C 78.55665588378906 70.84025573730469 81.58542633056641 66.34829711914062 83.70065307617188 61.34732818603516 C 85.88993835449219 56.17130279541016 87 50.67126083374023 87 44.99997329711914 C 87 39.32868576049805 85.88993835449219 33.82864379882812 83.70065307617188 28.65261459350586 C 81.58542633056641 23.65164184570312 78.55665588378906 19.15969085693359 74.69847869873047 15.30149841308594 C 70.84030914306641 11.44332885742188 66.34834289550781 8.414573669433594 61.34736633300781 6.299331665039062 C 56.17134094238281 4.110061645507812 50.67128372192383 3 44.99999618530273 3 M 44.99999618530273 0 C 69.85281372070312 0 90 20.14717102050781 90 44.99997329711914 C 90 69.85277557373047 69.85281372070312 89.99994659423828 44.99999618530273 89.99994659423828 C 20.14717864990234 89.99994659423828 -7.62939453125e-06 69.85277557373047 -7.62939453125e-06 44.99997329711914 C -7.62939453125e-06 20.14717102050781 20.14717864990234 0 44.99999618530273 0 Z" stroke="none" fill="#847625"/>
                        </g>
                      </g>
                    </g>
                  </g>
                </g>
              </g>
            </g>
          </g>
        </g>
      </g>
    </g>
    <g id="estandar" transform="translate(631 5522)">
      <g id="Grupo_1222704" data-name="Grupo 1222704">
        <path id="Trazado_1174715" data-name="Trazado 1174715" d="M17,37V58a4,4,0,0,0,4,4H57a4,4,0,0,0,4-4V9a4,4,0,0,0-4-4H21a4,4,0,0,0-4,4V37Z" fill="#953528"/>
        <path id="Trazado_1174716" data-name="Trazado 1174716" d="M57,5H21a3.95,3.95,0,0,0-.489.049c0,.151-.011.3-.011.451A47,47,0,0,0,61,52.042V9A4,4,0,0,0,57,5Z" fill="#c64635"/>
        <path id="Trazado_1174717" data-name="Trazado 1174717" d="M21,44.333V56a2,2,0,0,0,2,2H55a2,2,0,0,0,2-2V11a2,2,0,0,0-2-2H23a2,2,0,0,0-2,2V44.333Z" fill="#d9d5ca"/>
        <path id="Trazado_1174718" data-name="Trazado 1174718" d="M9,34,3,43.979,9,43l2,5,6-11Z" fill="#5490f5"/>
        <path id="Trazado_1174719" data-name="Trazado 1174719" d="M25,34l6,9.979L25,43l-2,5L17,37Z" fill="#81b4fc"/>
        <path id="Trazado_1174720" data-name="Trazado 1174720" d="M21,12.34A47.029,47.029,0,0,0,57,51.305V11a2,2,0,0,0-2-2H23a2,2,0,0,0-2,2Z" fill="#e8e4d8"/>
        <path id="Trazado_1174721" data-name="Trazado 1174721" d="M48,12H30a2,2,0,0,1-2-2V4a2,2,0,0,1,2-2H48a2,2,0,0,1,2,2v6A2,2,0,0,1,48,12Z" fill="#d5d6d8"/>
        <path id="Trazado_1174722" data-name="Trazado 1174722" d="M29,25A12,12,0,0,1,5,25a12,12,0,0,1,24,0Z" fill="#ffc239"/>
        <circle id="Elipse_14589" data-name="Elipse 14589" cx="9" cy="9" r="9" transform="translate(8 16)" fill="#ffd55d"/>
        <g id="Grupo_1222691" data-name="Grupo 1222691">
          <path id="Trazado_1174723" data-name="Trazado 1174723" d="M15,29a.959.959,0,0,1-.16-.013,1,1,0,0,1-.734-.54l-2-4,1.789-.9,1.379,2.759,6.019-6.019,1.414,1.414-7,7A1,1,0,0,1,15,29Z" fill="#f4ac1c"/>
        </g>
        <path id="Trazado_1174724" data-name="Trazado 1174724" d="M48,2H31V7a2,2,0,0,0,2,2H50V4A2,2,0,0,0,48,2Z" fill="#f1f1f3"/>
        <g id="Grupo_1222692" data-name="Grupo 1222692">
          <path id="Trazado_1174725" data-name="Trazado 1174725" d="M34.667,24a1,1,0,0,1-.768-.36l-1.667-2,1.536-1.28.9,1.078,2.565-3.078,1.536,1.28-3.333,4a1,1,0,0,1-.767.36Z" fill="#c64635"/>
        </g>
        <g id="Grupo_1222693" data-name="Grupo 1222693">
          <path id="Trazado_1174726" data-name="Trazado 1174726" d="M34.667,34a1,1,0,0,1-.768-.359l-1.667-2,1.536-1.28.9,1.078,2.565-3.078,1.536,1.28-3.333,4a1,1,0,0,1-.767.359Z" fill="#c64635"/>
        </g>
        <g id="Grupo_1222694" data-name="Grupo 1222694">
          <path id="Trazado_1174727" data-name="Trazado 1174727" d="M41,19H54v2H41Z" fill="#88857c"/>
        </g>
        <g id="Grupo_1222695" data-name="Grupo 1222695">
          <path id="Trazado_1174728" data-name="Trazado 1174728" d="M41,22H54v2H41Z" fill="#88857c"/>
        </g>
        <g id="Grupo_1222696" data-name="Grupo 1222696">
          <path id="Trazado_1174729" data-name="Trazado 1174729" d="M41,29H54v2H41Z" fill="#88857c"/>
        </g>
        <g id="Grupo_1222697" data-name="Grupo 1222697">
          <path id="Trazado_1174730" data-name="Trazado 1174730" d="M41,32H54v2H41Z" fill="#88857c"/>
        </g>
        <g id="Grupo_1222698" data-name="Grupo 1222698">
          <path id="Trazado_1174731" data-name="Trazado 1174731" d="M34.667,44a1,1,0,0,1-.768-.359l-1.667-2,1.536-1.281.9,1.078,2.565-3.078,1.536,1.281-3.333,4a1,1,0,0,1-.767.359Z" fill="#c64635"/>
        </g>
        <g id="Grupo_1222699" data-name="Grupo 1222699">
          <path id="Trazado_1174732" data-name="Trazado 1174732" d="M34.667,54a1,1,0,0,1-.768-.359l-1.667-2,1.536-1.281.9,1.078,2.565-3.078,1.536,1.281-3.333,4a1,1,0,0,1-.767.359Z" fill="#c64635"/>
        </g>
        <g id="Grupo_1222700" data-name="Grupo 1222700">
          <path id="Trazado_1174733" data-name="Trazado 1174733" d="M41,39H54v2H41Z" fill="#88857c"/>
        </g>
        <g id="Grupo_1222701" data-name="Grupo 1222701">
          <path id="Trazado_1174734" data-name="Trazado 1174734" d="M41,42H54v2H41Z" fill="#88857c"/>
        </g>
        <g id="Grupo_1222702" data-name="Grupo 1222702">
          <path id="Trazado_1174735" data-name="Trazado 1174735" d="M41,49H54v2H41Z" fill="#88857c"/>
        </g>
        <g id="Grupo_1222703" data-name="Grupo 1222703">
          <path id="Trazado_1174736" data-name="Trazado 1174736" d="M41,52H54v2H41Z" fill="#88857c"/>
        </g>
      </g>
      <g id="Grupo_1222705" data-name="Grupo 1222705">
        <path id="Trazado_1174737" data-name="Trazado 1174737" d="M17,35A10,10,0,1,0,7,25,10.011,10.011,0,0,0,17,35Zm0-18a8,8,0,1,1-8,8A8.009,8.009,0,0,1,17,17Z"/>
        <path id="Trazado_1174738" data-name="Trazado 1174738" d="M14.84,28.987A.959.959,0,0,0,15,29a1,1,0,0,0,.707-.293l7-7-1.414-1.414-6.019,6.019L13.9,23.553l-1.789.9,2,4a1,1,0,0,0,.734.539Z"/>
        <path id="Trazado_1174739" data-name="Trazado 1174739" d="M2.172,44.539a1,1,0,0,0,.989.427l5.208-.85,1.7,4.255A1,1,0,0,0,10.94,49L11,49a1,1,0,0,0,.878-.521L16,40.921V58a5.006,5.006,0,0,0,5,5H57a5.006,5.006,0,0,0,5-5V9a5.006,5.006,0,0,0-5-5H51a3,3,0,0,0-3-3H30a3,3,0,0,0-3,3H21a5.006,5.006,0,0,0-5,5v3.051A13.1,13.1,0,0,0,4,24.992,12.734,12.734,0,0,0,7.678,34.1c.02.02.042.037.062.057l-5.6,9.308a1,1,0,0,0,.029,1.076ZM30,13H48a3,3,0,0,0,3-3h4a1,1,0,0,1,1,1V56a1,1,0,0,1-1,1H23a1,1,0,0,1-1-1V48.255l.122.224A1,1,0,0,0,23,49l.06,0a1,1,0,0,0,.869-.627l1.7-4.255,5.208.85a1,1,0,0,0,1.018-1.5l-5.589-9.3A12.884,12.884,0,0,0,30,25a13.075,13.075,0,0,0-8-11.988V11a1,1,0,0,1,1-1h4a3,3,0,0,0,3,3ZM24.728,35.488l4.3,7.156-3.87-.632a1,1,0,0,0-1.09.616L22.86,45.655,18.629,37.9a12.739,12.739,0,0,0,6.1-2.41ZM57,6a3,3,0,0,1,3,3V58a3,3,0,0,1-3,3H21a3,3,0,0,1-3-3V40.921l2,3.667V56a3,3,0,0,0,3,3H55a3,3,0,0,0,3-3V11a3,3,0,0,0-3-3H51V6ZM29,4a1,1,0,0,1,1-1H48a1,1,0,0,1,1,1v6a1,1,0,0,1-1,1H30a1,1,0,0,1-1-1ZM21,6h6V8H23a3,3,0,0,0-3,3v1.366a12.923,12.923,0,0,0-2-.315V9A3,3,0,0,1,21,6ZM6,25.009A11,11,0,1,1,28,25a10.9,10.9,0,0,1-3.211,7.822A11.114,11.114,0,0,1,9.1,32.695,10.744,10.744,0,0,1,6,25.009ZM9.285,35.467a13.047,13.047,0,0,0,6.095,2.416l-4.24,7.774L9.929,42.63a1,1,0,0,0-1.09-.616l-3.87.632Z"/>
        <path id="Trazado_1174740" data-name="Trazado 1174740" d="M34.667,24a1,1,0,0,0,.768-.36l3.333-4-1.536-1.28-2.565,3.078-.9-1.078-1.536,1.28,1.667,2a.994.994,0,0,0,.767.36Z"/>
        <path id="Trazado_1174741" data-name="Trazado 1174741" d="M34.667,34a1,1,0,0,0,.768-.359l3.333-4-1.536-1.28-2.565,3.078-.9-1.078-1.536,1.28,1.667,2a1,1,0,0,0,.767.359Z"/>
        <path id="Trazado_1174742" data-name="Trazado 1174742" d="M41,19H54v2H41Z"/>
        <path id="Trazado_1174743" data-name="Trazado 1174743" d="M41,22H54v2H41Z"/>
        <path id="Trazado_1174744" data-name="Trazado 1174744" d="M41,29H54v2H41Z"/>
        <path id="Trazado_1174745" data-name="Trazado 1174745" d="M41,32H54v2H41Z"/>
        <path id="Trazado_1174746" data-name="Trazado 1174746" d="M34.667,44a1,1,0,0,0,.768-.359l3.333-4L37.232,38.36l-2.565,3.078-.9-1.078-1.536,1.281,1.667,2a1,1,0,0,0,.767.359Z"/>
        <path id="Trazado_1174747" data-name="Trazado 1174747" d="M34.667,54a1,1,0,0,0,.768-.359l3.333-4L37.232,48.36l-2.565,3.078-.9-1.078-1.536,1.281,1.667,2a1,1,0,0,0,.767.359Z"/>
        <path id="Trazado_1174748" data-name="Trazado 1174748" d="M41,39H54v2H41Z"/>
        <path id="Trazado_1174749" data-name="Trazado 1174749" d="M41,42H54v2H41Z"/>
        <path id="Trazado_1174750" data-name="Trazado 1174750" d="M41,49H54v2H41Z"/>
        <path id="Trazado_1174751" data-name="Trazado 1174751" d="M41,52H54v2H41Z"/>
      </g>
    </g>
  </g>
</svg>
