<svg xmlns="http://www.w3.org/2000/svg" xmlns:xlink="http://www.w3.org/1999/xlink" width="113" height="113" viewBox="0 0 113 113">
  <defs>
    <filter id="Trazado_982547" x="0" y="0" width="113" height="113" filterUnits="userSpaceOnUse">
      <feOffset dy="3" input="SourceAlpha"/>
      <feGaussianBlur stdDeviation="3" result="blur"/>
      <feFlood flood-opacity="0.161"/>
      <feComposite operator="in" in2="blur"/>
      <feComposite in="SourceGraphic"/>
    </filter>
  </defs>
  <g id="Grupo_1221183" data-name="Grupo 1221183" transform="translate(-1216 -1133.491)">
    <g id="Grupo_1220491" data-name="Grupo 1220491" transform="translate(0 190.509)">
      <g id="Grupo_1219642" data-name="Grupo 1219642" transform="translate(0.575 -5515.518)">
        <g id="Grupo_1203675" data-name="Grupo 1203675" transform="translate(-0.575 557.5)">
          <g id="Grupo_1202435" data-name="Grupo 1202435" transform="translate(-0.56 1255.486)">
            <g id="Grupo_1202052" data-name="Grupo 1202052" transform="translate(1225.561 4651.514)">
              <g id="Grupo_1172010" data-name="Grupo 1172010" transform="translate(0)">
                <g id="Grupo_1171046" data-name="Grupo 1171046">
                  <g id="Grupo_1148525" data-name="Grupo 1148525">
                    <g transform="matrix(1, 0, 0, 1, -9, -6)" filter="url(#Trazado_982547)">
                      <g id="Trazado_982547-2" data-name="Trazado 982547" transform="translate(9 6)" fill="#f2d944">
                        <path d="M 47.5 93.5 C 41.28937149047852 93.5 35.26533508300781 92.28397369384766 29.59518623352051 89.88570404052734 C 24.11771965026855 87.56893157958984 19.19813346862793 84.25196075439453 14.97309303283691 80.02691650390625 C 10.74804019927979 75.80186462402344 7.431066513061523 70.88229370117188 5.114293098449707 65.40481567382812 C 2.716026782989502 59.73468017578125 1.5 53.71062850952148 1.5 47.5 C 1.5 41.28937149047852 2.716026782989502 35.26533508300781 5.114293098449707 29.59518623352051 C 7.431066513061523 24.11771965026855 10.74804019927979 19.19813346862793 14.97309303283691 14.97309303283691 C 19.19813346862793 10.74804019927979 24.11771965026855 7.431066513061523 29.59518623352051 5.114293098449707 C 35.26533508300781 2.716026782989502 41.28937149047852 1.5 47.5 1.5 C 53.71062850952148 1.5 59.73468017578125 2.716026782989502 65.40481567382812 5.114293098449707 C 70.88229370117188 7.431066513061523 75.80186462402344 10.74804019927979 80.02691650390625 14.97309303283691 C 84.25196075439453 19.19813346862793 87.56893157958984 24.11771965026855 89.88570404052734 29.59518623352051 C 92.28397369384766 35.26533508300781 93.5 41.28937149047852 93.5 47.5 C 93.5 53.71062850952148 92.28397369384766 59.73468017578125 89.88570404052734 65.40481567382812 C 87.56893157958984 70.88229370117188 84.25196075439453 75.80186462402344 80.02691650390625 80.02691650390625 C 75.80186462402344 84.25196075439453 70.88229370117188 87.56893157958984 65.40481567382812 89.88570404052734 C 59.73468017578125 92.28397369384766 53.71062850952148 93.5 47.5 93.5 Z" stroke="none"/>
                        <path d="M 47.5 3 C 41.49121475219727 3 35.66376876831055 4.176155090332031 30.17950439453125 6.495796203613281 C 24.88084411621094 8.736953735351562 20.12152099609375 11.94598388671875 16.03375244140625 16.03375244140625 C 11.94598388671875 20.12152099609375 8.736953735351562 24.88084411621094 6.495796203613281 30.17950439453125 C 4.176155090332031 35.66376876831055 3 41.49121475219727 3 47.5 C 3 53.50878524780273 4.176155090332031 59.33623123168945 6.495796203613281 64.82049560546875 C 8.736953735351562 70.11915588378906 11.94598388671875 74.87847900390625 16.03375244140625 78.96624755859375 C 20.12152099609375 83.05401611328125 24.88084411621094 86.26304626464844 30.17950439453125 88.50419616699219 C 35.66376876831055 90.82384490966797 41.49121475219727 92 47.5 92 C 53.50878524780273 92 59.33623123168945 90.82384490966797 64.82049560546875 88.50419616699219 C 70.11915588378906 86.26304626464844 74.87847900390625 83.05401611328125 78.96624755859375 78.96624755859375 C 83.05401611328125 74.87847900390625 86.26304626464844 70.11915588378906 88.50419616699219 64.82049560546875 C 90.82384490966797 59.33623123168945 92 53.50878524780273 92 47.5 C 92 41.49121475219727 90.82384490966797 35.66376876831055 88.50419616699219 30.17950439453125 C 86.26304626464844 24.88084411621094 83.05401611328125 20.12152099609375 78.96624755859375 16.03375244140625 C 74.87847900390625 11.94598388671875 70.11915588378906 8.736953735351562 64.82049560546875 6.495796203613281 C 59.33623123168945 4.176155090332031 53.50878524780273 3 47.5 3 M 47.5 0 C 73.7335205078125 0 95 21.2664794921875 95 47.5 C 95 73.7335205078125 73.7335205078125 95 47.5 95 C 21.2664794921875 95 0 73.7335205078125 0 47.5 C 0 21.2664794921875 21.2664794921875 0 47.5 0 Z" stroke="none" fill="#ba9c5a"/>
                      </g>
                    </g>
                  </g>
                </g>
              </g>
            </g>
          </g>
        </g>
      </g>
    </g>
    <g id="ley_1_" data-name="ley (1)" transform="translate(1191.401 1156.05)">
      <g id="Grupo_1221180" data-name="Grupo 1221180" transform="translate(57.476 0.906)">
        <path id="Trazado_1170118" data-name="Trazado 1170118" d="M110.464,62.075H64.069V12.994A5.494,5.494,0,0,1,69.563,7.5h40.9Z" transform="translate(-64.069 -7.5)" fill="#e19974"/>
        <path id="Trazado_1170119" data-name="Trazado 1170119" d="M415.606,7.5h3.907V62.075h-3.907Z" transform="translate(-373.118 -7.5)" fill="#dc8758"/>
        <path id="Trazado_1170120" data-name="Trazado 1170120" d="M64.069,12.994V62.075h5.494V7.5A5.494,5.494,0,0,0,64.069,12.994Z" transform="translate(-64.069 -7.5)" fill="#c86d36"/>
        <path id="Trazado_1170121" data-name="Trazado 1170121" d="M110.464,424.574h-40.9a5.494,5.494,0,0,1,0-10.988h40.9Z" transform="translate(-64.069 -364.505)" fill="#eaf6ff"/>
        <path id="Trazado_1170122" data-name="Trazado 1170122" d="M415.606,413.585h3.907v10.988h-3.907Z" transform="translate(-373.118 -364.504)" fill="#d8ecfe"/>
      </g>
      <g id="Grupo_1221181" data-name="Grupo 1221181" transform="translate(67.854 4.569)">
        <circle id="Elipse_14570" data-name="Elipse 14570" cx="3.296" cy="3.296" r="3.296" transform="translate(12.27)" fill="#ffe177"/>
        <path id="Trazado_1170123" data-name="Trazado 1170123" d="M224.134,224.829H208.995a.977.977,0,0,1-.977-.977v-1.221a.977.977,0,0,1,.977-.977h15.139a.977.977,0,0,1,.977.977v1.221A.977.977,0,0,1,224.134,224.829Z" transform="translate(-200.998 -199.434)" fill="#ffe177"/>
        <path id="Trazado_1170124" data-name="Trazado 1170124" d="M314.717,221.654h-3.663a.977.977,0,0,1,.977.977v1.221a.977.977,0,0,1-.977.977h3.663a.977.977,0,0,0,.977-.977v-1.221A.977.977,0,0,0,314.717,221.654Z" transform="translate(-291.58 -199.433)" fill="#ffd15b"/>
        <path id="Trazado_1170125" data-name="Trazado 1170125" d="M322.813,164.708h-6.427a2.442,2.442,0,0,1-2.442-2.442v-1.221h11.31v1.221A2.442,2.442,0,0,1,322.813,164.708Z" transform="translate(-294.121 -146.15)" fill="#ffe177"/>
        <path id="Trazado_1170126" data-name="Trazado 1170126" d="M359.459,161.045v1.221a2.442,2.442,0,0,1-2.442,2.442h3.663a2.442,2.442,0,0,0,2.442-2.442v-1.221Z" transform="translate(-331.988 -146.15)" fill="#ffd15b"/>
        <circle id="Elipse_14571" data-name="Elipse 14571" cx="1.954" cy="1.954" r="1.954" transform="translate(23.525 1.343)" fill="#ffd15b"/>
        <path id="Trazado_1170127" data-name="Trazado 1170127" d="M152.375,164.708H158.8a2.442,2.442,0,0,0,2.442-2.442v-1.221h-11.31v1.221A2.442,2.442,0,0,0,152.375,164.708Z" transform="translate(-149.933 -146.15)" fill="#ffe177"/>
        <path id="Trazado_1170128" data-name="Trazado 1170128" d="M195.448,161.045v1.221a2.442,2.442,0,0,1-2.442,2.442h3.663a2.442,2.442,0,0,0,2.442-2.442v-1.221Z" transform="translate(-187.8 -146.15)" fill="#ffd15b"/>
        <circle id="Elipse_14572" data-name="Elipse 14572" cx="1.954" cy="1.954" r="1.954" transform="translate(3.702 1.343)" fill="#ffe177"/>
      </g>
      <g id="Grupo_1221182" data-name="Grupo 1221182" transform="translate(56.57)">
        <path id="Trazado_1170129" data-name="Trazado 1170129" d="M103.871,10.341a.906.906,0,0,0,.906-.906V.906A.906.906,0,0,0,103.871,0h-40.9a6.408,6.408,0,0,0-6.4,6.4V38.919a.906.906,0,0,0,1.813,0V6.4a4.6,4.6,0,0,1,3.681-4.5V49.145a6.36,6.36,0,0,0-3.62,1.81c-.021.021-.04.043-.061.064v-7.87a.906.906,0,0,0-1.813,0V55.481a6.408,6.408,0,0,0,6.4,6.4h40.9a.906.906,0,0,0,.906-.906V13.665a.906.906,0,0,0-1.813,0V49.081h-11.8a.906.906,0,1,0,0,1.813h11.8v9.175H62.971a4.587,4.587,0,1,1,0-9.175H86.934a.906.906,0,1,0,0-1.813H63.877V1.813h39.088V9.435a.906.906,0,0,0,.906.906Z" transform="translate(-56.57)"/>
        <path id="Trazado_1170130" data-name="Trazado 1170130" d="M113.034,468.508h22.4a.906.906,0,1,0,0-1.813h-22.4a.906.906,0,1,0,0,1.813Z" transform="translate(-105.413 -410.289)"/>
        <path id="Trazado_1170131" data-name="Trazado 1170131" d="M340.431,466.695h-9.706a.906.906,0,1,0,0,1.813h9.706a.906.906,0,0,0,0-1.813Z" transform="translate(-296.792 -410.289)"/>
        <path id="Trazado_1170132" data-name="Trazado 1170132" d="M209.44,436.39H181.725a.906.906,0,1,0,0,1.813H209.44a.906.906,0,1,0,0-1.813Z" transform="translate(-165.802 -383.647)"/>
        <path id="Trazado_1170133" data-name="Trazado 1170133" d="M113.034,438.2h4.4a.906.906,0,1,0,0-1.813h-4.4a.906.906,0,1,0,0,1.813Z" transform="translate(-105.413 -383.647)"/>
        <path id="Trazado_1170134" data-name="Trazado 1170134" d="M237.81,304.566l.371-.975h2.579l.367.972a.906.906,0,0,0,1.7-.64l-2.362-6.26-.01-.025a1.047,1.047,0,0,0-.971-.651h0a1.047,1.047,0,0,0-.971.653l-.008.02-2.384,6.259a.907.907,0,0,0,1.694.645Zm2.266-2.788h-1.2l.6-1.588Z" transform="translate(-214.363 -261.093)"/>
        <path id="Trazado_1170135" data-name="Trazado 1170135" d="M192.833,296.988a.906.906,0,0,0-.906.906v6.349a.906.906,0,0,0,.906.906h2.225a.906.906,0,1,0,0-1.813H193.74v-5.442A.906.906,0,0,0,192.833,296.988Z" transform="translate(-175.567 -261.093)"/>
        <path id="Trazado_1170136" data-name="Trazado 1170136" d="M294.91,304.449a1.051,1.051,0,0,0,.989.7h.007a1.051,1.051,0,0,0,.987-.712l.008-.024,1.065-3.442,1.066,3.442.008.024a1.05,1.05,0,0,0,.987.712h.007a1.051,1.051,0,0,0,.989-.7.9.9,0,0,0,.035-.128l1.237-6.253a.906.906,0,1,0-1.779-.352l-.647,3.27-1.037-3.351a.907.907,0,0,0-1.732,0l-1.037,3.35-.647-3.27a.907.907,0,0,0-1.779.352l1.237,6.253A.922.922,0,0,0,294.91,304.449Z" transform="translate(-264.969 -261.09)"/>
        <path id="Trazado_1170137" data-name="Trazado 1170137" d="M150.009,376.686a.907.907,0,0,0,.906.906h29.3a.906.906,0,1,0,0-1.813h-29.3A.906.906,0,0,0,150.009,376.686Z" transform="translate(-138.716 -330.362)"/>
        <path id="Trazado_1170138" data-name="Trazado 1170138" d="M180.217,270.724h-29.3a.906.906,0,1,0,0,1.813h29.3a.906.906,0,1,0,0-1.813Z" transform="translate(-138.716 -238.003)"/>
        <path id="Trazado_1170139" data-name="Trazado 1170139" d="M175.379,46.107a.906.906,0,0,0-.906-.906h-1.081l-2.847-8.415a2.859,2.859,0,1,0-4.439-3.184h-3.1a4.2,4.2,0,0,0-8.207,0h-3.1a2.859,2.859,0,1,0-4.44,3.183L144.42,45.2h-1.081a.906.906,0,0,0-.906.906v1.221a3.352,3.352,0,0,0,3.348,3.348h6.427a3.352,3.352,0,0,0,3.348-3.348V46.107a.906.906,0,0,0-.906-.906h-1.081l-2.847-8.415a2.871,2.871,0,0,0,.985-1.371h3.1a4.215,4.215,0,0,0,3.2,3.2V52.526h-6.663a1.885,1.885,0,0,0-1.883,1.883V55.63a1.885,1.885,0,0,0,1.883,1.883h15.139a1.885,1.885,0,0,0,1.883-1.883V54.409a1.885,1.885,0,0,0-1.883-1.883h-6.663V38.611a4.215,4.215,0,0,0,3.2-3.2h3.1a2.87,2.87,0,0,0,.984,1.37L164.243,45.2h-1.081a.906.906,0,0,0-.906.906v1.221a3.352,3.352,0,0,0,3.348,3.348h6.427a3.352,3.352,0,0,0,3.348-3.348V46.107ZM148.995,33.461a1.047,1.047,0,1,1-1.047,1.047A1.048,1.048,0,0,1,148.995,33.461Zm4.749,13.867a1.537,1.537,0,0,1-1.535,1.535h-6.427a1.537,1.537,0,0,1-1.535-1.535v-.314h9.5ZM151.655,45.2h-5.321l2.649-7.833H149Zm14.891,9.209V55.63a.07.07,0,0,1-.07.07H151.336a.07.07,0,0,1-.07-.07V54.409a.07.07,0,0,1,.07-.07h15.139A.07.07,0,0,1,166.546,54.409ZM158.906,36.9a2.39,2.39,0,1,1,2.39-2.39A2.393,2.393,0,0,1,158.906,36.9Zm9.911-3.437a1.047,1.047,0,1,1-1.047,1.047,1.048,1.048,0,0,1,1.047-1.047Zm-.011,3.907h.021l2.65,7.833h-5.321Zm4.76,9.96a1.537,1.537,0,0,1-1.535,1.535H165.6a1.537,1.537,0,0,1-1.535-1.535v-.314h9.5v.314Z" transform="translate(-132.055 -26.642)"/>
        <circle id="Elipse_14573" data-name="Elipse 14573" cx="0.906" cy="0.906" r="0.906" transform="translate(25.944 6.959)"/>
      </g>
    </g>
  </g>
</svg>
